<svg width="40" height="40" viewBox="0 0 40 40" fill="none" xmlns="http://www.w3.org/2000/svg">
    <path
        d="M17.8938 10.2254C17.7938 10.097 17.687 10.0254 17.558 10.0254C17.4654 10.0328 17.3796 10.0612 17.3012 10.1112C16.3518 10.8538 15.0592 14.0026 13.9957 18.1575L14.9383 18.1649C16.7944 18.1865 18.7154 18.2075 20.6074 18.2365C20.1074 16.3371 19.6364 14.7093 19.2006 13.389C18.5648 11.4674 18.1364 10.6038 17.8938 10.2254Z"
        fill="black" />
    <path
        d="M20 2.22266C10.1827 2.22266 2.22223 10.1832 2.22223 20.0004C2.22223 29.8177 10.1827 37.7782 20 37.7782C29.8173 37.7782 37.7778 29.8177 37.7778 20.0004C37.7778 10.1832 29.8173 2.22266 20 2.22266ZM33.1229 19.7862C33.0729 19.9862 32.9512 20.1788 32.7803 20.3214C32.7586 20.3356 32.7377 20.3498 32.7161 20.364L32.6945 20.3782L32.6519 20.4066L32.6161 20.4282C32.4803 20.4998 32.3303 20.535 32.1735 20.535H23.7482C23.8124 20.8134 23.8907 21.135 23.9698 21.4776C24.434 23.4696 25.6549 28.7671 26.9611 28.7671H26.9895H27.0037H27.0321C28.0457 28.7671 28.5673 27.2961 29.7093 24.0764L29.7235 24.0406C29.9093 23.5264 30.1161 22.9412 30.3377 22.3196L30.3951 22.1628C30.4809 21.956 30.7161 21.8486 30.9235 21.9344C31.0735 21.9918 31.1803 22.1412 31.1803 22.3054C31.1803 22.348 31.1728 22.3838 31.1661 22.4196L31.1161 22.5764C30.9945 22.9622 30.8735 23.4832 30.7235 24.0899C30.0451 26.9029 29.0173 31.1511 26.3895 31.1511H26.3679C24.6685 31.1369 23.6549 28.4239 23.2191 27.2597C22.4049 25.0893 21.7914 22.7832 21.1988 20.5412H13.4599L11.8537 25.6887L11.8321 25.6671C11.5895 26.0455 11.0827 26.1597 10.7043 25.9171C10.4685 25.7671 10.3259 25.5103 10.3259 25.2319V25.2035L10.4259 24.6183C10.6475 23.2973 10.9185 21.9196 11.2185 20.5344H7.93457L7.92038 20.5202C7.24939 20.4202 6.78519 19.7918 6.88519 19.1208C6.96359 18.5998 7.36359 18.1856 7.87779 18.0924C8.00618 18.0782 8.13457 18.0708 8.26359 18.0782H8.42038C9.45556 18.0924 10.5549 18.114 11.7691 18.1282C13.4753 11.1887 15.4531 7.66155 17.6525 7.65414C20.0086 7.65414 21.758 13.0159 23.1574 18.2634L23.1648 18.285C26.0352 18.3424 29.1049 18.4276 32.0821 18.6418L32.2105 18.656C32.2605 18.656 32.3031 18.6634 32.3531 18.6702H32.3673L32.3815 18.6776H32.3889C32.8945 18.7794 33.2296 19.2794 33.1229 19.7862Z"
        fill="black" />
</svg>
