<svg width="24" height="24" viewBox="0 0 24 24" fill="none" xmlns="http://www.w3.org/2000/svg">
    <g clip-path="url(#clip0_485_72458)">
        <path
            d="M22.6535 0.292969H1.2876C0.702237 0.292969 0.29248 0.702725 0.29248 1.28809V22.771C0.29248 23.2978 0.702237 23.7076 1.2876 23.7076H22.712C23.2388 23.7076 23.7071 23.2978 23.7071 22.7125V1.28809C23.6486 0.702725 23.2388 0.292969 22.6535 0.292969ZM1.2876 1.28809H22.712V22.771H1.2876V1.28809Z"
            fill="#2D5967" />
        <path
            d="M16.8996 18.2172L13.2762 14.5586L12.5854 15.2552L16.8996 19.6103L19.6098 16.9411L15.2957 12.5859L14.5991 13.2825L15.2957 13.9791L14.6576 14.6172L15.003 14.9684L15.3484 15.3137L15.9806 14.6757L16.7298 15.4308L16.0976 16.0689L16.443 16.4201L16.7884 16.7654L17.4206 16.1274L18.2869 16.9996L16.8996 18.2172Z"
            fill="#2D5967" />
        <path
            d="M10.8291 8.15981L6.50908 3.80469L3.80469 6.47396L8.12469 10.8291L8.81542 10.1325L5.18615 6.41542L6.50908 5.08078L7.31688 5.89444L6.68469 6.53249L7.03005 6.88371L7.37542 7.22908L8.00761 6.59103L8.8681 7.46322L8.23591 8.10127L8.58127 8.44664L8.93249 8.79786L9.56469 8.15981L10.1969 8.79786L10.8291 8.15981Z"
            fill="#2D5967" />
        <path
            d="M8.22428 17.274L19.0243 6.47396L16.2906 3.80469L5.55501 14.5462L4.39014 18.4388L8.22428 17.274ZM17.6253 6.47396L16.5833 7.52176L15.2487 6.18713L16.2906 5.13932L17.6253 6.47396ZM14.5521 6.88371L15.8867 8.21835L8.22428 15.8866L6.88965 14.5462L14.5521 6.88371ZM6.31014 15.3598L7.46916 16.5188L5.78331 17.0457L6.31014 15.3598Z"
            fill="#2D5967" />
    </g>
    <defs>
        <clipPath id="clip0_485_72458">
            <rect width="24" height="24" fill="white" />
        </clipPath>
    </defs>
</svg>
