<svg width="24" height="24" viewBox="0 0 24 24" fill="none" xmlns="http://www.w3.org/2000/svg">
    <path
        d="M1.044 11.942H4.068V12.866H0L0.054 12.356C0.21 10.568 1.254 8.984 2.868 8.168C3.288 7.97 3.6 7.556 3.708 7.1C3.966 5.876 4.8 4.808 6 4.292C6.576 3.992 7.254 3.884 7.932 3.992C8.454 4.04 8.922 3.884 9.234 3.53C10.122 2.558 11.376 2.054 12.678 2C12.732 2 12.78 2 12.78 2C14.664 2 16.332 3.02 17.166 4.652C17.268 4.808 17.322 4.958 17.478 5.06C17.112 5.108 16.746 5.162 16.434 5.264C16.38 5.216 16.38 5.162 16.332 5.06C15.654 3.734 14.298 2.918 12.78 2.918C12.732 2.918 12.732 2.918 12.678 2.918C11.634 2.918 10.59 3.38 9.864 4.142C9.336 4.706 8.556 5.006 7.776 4.904C7.254 4.856 6.78 4.958 6.264 5.162C5.376 5.57 4.692 6.332 4.536 7.304C4.38 8.066 3.912 8.684 3.18 9.038C2.088 9.596 1.302 10.67 1.044 11.942ZM17.532 7.556H18.468L19.776 12.098H18.732L18.576 11.132H17.424L17.166 12.098H16.176L17.532 7.556ZM17.58 10.364H18.366L17.946 8.684L17.58 10.364ZM13.566 9.752L12.678 8.882L12 9.548L14.034 11.534L16.068 9.548L15.39 8.882L14.556 9.704C14.712 7.97 16.224 6.644 18 6.644C19.308 6.644 20.454 7.358 21.078 8.426L21.756 7.766C20.976 6.542 19.566 5.72 18 5.72C15.654 5.72 13.722 7.508 13.566 9.752ZM24 10.52L21.966 8.582L19.932 10.568L20.61 11.234L21.444 10.418C21.288 12.146 19.776 13.478 18 13.478C16.692 13.478 15.546 12.758 14.922 11.69L14.244 12.356C15.024 13.58 16.434 14.396 18 14.396C20.346 14.396 22.278 12.608 22.434 10.364L23.322 11.234L24 10.52ZM16.536 15.008C16.854 15.104 17.166 15.158 17.478 15.206V20.564C17.478 21.176 16.8 21.686 15.39 21.992C14.244 22.244 12.732 22.4 11.112 22.4C9.492 22.4 7.98 22.244 6.834 21.992C5.424 21.686 4.746 21.176 4.746 20.564V10.52C4.746 9.908 5.424 9.446 6.834 9.14C7.932 8.882 9.444 8.78 11.112 8.78C11.166 8.78 11.268 8.78 11.376 8.78V9.704C11.322 9.704 11.22 9.704 11.112 9.704C7.668 9.704 5.946 10.262 5.736 10.568V10.616C5.946 10.976 7.932 11.534 11.112 11.534C11.79 11.534 12.366 11.534 12.936 11.486C13.044 11.792 13.146 12.098 13.308 12.404C12.624 12.458 11.892 12.506 11.112 12.506C9.492 12.506 7.98 12.356 6.834 12.098C6.366 11.996 6 11.894 5.688 11.744V13.934C5.898 14.294 7.878 14.852 11.064 14.852C12.834 14.852 14.244 14.648 15.18 14.444C15.654 14.648 16.068 14.852 16.536 15.008C16.224 15.158 15.864 15.26 15.39 15.362C14.244 15.62 12.732 15.77 11.112 15.77C9.492 15.77 7.98 15.62 6.834 15.362C6.366 15.26 6 15.158 5.688 15.008V17.198C5.898 17.558 7.878 18.116 11.064 18.116C14.244 18.116 16.224 17.504 16.434 17.198L16.536 15.008ZM16.536 18.32C16.224 18.47 15.864 18.578 15.39 18.68C14.244 18.932 12.732 19.082 11.112 19.082C9.492 19.082 7.98 18.932 6.834 18.68C6.366 18.578 6 18.47 5.688 18.32V20.516C5.898 20.816 7.668 21.434 11.064 21.434C14.454 21.434 16.278 20.768 16.434 20.516L16.536 18.32Z"
        fill="#2D5967" />
</svg>
