<svg width="161" height="161" viewBox="0 0 161 161" fill="none" xmlns="http://www.w3.org/2000/svg">
    <path
        d="M80.78 106.831C80.78 106.831 75.01 99.8308 71.64 95.9808L66.88 107.251C73.73 117.461 78.26 126.251 80.75 130.451C85.61 122.221 97.46 97.7908 122.01 74.9308L119.3 68.5508C103.36 80.2508 89.79 95.3508 80.78 106.831Z"
        fill="black" />
    <path
        d="M116.52 133.75H135.97L118.81 92.6797C114.16 97.6243 109.786 102.822 105.71 108.25L116.52 133.75Z"
        fill="black" />
    <path
        d="M89.33 22.1309H72.15L25.51 133.751H44.96L78.69 54.2509L80.25 49.8809H81.15L82.79 54.2509L92.79 77.8209C97.3638 73.2691 102.167 68.9535 107.18 64.8909L89.33 22.1309Z"
        fill="black" />
</svg>
