<svg width="24" height="24" viewBox="0 0 24 24" fill="none" xmlns="http://www.w3.org/2000/svg">
    <path
        d="M6.39697 13.1003C6.39697 15.8173 8.56091 18.0502 11.2537 18.0502C13.9465 18.0502 16.1104 15.8173 16.1104 13.1003C16.1104 10.3834 13.9465 8.15039 11.2537 8.15039C8.56091 8.15039 6.39697 10.3834 6.39697 13.1003ZM15.3172 12.7208H14.5293V13.5348H15.3172C15.1067 15.4928 13.5741 17.0713 11.626 17.2362V16.4168H10.8328V17.2362C8.8793 17.0713 7.34673 15.4928 7.13627 13.5348H7.87558V12.7208H7.13627C7.34673 10.7628 8.8793 9.18437 10.8328 9.01938V9.72887H11.626V8.96438C13.5741 9.18437 15.1607 10.7628 15.3172 12.7208Z"
        fill="#2D5967" />
    <path
        d="M11.777 5.6746C15.6732 5.6746 18.83 8.75455 19.0405 12.6045L18.5063 12.0545L17.972 12.6595L19.4722 14.1995L20.967 12.6595L20.4328 12.0545L19.8446 12.6595C19.6287 8.31456 16.1049 4.84961 11.777 4.84961C8.45824 4.84961 5.46865 6.88458 4.23828 9.96453L4.98838 10.2945C6.11082 7.48957 8.78202 5.6746 11.777 5.6746Z"
        fill="#2D5967" />
    <path
        d="M11.8843 13.0886V10.7236C11.8843 10.5091 11.7494 10.3496 11.5659 10.3496C11.3878 10.3496 11.2529 10.5091 11.2529 10.7236V13.2481C11.2529 13.3526 11.2961 13.4626 11.3447 13.5176L12.289 14.6395C12.3322 14.6945 12.4239 14.7495 12.5103 14.7495C12.602 14.7495 12.6938 14.6945 12.7369 14.6395C12.8718 14.48 12.8718 14.2105 12.7369 14.1061L11.8843 13.0886Z"
        fill="#2D5967" />
    <path
        d="M3.69253 13.5125C3.80046 17.8354 7.38904 21.3499 11.7871 21.3499C15.1652 21.3499 18.117 19.3479 19.3474 16.2679L18.5973 15.9984C17.4694 18.8089 14.7928 20.5909 11.7871 20.5909C7.82075 20.5909 4.60451 17.4559 4.49659 13.5675L5.08479 14.1065L5.61903 13.5125L4.11884 12L2.61865 13.5125L3.15289 14.1065L3.69253 13.5125Z"
        fill="#2D5967" />
    <path
        d="M1 22.0659C1 22.5609 1.43171 23.0009 1.91738 23.0009H21.6681C22.1537 23.0009 22.5855 22.5609 22.5855 22.0659V3.20117H1V22.0659ZM1.80945 4.02616H21.722V22.1209C21.722 22.1759 21.6681 22.2309 21.6141 22.2309H1.91738C1.86342 22.2309 1.80945 22.1759 1.80945 22.1209V4.02616Z"
        fill="#2D5967" />
    <path
        d="M21.6681 1H1.91738C1.43171 1 1 1.3025 1 1.64349V2.09998H22.5855V1.64349C22.5855 1.3025 22.1537 1 21.6681 1Z"
        fill="#2D5967" />
</svg>
