<svg width="24" height="24" viewBox="0 0 24 24" fill="none" xmlns="http://www.w3.org/2000/svg">
    <path
        d="M4.894 21.852V20.256H5.014H11.764C11.764 19.956 11.824 19.662 11.884 19.362H5.968L6.388 10.836H14.392L14.632 16.644C14.932 16.584 15.232 16.524 15.532 16.524L15.292 10.896H15.352C15.886 10.896 16.366 10.422 16.366 9.888V5.154H13.198V6.93H11.944V5.154H10.81V3.378H13.258C13.318 3.378 13.318 3.438 13.318 3.438C13.318 3.966 13.798 4.38 14.332 4.38H17.8L16.786 2.724L17.8 1.008H14.278C14.278 0.474 13.798 0 13.258 0H10.87H10.51H9.916V5.214H8.776V6.99H7.522V5.214H4.36V9.948C4.36 10.482 4.834 10.956 5.374 10.956H5.494L5.074 19.422H4V22.8H12.604C12.364 22.506 12.184 22.206 12.064 21.912H4.894V21.852ZM16.186 1.776L15.712 2.604L16.186 3.378H14.332C14.278 3.378 14.278 3.318 14.278 3.318V1.776H16.186ZM13.258 0.768C13.318 0.768 13.378 0.828 13.378 0.888V2.37H13.318H10.87V0.768H13.258ZM5.374 9.948C5.314 9.948 5.254 9.888 5.254 9.834V5.982H6.628V7.758H9.676V5.982H11.05V7.758H14.158V5.982H15.532V9.834C15.532 9.888 15.472 9.948 15.412 9.948H15.292H5.494H5.374Z"
        fill="#2D5967" />
    <path
        d="M15.6699 17.4043C13.8519 17.4043 12.3999 18.7363 12.3999 20.4043C12.3999 22.0723 13.8519 23.4043 15.6699 23.4043C17.4879 23.4043 18.9399 22.0723 18.9399 20.4043C18.9999 18.7903 17.4879 17.4043 15.6699 17.4043ZM15.6699 22.6243C14.3379 22.6243 13.3059 21.6283 13.3059 20.4583C13.3059 19.2943 14.3979 18.2923 15.6699 18.2923C16.9419 18.2923 18.0339 19.2943 18.0339 20.4583C18.0339 21.6283 17.0019 22.6243 15.6699 22.6243Z"
        fill="#2D5967" />
    <path
        d="M16.5417 19.1953L15.2817 20.3653L14.8617 20.0353L14.2017 20.6473L15.2817 21.5953L17.2017 19.8073L16.5417 19.1953Z"
        fill="#2D5967" />
    <path
        d="M11.2594 12.588L11.8594 13.128H9.39941V13.926H11.8594L11.2594 14.466L11.9194 15L13.5994 13.5L11.9194 12L11.2594 12.588Z"
        fill="#2D5967" />
    <path
        d="M9.034 14.9903L8.458 14.4023L7 15.9023L8.458 17.4023L9.034 16.8143L8.566 16.3823H10.6V15.5783H8.458L9.034 14.9903Z"
        fill="#2D5967" />
</svg>
