<svg width="40" height="40" xmlns="http://www.w3.org/2000/svg">
    <defs>
        <linearGradient x1="0%" y1="100%" x2="100%" y2="0%" id="a">
            <stop stop-color="#01A88D" offset="0%" />
            <stop stop-color="#01A88D" offset="100%" />
        </linearGradient>
    </defs>
    <g fill="none" fill-rule="evenodd">
        <path d="M0 0h40v40H0z" fill="url(#a)" />
        <path
            d="M31.875 19.3749C31.53 19.3749 31.25 19.0943 31.25 18.7499C31.25 18.4056 31.53 18.1249 31.875 18.1249C32.22 18.1249 32.5 18.4056 32.5 18.7499C32.5 19.0943 32.22 19.3749 31.875 19.3749ZM16.8606 32.4049L14.8588 31.3137L17.1969 29.9106L16.5531 28.8393L13.5862 30.6193L10.625 29.0037V25.3537L13.4469 23.6606L12.8031 22.5893L10 24.2712L7.5 22.7712V20.3862L10.9044 18.6843L10.3456 17.5656L7.5 18.9887V17.2612L10.5975 15.7124L13.125 17.2287V18.9887L10.9706 20.0656L11.5294 21.1843L13.7519 20.0731L15.9731 21.1731L16.5269 20.0531L14.375 18.9874V17.2287L17.1969 15.5356C17.3844 15.4231 17.5 15.2193 17.5 14.9999V11.8749H16.25V14.6462L13.75 16.1462L11.25 14.6462V10.3674L13.125 9.32618V13.1249H14.375V8.6318L16.265 7.58118L19.3763 9.13493L19.3756 22.7812L12.7894 26.9724L13.4606 28.0274L19.3756 24.2637L19.375 30.8962L16.8606 32.4049ZM30 24.3749C30.345 24.3749 30.625 24.6556 30.625 24.9999C30.625 25.3443 30.345 25.6249 30 25.6249C29.655 25.6249 29.375 25.3443 29.375 24.9999C29.375 24.6556 29.655 24.3749 30 24.3749ZM25 30.6249C24.655 30.6249 24.375 30.3443 24.375 29.9999C24.375 29.6556 24.655 29.3749 25 29.3749C25.345 29.3749 25.625 29.6556 25.625 29.9999C25.625 30.3443 25.345 30.6249 25 30.6249ZM26.25 9.99993C26.595 9.99993 26.875 10.2806 26.875 10.6249C26.875 10.9693 26.595 11.2499 26.25 11.2499C25.905 11.2499 25.625 10.9693 25.625 10.6249C25.625 10.2806 25.905 9.99993 26.25 9.99993ZM31.875 16.8749C31.0612 16.8749 30.3737 17.3993 30.115 18.1249H20.6256V15.6249H26.25C26.5956 15.6249 26.875 15.3449 26.875 14.9999V12.3849C27.6006 12.1262 28.125 11.4387 28.125 10.6249C28.125 9.59118 27.2838 8.74993 26.25 8.74993C25.2162 8.74993 24.375 9.59118 24.375 10.6249C24.375 11.4387 24.8994 12.1262 25.625 12.3849V14.3749H20.6256L20.6263 8.74868C20.6263 8.5118 20.4925 8.29555 20.2806 8.18993L16.5294 6.31555C16.3444 6.22368 16.1269 6.22868 15.9469 6.32868L10.3219 9.45368C10.1231 9.56368 10 9.77305 10 9.99993V14.6137L6.59562 16.3156C6.38375 16.4218 6.25 16.6381 6.25 16.8749V23.1249C6.25 23.3443 6.36563 23.5481 6.55313 23.6606L9.375 25.3537V29.3749C9.375 29.6037 9.5 29.8143 9.70062 29.9237L16.5756 33.6737C16.6694 33.7243 16.7719 33.7499 16.875 33.7499C16.9869 33.7499 17.0975 33.7199 17.1969 33.6606L20.3219 31.7856C20.5094 31.6731 20.625 31.4693 20.625 31.2499V26.8749H24.375V28.2399C23.6494 28.4987 23.125 29.1862 23.125 29.9999C23.125 31.0337 23.9662 31.8749 25 31.8749C26.0338 31.8749 26.875 31.0337 26.875 29.9999C26.875 29.1862 26.3506 28.4987 25.625 28.2399V26.2499C25.625 25.9049 25.3456 25.6249 25 25.6249H20.625L20.6256 23.1249H27.2412L28.3131 24.1968C28.1956 24.4412 28.125 24.7112 28.125 24.9999C28.125 26.0337 28.9662 26.8749 30 26.8749C31.0338 26.8749 31.875 26.0337 31.875 24.9999C31.875 23.9662 31.0338 23.1249 30 23.1249C29.7112 23.1249 29.4413 23.1956 29.1969 23.3131L27.9419 22.0581C27.825 21.9406 27.6663 21.8749 27.5 21.8749H20.6256V19.3749H30.115C30.3737 20.1006 31.0612 20.6249 31.875 20.6249C32.9088 20.6249 33.75 19.7837 33.75 18.7499C33.75 17.7162 32.9088 16.8749 31.875 16.8749Z"
            fill="#FFF" />
    </g>
</svg>
