<svg width="40" height="40" viewBox="0 0 40 40" fill="none" xmlns="http://www.w3.org/2000/svg">
    <g clip-path="url(#clip0_451_2453)">
        <path
            d="M39.0135 17.8083C39.5135 17.8083 39.9189 17.4201 39.9189 16.9413C39.9189 16.4624 39.5135 16.0742 39.0135 16.0742C38.5135 16.0742 38.1081 16.4624 38.1081 16.9413C38.1081 17.4201 38.5135 17.8083 39.0135 17.8083Z"
            fill="black" />
        <path
            d="M12.527 18.9597C14.5406 18.9209 16.2162 20.435 16.2703 22.3762C16.3243 24.3044 14.7298 25.9091 12.7162 25.9609C12.6487 25.9609 12.5946 25.9609 12.527 25.9609C10.5135 26.0127 8.83786 24.4856 8.78381 22.5574C8.72975 20.6291 10.3243 19.0115 12.3379 18.9597C12.4054 18.9597 12.4595 18.9597 12.527 18.9597ZM12.527 24.6538C13.7568 24.6797 14.7838 23.7479 14.8108 22.5574C14.8108 22.5185 14.8108 22.4927 14.8108 22.4538C14.8108 21.2503 13.7973 20.2668 12.5406 20.2668C11.2838 20.2668 10.2568 21.2374 10.2568 22.4409C10.2162 23.6185 11.1892 24.6021 12.4189 24.6409C12.446 24.6538 12.4865 24.6538 12.527 24.6538Z"
            fill="black" />
        <path
            d="M20.8243 18.9609C22.8378 18.9998 24.446 20.5915 24.4054 22.5198C24.3784 24.4609 22.7027 26.0009 20.6892 25.9621C18.7027 25.9233 17.1081 24.3703 17.1081 22.468C17.0946 20.5527 18.6892 18.9868 20.6892 18.9739C20.7433 18.9609 20.7838 18.9609 20.8243 18.9609ZM20.8243 24.6551C22.0541 24.6809 23.0811 23.7492 23.1081 22.5586C23.1081 22.5198 23.1081 22.4939 23.1081 22.4551C23.1081 21.2515 22.0946 20.268 20.8378 20.268C19.5811 20.268 18.5541 21.2386 18.5541 22.4421C18.5135 23.6198 19.4865 24.6033 20.7162 24.6421C20.7568 24.6551 20.7973 24.6551 20.8243 24.6551Z"
            fill="black" />
        <path
            d="M38.2838 25.6645V19.1162C38.2838 19.0256 38.3514 18.9609 38.446 18.9609H39.5676C39.6487 18.9609 39.7298 19.0256 39.7298 19.1162V25.6645C39.7298 25.7421 39.6622 25.8198 39.5676 25.8198H38.446C38.3649 25.8198 38.2838 25.7551 38.2838 25.6645Z"
            fill="black" />
        <path
            d="M34.0676 18.9595C33.0676 18.9336 32.1216 19.4124 31.5676 20.2148C31.1216 19.4383 30.2703 18.9595 29.0676 18.9595C27.8649 18.9595 27.1622 19.6066 26.946 19.943V18.8819C26.946 18.8042 26.8784 18.7266 26.7973 18.7266C26.7703 18.7266 26.7298 18.7395 26.7027 18.7524L25.5271 19.3995C25.5 19.4124 25.4865 19.4383 25.4865 19.4642V25.6501C25.4865 25.7407 25.5541 25.8054 25.6487 25.8054H26.7838C26.8784 25.8054 26.946 25.7407 26.946 25.6501V22.0395C26.946 20.9266 27.7973 20.2795 28.8379 20.2795C29.8784 20.2795 30.4865 20.9266 30.4865 22.0395V25.676C30.4865 25.7536 30.5541 25.8313 30.6487 25.8313H31.7838C31.8649 25.8313 31.946 25.7666 31.946 25.676V21.9489C31.9865 20.8877 32.8243 20.2795 33.8514 20.2795C34.8784 20.2795 35.5 20.9266 35.5 22.0395V25.676C35.5 25.7536 35.5676 25.8313 35.6622 25.8313H36.7973C36.8784 25.8313 36.9595 25.7666 36.9595 25.676V21.7419C36.946 20.1113 35.9325 18.9595 34.0676 18.9595Z"
            fill="black" />
        <path
            d="M4.12163 18.9607C3.16217 18.9478 2.24325 19.2842 1.54055 19.9054V15.2725C1.54055 15.1819 1.47298 15.1172 1.37839 15.1172C1.35136 15.1172 1.32433 15.1301 1.29731 15.1431L0.135145 15.7901C0.108118 15.8031 0.0946045 15.829 0.0946045 15.8548V25.6642C0.0946045 25.7419 0.162172 25.8195 0.256767 25.8195H1.3919C1.47298 25.8195 1.55406 25.7548 1.55406 25.6642V25.0172C2.25677 25.6384 3.1892 25.9748 4.13514 25.9619C6.14866 26.0137 7.82433 24.4866 7.87839 22.5584C7.91893 20.6172 6.32433 19.0125 4.31082 18.9607C4.24325 18.9607 4.1892 18.9607 4.12163 18.9607ZM4.12163 24.6548C2.8919 24.6807 1.86487 23.749 1.83785 22.5584C1.83785 22.5195 1.83785 22.4937 1.83785 22.4548C1.83785 21.2513 2.85136 20.2678 4.12163 20.2678C5.3919 20.2678 6.40542 21.2384 6.40542 22.4548C6.44596 23.6325 5.47298 24.616 4.24325 24.6548C4.20271 24.6548 4.16217 24.6548 4.12163 24.6548Z"
            fill="black" />
    </g>
    <defs>
        <clipPath id="clip0_451_2453">
            <rect width="40" height="11" fill="white" transform="translate(0 15)" />
        </clipPath>
    </defs>
</svg>
