<svg width="24" height="24" viewBox="0 0 24 24" fill="none" xmlns="http://www.w3.org/2000/svg">
    <g clip-path="url(#clip0_442_2595)">
        <path
            d="M21.2693 10.4852C21.8979 9.86075 22.5952 10.0446 22.5952 10.6502C22.5952 11.2416 21.8812 11.8802 21.0202 12.3751C20.9372 12.4222 20.8376 12.4764 20.7379 12.5259C20.7047 12.3775 20.6858 12.2125 20.6858 12.0287C20.6858 11.5221 20.9016 10.8505 21.2693 10.4852ZM17.9152 16.8618C17.0803 17.6913 16.0129 16.6332 17.2582 15.3961C17.5405 15.1157 18.003 14.807 18.4845 14.5266C18.7597 15.2029 18.5415 16.2374 17.9152 16.8618ZM12.5948 13.5392C11.9544 13.5392 11.5393 12.7757 11.6674 11.8331C11.7931 10.8905 12.4146 10.127 13.055 10.127C13.648 10.127 14.0465 10.7821 14.0014 11.6281C13.9848 11.7506 13.9706 11.8685 13.9587 11.9816C13.7903 12.8535 13.1997 13.5392 12.5948 13.5392ZM4.13624 13.2258C3.9275 13.4332 3.67133 13.5439 3.41278 13.5439C3.17083 13.5439 2.9621 13.4355 2.78894 13.2635C2.19594 12.6744 2.24812 11.2299 3.00954 10.4711C3.22539 10.2566 3.48631 10.1317 3.75435 10.1317C3.99392 10.1317 4.20503 10.2378 4.37819 10.4098C4.93561 10.9636 4.96882 12.3987 4.13624 13.2258ZM23.9662 13.5345C23.9662 13.5345 23.729 13.2046 23.6555 13.1103C23.6057 13.0491 23.544 12.9737 23.3804 13.0844C23.0198 13.3248 22.6142 13.5439 22.1137 13.5439C21.7318 13.5439 21.3974 13.4473 21.1483 13.2376C21.2527 13.1904 21.3618 13.1386 21.4733 13.0797C22.0639 12.7616 22.5573 12.3586 22.7945 12.123C23.9449 10.9801 23.5844 9.27635 22.1825 9.27635C20.8589 9.27635 19.8129 10.5583 19.8129 11.9816C19.8129 12.196 19.8389 12.5024 19.9315 12.8275C19.8532 12.8653 19.329 13.1174 18.7004 13.4614C18.1098 13.0208 17.187 13.2187 17.187 13.2187C18.0433 12.0122 19.3313 10.127 19.4404 9.97151C19.5187 9.86075 19.5069 9.75 19.431 9.57562C19.3337 9.3659 19.2365 9.32819 19.1036 9.32819H16.428C16.3402 9.32819 16.2714 9.36825 16.2454 9.46722C16.2216 9.56384 16.1647 9.90081 16.1552 10.0163C16.1434 10.1317 16.2525 10.2024 16.3663 10.2024H18.3043L16.5513 12.6932C16.5395 12.7027 16.5276 12.7144 16.5181 12.7309C16.2643 13.0962 15.8729 13.6075 15.4033 13.6075C15.1115 13.6075 14.751 13.4002 14.751 12.7215C14.751 12.057 15.0214 10.6525 15.2183 9.55913C15.2396 9.4413 15.1993 9.32584 15.0095 9.32584H14.5351C14.426 9.32584 14.3643 9.39182 14.3477 9.48372C14.3193 9.65103 14.2908 9.81598 14.2624 9.97386C14.0275 9.52849 13.6527 9.27635 13.1096 9.27635C12.6067 9.27635 12.1157 9.46251 11.7148 9.8584C10.7138 10.8528 10.9036 12.4741 10.0402 13.3318C9.66777 13.7018 9.24555 13.5887 9.24555 12.8605C9.24555 12.0287 9.56577 11.1026 9.93343 10.2237C9.99748 10.0681 9.92869 9.93852 9.8599 9.83719C9.76265 9.6958 9.7247 9.62039 9.54917 9.62039C9.27639 9.62039 8.83994 9.79242 7.96704 9.79242C7.78202 9.79242 7.60412 9.78535 7.44519 9.77356C7.45468 9.64396 7.45706 9.55677 7.45943 9.52378C7.46417 9.40124 7.42147 9.32348 7.29101 9.32348H6.84508C6.68378 9.32348 6.64346 9.39889 6.62448 9.52378C6.54857 10.054 6.40388 12.0004 5.42187 12.976C5.30801 13.0891 5.23923 13.1245 5.23923 13.1245C5.48354 12.6485 5.61638 12.024 5.61638 11.5291C5.61638 10.1365 4.78617 9.27399 3.74486 9.27399C3.42701 9.27399 3.09018 9.37532 2.77471 9.57091C2.92177 8.72258 3.05698 7.92845 3.10442 7.65981C3.14474 7.43359 3.06172 7.31577 3.00242 7.22151C2.9028 7.06834 2.81503 7 2.6822 7H1.14514C1.05737 7 0.990955 7.06127 0.969607 7.15788C0.943515 7.27099 0.888959 7.56791 0.881843 7.70458C0.877099 7.82476 0.960119 7.86954 1.05737 7.86954H2.1817C2.00143 8.9653 1.65986 11.0885 1.55549 11.621C1.42503 12.2997 0.938771 13.1315 0.120427 13.4261C0.0184309 13.4638 -0.0242653 13.5557 0.0136868 13.6641C0.051639 13.7725 0.191588 14.0553 0.234284 14.1283C0.27698 14.2037 0.37186 14.2532 0.461997 14.2226C0.886587 14.0741 1.2756 13.8338 1.58396 13.5298C1.65986 13.4544 1.73339 13.3695 1.80455 13.2776C2.17222 14.0977 2.9194 14.397 3.68556 14.397C4.55134 14.397 5.48591 14.0977 6.14059 13.4449C6.90675 12.6862 7.22697 11.4278 7.36217 10.5371C7.55194 10.563 7.76779 10.5842 7.97415 10.5842C8.50074 10.5842 8.94193 10.4734 8.94193 10.4734C8.94193 10.4734 8.4106 11.8732 8.4106 12.9053C8.4106 14.0694 8.9704 14.3993 9.59186 14.3993C10.2299 14.3993 10.6782 13.9233 10.9985 13.3342C11.0815 13.518 11.2048 13.7371 11.3732 13.9045C11.6626 14.1919 12.0208 14.3993 12.5379 14.3993C13.1285 14.3993 13.6361 14.06 13.9967 13.5392C14.0607 13.7584 14.1604 13.9422 14.2956 14.0765C14.4782 14.2579 14.8127 14.3993 15.2325 14.3993C15.9536 14.3993 16.3711 13.862 17.493 13.862C17.6354 13.862 17.7634 13.8832 17.8797 13.9233C17.3649 14.2344 16.8763 14.569 16.5774 14.8659C15.6524 15.7849 15.6097 16.9938 16.2169 17.597C16.9522 18.3275 18.0006 17.9623 18.6553 17.3119C19.4215 16.5508 19.6444 15.111 19.2009 14.126C19.737 13.8455 20.1853 13.6382 20.292 13.5887C20.6265 14.0435 21.1815 14.3993 22.0971 14.3993C22.7518 14.3993 23.4112 14.1684 23.9259 13.7819C24.0066 13.7277 24.0232 13.6146 23.9662 13.5345Z"
            fill="black" />
    </g>
    <defs>
        <clipPath id="clip0_442_2595">
            <rect width="24" height="11" fill="white" transform="translate(0 7)" />
        </clipPath>
    </defs>
</svg>
