<svg width="40" height="40" viewBox="0 0 40 40" fill="none" xmlns="http://www.w3.org/2000/svg">
    <path
        d="M15.6059 7.81096C7.01652 7.81096 0.0438615 14.7545 0.0223928 23.3381C-9.29647e-06 31.9356 6.95864 38.923 15.5657 38.9472C24.1719 38.9677 31.1678 32.0168 31.1912 23.4201C31.194 22.1623 31.0446 20.9409 30.7655 19.7689C29.1489 20.512 27.212 20.4952 25.5533 19.5544L20.96 25.642C21.534 26.3096 21.8514 27.145 21.884 28.0028C21.913 28.7646 21.7198 29.5431 21.2736 30.2331C20.1236 32.0121 17.7397 32.5221 15.9606 31.3697C15.3464 30.9734 14.8862 30.4298 14.5903 29.8173C14.0732 28.7441 14.0638 27.4574 14.6519 26.3488L10.9555 23.5693L9.80745 25.0928L5.57905 21.9134L8.76201 17.6887L12.9904 20.8681L11.8432 22.3908L15.5807 25.201C16.7465 24.2257 18.4127 24.0131 19.8025 24.7273L24.3753 18.664C22.5496 16.8775 22.0875 14.0226 23.4335 11.7177C23.6995 11.2617 24.0206 10.8627 24.38 10.5112C21.8915 8.81514 18.8859 7.82028 15.6469 7.81096H15.6059Z"
        fill="black" />
    <mask id="mask0_451_2845" style="mask-type:luminance" maskUnits="userSpaceOnUse" x="0" y="22"
        width="31" height="16">
        <path d="M0.661987 22.5742H30.0095V37.9316H0.661987V22.5742Z" fill="white" />
    </mask>
    <g mask="url(#mask0_451_2845)">
        <g opacity="0.850006">
            <mask id="mask1_451_2845" style="mask-type:luminance" maskUnits="userSpaceOnUse" x="0"
                y="22" width="31" height="16">
                <path
                    d="M0.666458 23.391C0.664592 23.4665 0.663653 23.5439 0.66272 23.6204V23.8227C0.722459 30.7727 6.92878 37.9093 15.3604 37.9316H15.4164C23.9516 37.9232 29.9292 30.7914 30.0085 23.5784V23.3845C29.9497 20.8894 26.8088 25.3127 21.885 28.0026C21.9139 28.7644 21.7207 29.5429 21.2736 30.2329C20.1236 32.011 17.7397 32.5219 15.9606 31.3704C15.3464 30.9723 14.8862 30.4305 14.5903 29.817C7.68672 29.3434 2.62104 22.5751 1.1229 22.5742C0.83914 22.5742 0.682327 22.8166 0.666458 23.391Z"
                    fill="white" />
            </mask>
            <g mask="url(#mask1_451_2845)">
                <mask id="mask2_451_2845" style="mask-type:luminance" maskUnits="userSpaceOnUse"
                    x="-3" y="15" width="36" height="28">
                    <mask id="mask3_451_2845" style="mask-type:luminance" maskUnits="userSpaceOnUse"
                        x="-24923" y="-24790" width="49796" height="49742">
                        <path d="M-24922.8 -24789.3H24872.7V24951.2H-24922.8V-24789.3Z"
                            fill="white" />
                    </mask>
                    <g mask="url(#mask3_451_2845)">
                        <path
                            d="M1.06621 15.6143L32.5841 20.156L29.4114 42.125L-2.10742 37.5824L1.06621 15.6143Z"
                            fill="url(#paint0_linear_451_2845)" />
                    </g>
                </mask>
                <g mask="url(#mask2_451_2845)">
                    <path
                        d="M0.665848 23.391C0.663981 23.4665 0.663043 23.5439 0.662109 23.6204V23.8227C0.721848 30.7727 6.92817 37.9093 15.3598 37.9316H15.4158C23.951 37.9232 29.9286 30.7914 30.0079 23.5784V23.3845C29.9491 20.8894 26.8082 25.3127 21.8844 28.0026C21.9133 28.7644 21.7201 29.5429 21.273 30.2329C20.123 32.011 17.739 32.5219 15.9599 31.3704C15.3458 30.9723 14.8856 30.4305 14.5897 29.817C7.68611 29.3434 2.62043 22.5751 1.12229 22.5742C0.83853 22.5742 0.681716 22.8166 0.665848 23.391Z"
                        fill="black" />
                </g>
            </g>
        </g>
    </g>
    <path
        d="M38.6433 10.6581C36.6224 13.1671 32.9457 13.5681 30.4348 11.5485C27.9239 9.52615 27.5234 5.85999 29.5452 3.3472C31.5661 0.839995 35.2391 0.440932 37.7528 2.46329C40.2665 4.47632 40.6623 8.15088 38.6433 10.6581Z"
        fill="black" />
    <mask id="mask4_451_2845" style="mask-type:luminance" maskUnits="userSpaceOnUse" x="1" y="8"
        width="24" height="13">
        <path
            d="M13.7689 8.98229C10.0548 9.4606 6.58805 11.5902 4.56159 13.9408C2.44459 16.2242 1.62412 18.323 1.59052 18.4303C14.8862 10.3166 17.5604 18.2783 23.2366 20.1738L24.3753 18.6624C22.5496 16.8759 22.0875 14.0219 23.4335 11.7161C23.5128 11.579 23.6071 11.4569 23.6958 11.331C21.4406 9.79537 18.5209 8.84434 15.6348 8.84434C15.0084 8.84434 14.384 8.88905 13.7689 8.98229Z"
            fill="white" />
    </mask>
    <g mask="url(#mask4_451_2845)">
        <mask id="mask5_451_2845" style="mask-type:luminance" maskUnits="userSpaceOnUse" x="-1"
            y="5" width="28" height="19">
            <mask id="mask6_451_2845" style="mask-type:luminance" maskUnits="userSpaceOnUse"
                x="-24923" y="-24790" width="49796" height="49742">
                <path d="M-24922.8 -24789.3H24872.7V24951.2H-24922.8V-24789.3Z" fill="white" />
            </mask>
            <g mask="url(#mask6_451_2845)">
                <path
                    d="M2.15506 5.30572L26.1393 9.12662L23.8104 23.7148L-0.173828 19.8948L2.15506 5.30572Z"
                    fill="url(#paint1_linear_451_2845)" />
            </g>
        </mask>
        <g mask="url(#mask5_451_2845)">
            <path
                d="M13.7682 8.98424C10.0541 9.46256 6.58738 11.5922 4.56092 13.9427C2.44392 16.2262 1.62345 18.325 1.58984 18.4322C14.8855 10.3185 17.5597 18.2802 23.2359 20.1758L24.3747 18.6643C22.5489 16.8779 22.0868 14.0238 23.4328 11.718C23.5122 11.581 23.6064 11.4588 23.6951 11.333C21.44 9.79732 18.5202 8.84629 15.6341 8.84629C15.0078 8.84629 14.3833 8.891 13.7682 8.98424Z"
                fill="black" />
        </g>
    </g>
    <mask id="mask7_451_2845" style="mask-type:luminance" maskUnits="userSpaceOnUse" x="24" y="19"
        width="4" height="2">
        <path
            d="M24.8169 20.5281C25.7064 20.6195 26.6819 20.5533 27.7749 20.2651C27.0142 20.1868 26.2581 19.9528 25.5524 19.5528L24.8169 20.5281Z"
            fill="white" />
    </mask>
    <g mask="url(#mask7_451_2845)">
        <mask id="mask8_451_2845" style="mask-type:luminance" maskUnits="userSpaceOnUse" x="24"
            y="18" width="5" height="4">
            <mask id="mask9_451_2845" style="mask-type:luminance" maskUnits="userSpaceOnUse"
                x="-24923" y="-24790" width="49796" height="49742">
                <path d="M-24922.8 -24789.3H24872.7V24951.2H-24922.8V-24789.3Z" fill="white" />
            </mask>
            <g mask="url(#mask9_451_2845)">
                <path
                    d="M24.375 19.7887L27.1249 18.3323L28.2151 20.3873L25.4652 21.8438L24.375 19.7887Z"
                    fill="url(#paint2_linear_451_2845)" />
            </g>
        </mask>
        <g mask="url(#mask8_451_2845)">
            <path
                d="M24.8163 20.5301C25.7059 20.6214 26.6813 20.5552 27.7744 20.2671C27.0136 20.1888 26.2575 19.9548 25.5519 19.5548L24.8163 20.5301Z"
                fill="black" />
        </g>
    </g>
    <mask id="mask10_451_2845" style="mask-type:luminance" maskUnits="userSpaceOnUse" x="0" y="7"
        width="25" height="32">
        <path
            d="M15.6059 7.811C7.01652 7.811 0.0438615 14.7545 0.0223928 23.3381C-9.29933e-06 31.9357 6.95864 38.923 15.5657 38.9473L15.9606 31.3697C14.272 30.2788 13.7278 28.0896 14.6519 26.3488L10.9556 23.5693L9.80745 25.0929L5.57905 21.9134L8.76201 17.6888L12.9904 20.8682L11.8432 22.3908L15.5807 25.201C16.7465 24.2258 18.4127 24.0131 19.8025 24.7274L24.3754 18.6641C22.5496 16.8776 22.0875 14.0226 23.4335 11.7177C23.6996 11.2618 24.0206 10.8627 24.38 10.5112C21.8915 8.81518 18.8859 7.82032 15.6469 7.811H15.6059Z"
            fill="white" />
    </mask>
    <g mask="url(#mask10_451_2845)">
        <mask id="mask11_451_2845" style="mask-type:luminance" maskUnits="userSpaceOnUse" x="-11"
            y="-1" width="47" height="49">
            <mask id="mask12_451_2845" style="mask-type:luminance" maskUnits="userSpaceOnUse"
                x="-24923" y="-24790" width="49796" height="49742">
                <path d="M-24922.8 -24789.3H24872.7V24951.2H-24922.8V-24789.3Z" fill="white" />
            </mask>
            <g mask="url(#mask12_451_2845)">
                <path
                    d="M20.9845 -0.617797L35.1697 34.6135L3.39325 47.3789L-10.791 12.1476L20.9845 -0.617797Z"
                    fill="url(#paint3_linear_451_2845)" />
            </g>
        </mask>
        <g mask="url(#mask11_451_2845)">
            <path
                d="M15.605 7.81295C7.01566 7.81295 0.043007 14.7565 0.0215383 23.3401C-0.000863792 31.9376 6.95779 38.925 15.5649 38.9492L15.9597 31.3717C14.2711 30.2808 13.727 28.0915 14.6511 26.3508L10.9547 23.5713L9.80659 25.0948L5.5782 21.9154L8.76116 17.6907L12.9896 20.8701L11.8424 22.3928L15.5798 25.203C16.7456 24.2277 18.4118 24.0151 19.8017 24.7293L24.3745 18.666C22.5487 16.8795 22.0867 14.0245 23.4327 11.7197C23.6987 11.2637 24.0198 10.8647 24.3792 10.5132C21.8907 8.81714 18.885 7.82228 15.6461 7.81295H15.605Z"
                fill="black" />
        </g>
    </g>
    <defs>
        <linearGradient id="paint0_linear_451_2845" x1="4.60958" y1="27.7862" x2="23.4175"
            y2="30.5028" gradientUnits="userSpaceOnUse">
            <stop stop-color="white" stop-opacity="0" />
            <stop offset="0.209604" stop-color="white" stop-opacity="0" />
            <stop offset="0.995283" stop-color="white" />
            <stop offset="1" stop-color="white" />
        </linearGradient>
        <linearGradient id="paint1_linear_451_2845" x1="7.8725" y1="13.4355" x2="39.6247"
            y2="18.5051" gradientUnits="userSpaceOnUse">
            <stop stop-color="white" stop-opacity="0" />
            <stop offset="0.00606061" stop-color="white" stop-opacity="0" />
            <stop offset="0.0831384" stop-color="white" stop-opacity="0" />
            <stop offset="0.608227" stop-color="white" />
            <stop offset="1" stop-color="white" />
        </linearGradient>
        <linearGradient id="paint2_linear_451_2845" x1="8.36172" y1="29.5991" x2="31.2519"
            y2="17.4543" gradientUnits="userSpaceOnUse">
            <stop stop-color="white" stop-opacity="0" />
            <stop offset="0.00606061" stop-color="white" stop-opacity="0" />
            <stop offset="0.186424" stop-color="white" stop-opacity="0" />
            <stop offset="0.515152" stop-color="white" />
            <stop offset="0.82922" stop-color="white" />
            <stop offset="1" stop-color="white" />
        </linearGradient>
        <linearGradient id="paint3_linear_451_2845" x1="6.73936" y1="4.896" x2="15.4609" y2="26.606"
            gradientUnits="userSpaceOnUse">
            <stop stop-color="white" stop-opacity="0.8" />
            <stop offset="0.0638202" stop-color="white" stop-opacity="0.8" />
            <stop offset="0.986078" stop-color="white" stop-opacity="0" />
            <stop offset="1" stop-color="white" stop-opacity="0" />
        </linearGradient>
    </defs>
</svg>
