<svg width="40" height="40" viewBox="0 0 40 40" fill="none" xmlns="http://www.w3.org/2000/svg">
    <path d="M36.4822 9.83307V25.2716L33.86 30.1669V14.7282L36.4822 9.83307Z" fill="#036C9B"
        stroke="white" stroke-width="0.8" />
    <path
        d="M10.2604 5.69101H3.51776L6.13987 1.54892H12.8827L29.7394 9.83309H36.4822L33.86 14.7282H27.1172L10.2604 5.69101Z"
        fill="#036C9B" stroke="#036C9B" stroke-width="0.8" />
    <path
        d="M10.2604 5.69101H3.51776L6.13987 1.54892H12.8827L29.7394 9.83309H36.4822L33.86 14.7282H27.1172"
        stroke="white" stroke-width="0.8" />
    <path
        d="M10.2604 5.69101L27.1172 14.7282H33.86V30.1669H27.1172L10.2604 38.4511H3.51776V5.69101H10.2604Z"
        fill="#036C9B" stroke="white" stroke-width="0.8" />
    <path
        d="M25.6189 21.8827V19.9999L31.2378 22.2594L25.6189 24.8952V22.6359H12.1334V21.8827H25.6189Z"
        fill="white" stroke="white" stroke-width="0.2" />
    <path
        d="M11.7589 14.7282V13.9752H21.1238L26.7427 16.9875L27.8664 15.1048L31.987 20.3765L25.6189 19.6234L26.3681 17.7406L21.1238 14.7282H11.7589Z"
        fill="white" stroke="white" stroke-width="0.2" />
    <path
        d="M21.1238 30.1669L26.3681 27.1545L25.6189 25.2717L31.987 24.5187L27.8664 29.4138L26.7427 27.9076L21.1238 30.9201H11.7589V30.1669H21.1238Z"
        fill="white" stroke="white" stroke-width="0.2" />
</svg>
