<svg width="40" height="40" viewBox="0 0 40 40" fill="none" xmlns="http://www.w3.org/2000/svg">
    <g clip-path="url(#clip0_3_604)">
        <path d="M11.3588 39.2787V7.3483H21.2344V39.2787H11.3588Z" fill="#036C9B" stroke="white"
            stroke-width="0.8" />
        <path d="M21.2344 7.34831H11.3588L20.3086 0.721313H28.6411L21.2344 7.34831Z" fill="#036C9B"
            stroke="white" stroke-width="0.8" />
        <path d="M28.6411 0.721313V31.1455L21.2344 39.2787V7.34831L28.6411 0.721313Z" fill="#036C9B"
            stroke="white" stroke-width="0.8" />
        <path d="M26.4809 7.64957V2.52875" stroke="#036C9B" stroke-width="0.8" />
        <path d="M26.4809 7.64957V2.52875" stroke="white" stroke-width="0.8" />
        <path d="M26.4809 18.1927V13.0717" stroke="#036C9B" stroke-width="0.8" />
        <path d="M26.4809 18.1927V13.0717" stroke="white" stroke-width="0.8" />
        <path d="M26.4809 28.4345V23.3135" stroke="#036C9B" stroke-width="0.8" />
        <path d="M26.4809 28.4345V23.3135" stroke="white" stroke-width="0.8" />
        <path d="M28.6411 26.0246L21.2344 34.1578" stroke="#036C9B" stroke-width="0.8" />
        <path d="M28.6411 26.0246L21.2344 34.1578" stroke="white" stroke-width="0.8" />
        <path d="M28.6411 20.9037L21.2344 28.7357" stroke="#036C9B" stroke-width="0.8" />
        <path d="M28.6411 20.9037L21.2344 28.7357" stroke="white" stroke-width="0.8" />
        <path d="M28.6411 15.7828L21.2344 23.3135" stroke="#036C9B" stroke-width="0.8" />
        <path d="M28.6411 15.7828L21.2344 23.3135" stroke="white" stroke-width="0.8" />
        <path d="M28.6411 10.6619L21.2344 18.1927" stroke="#036C9B" stroke-width="0.8" />
        <path d="M28.6411 10.6619L21.2344 18.1927" stroke="white" stroke-width="0.8" />
        <path d="M28.6411 5.84225L21.2344 12.7705" stroke="#036C9B" stroke-width="0.8" />
        <path d="M28.6411 5.84225L21.2344 12.7705" stroke="white" stroke-width="0.8" />
        <path d="M21.2344 7.34831L28.6411 0.721313" stroke="#036C9B" stroke-width="0.8" />
        <path d="M21.2344 7.34831L28.6411 0.721313" stroke="white" stroke-width="0.8" />
        <path d="M21.2344 33.8566H11.3588" stroke="#036C9B" stroke-width="0.8" />
        <path d="M21.2344 33.8566H11.3588" stroke="white" stroke-width="0.8" />
        <path d="M21.2344 28.7357H11.3588" stroke="#036C9B" stroke-width="0.8" />
        <path d="M21.2344 28.7357H11.3588" stroke="white" stroke-width="0.8" />
        <path d="M21.2344 23.3135H11.3588" stroke="#036C9B" stroke-width="0.8" />
        <path d="M21.2344 23.3135H11.3588" stroke="white" stroke-width="0.8" />
        <path d="M21.2344 17.8914H11.3588" stroke="#036C9B" stroke-width="0.8" />
        <path d="M21.2344 17.8914H11.3588" stroke="white" stroke-width="0.8" />
        <path d="M21.2344 12.7705H11.3588" stroke="#036C9B" stroke-width="0.8" />
        <path d="M21.2344 12.7705H11.3588" stroke="white" stroke-width="0.8" />
        <path d="M24.012 36.5676V31.1455" stroke="#036C9B" stroke-width="0.8" />
        <path d="M24.012 36.5676V31.1455" stroke="white" stroke-width="0.8" />
        <path d="M24.012 26.0246V20.9037" stroke="#036C9B" stroke-width="0.8" />
        <path d="M24.012 26.0246V20.9037" stroke="white" stroke-width="0.8" />
        <path d="M24.012 15.4816V10.3607" stroke="#036C9B" stroke-width="0.8" />
        <path d="M24.012 15.4816V10.3607" stroke="white" stroke-width="0.8" />
    </g>
    <defs>
        <clipPath id="clip0_3_604">
            <rect width="40" height="40" fill="white" />
        </clipPath>
    </defs>
</svg>
