<svg width="40" height="41" viewBox="0 0 40 41" fill="none" xmlns="http://www.w3.org/2000/svg">
    <path d="M33.4578 33.1044V26.8941H1.15902V33.1044H33.4578Z" fill="#0F73A0" stroke="white"
        stroke-width="0.8" />
    <path d="M23.4606 30.258H31.6635" stroke="#0B719F" stroke-width="0.8" />
    <path d="M23.4606 30.258H31.6635" stroke="white" stroke-width="0.8" />
    <path d="M23.4606 29.9992H31.6635" stroke="#0B719F" stroke-width="0.8" />
    <path d="M23.4606 29.9992H31.6635" stroke="white" stroke-width="0.8" />
    <path d="M38.841 27.1529V21.7189L33.4578 26.8941V33.1044L38.841 27.1529Z" fill="#0F73A0"
        stroke="white" stroke-width="0.8" />
    <path d="M27.8184 38.0209V36.7271L30.6381 32.5869V35.1745L27.8184 38.0209Z" fill="#0F73A0"
        stroke="white" stroke-width="0.8" />
    <path d="M27.8184 36.7271V38.0208H1.92807V36.7271H27.8184Z" fill="#0F73A0" stroke="white"
        stroke-width="0.8" />
    <path d="M27.8184 36.7271H1.92807L4.74776 32.5869H30.6381L27.8184 36.7271Z" fill="#0F73A0"
        stroke="white" stroke-width="0.8" />
    <path d="M38.841 21.7189H6.54217L1.15902 26.8941H33.4578L38.841 21.7189Z" fill="#0F73A0"
        stroke="white" stroke-width="0.8" />
    <path d="M29.1 23.789V7.487H7.05489V23.789H29.1Z" fill="#0F73A0" stroke="white"
        stroke-width="0.8" />
    <path
        d="M8.84922 11.1097C8.84922 9.29838 10.3872 9.03964 10.3872 9.03964C10.3872 9.03964 23.7169 9.03964 25.255 9.03964C27.3057 9.03964 27.3057 11.1097 27.3057 11.1097C27.3057 11.1097 27.3057 19.1313 27.3057 20.4251C27.3057 21.4602 25.5113 21.9777 25.5113 21.9777C25.5113 21.9777 12.1816 21.9777 10.6436 21.9777C9.36195 21.9777 8.84922 20.4251 8.84922 20.4251V11.1097Z"
        fill="#0F73A0" stroke="white" stroke-width="0.8" />
    <path d="M32.9452 3.86438H10.6436L7.05489 7.48702H29.1L32.9452 3.86438Z" fill="#0F73A0"
        stroke="white" stroke-width="0.8" />
    <path d="M32.9452 20.4251V3.86438L29.1 7.48702V23.789L32.9452 20.4251Z" fill="#0B719F"
        stroke="white" stroke-width="0.8" />
</svg>
