<svg width="40" height="40" viewBox="0 0 40 40" fill="none" xmlns="http://www.w3.org/2000/svg">
    <g clip-path="url(#clip0_3_710)">
        <path d="M1.06415 17.945L9.27412 12.037H38.9358L33.1095 17.945H1.06415Z" fill="#036897"
            stroke="white" stroke-width="0.8" />
        <path d="M33.1095 27.963L38.9358 22.055V12.037L33.1095 17.945V27.963Z" fill="#036897"
            stroke="white" stroke-width="0.8" />
        <path d="M33.1095 27.963V17.945H1.06415V27.963H33.1095Z" fill="#036897" stroke="white"
            stroke-width="0.8" />
        <path
            d="M30.4611 23.0825C30.4611 23.0825 28.3424 28.2199 25.9589 23.0825C23.5754 17.945 21.4566 23.0825 21.4566 23.0825C21.4566 23.0825 19.338 28.2199 16.6896 23.0825C14.306 17.945 12.1874 23.0825 12.1874 23.0825C12.1874 23.0825 10.0686 28.2199 7.68513 23.0825C5.30162 17.945 3.18289 23.0825 3.18289 23.0825H30.4611Z"
            stroke="white" stroke-width="0.8" stroke-linecap="round" />
        <path
            d="M3.18289 23.0825C3.18289 23.0825 5.30162 28.2199 7.68513 23.0825C10.0686 17.945 12.1874 23.0825 12.1874 23.0825C12.1874 23.0825 14.306 28.2199 16.9544 23.0825C19.338 17.945 21.4566 23.0825 21.4566 23.0825C21.4566 23.0825 23.5754 28.2199 25.9589 23.0825C28.3424 17.945 30.4611 23.0825 30.4611 23.0825H3.18289Z"
            stroke="white" stroke-width="0.8" stroke-linecap="round" />
        <path
            d="M30.9907 23.0825C30.9907 23.0825 28.8721 28.2199 26.4885 23.0825C23.8401 17.945 21.9863 23.0825 21.9863 23.0825C21.9863 23.0825 19.8676 28.2199 17.2192 23.0825C14.8357 17.945 12.717 23.0825 12.717 23.0825C12.717 23.0825 10.5984 28.2199 8.21476 23.0825C5.56639 17.945 3.71252 23.0825 3.71252 23.0825H30.9907Z"
            stroke="black" stroke-width="0.8" stroke-linecap="round" />
        <path
            d="M3.71252 23.0825C3.71252 23.0825 5.56639 28.2199 8.21476 23.0825C10.5984 17.945 12.717 23.0825 12.717 23.0825C12.717 23.0825 14.8357 28.2199 17.2192 23.0825C19.8676 17.945 21.9863 23.0825 21.9863 23.0825C21.9863 23.0825 23.8401 28.2199 26.4885 23.0825C28.8721 17.945 30.9907 23.0825 30.9907 23.0825H3.71252Z"
            stroke="black" stroke-width="0.8" stroke-linecap="round" />
        <path
            d="M30.4611 23.0825C30.4611 23.0825 28.3424 28.2199 25.9589 23.0825C23.5754 17.945 21.4566 23.0825 21.4566 23.0825C21.4566 23.0825 19.338 28.2199 16.6896 23.0825C14.306 17.945 12.1874 23.0825 12.1874 23.0825C12.1874 23.0825 10.0686 28.2199 7.68513 23.0825C5.30162 17.945 3.18289 23.0825 3.18289 23.0825H30.4611Z"
            stroke="white" stroke-width="0.8" stroke-linecap="round" />
        <path
            d="M3.18289 23.0825C3.18289 23.0825 5.30162 28.2199 7.68513 23.0825C10.0686 17.945 12.1874 23.0825 12.1874 23.0825C12.1874 23.0825 14.306 28.2199 16.9544 23.0825C19.338 17.945 21.4566 23.0825 21.4566 23.0825C21.4566 23.0825 23.5754 28.2199 25.9589 23.0825C28.3424 17.945 30.4611 23.0825 30.4611 23.0825H3.18289Z"
            stroke="white" stroke-width="0.8" stroke-linecap="round" />
        <path
            d="M30.9907 23.0825C30.9907 23.0825 28.8721 28.2199 26.4885 23.0825C23.8401 17.945 21.9863 23.0825 21.9863 23.0825C21.9863 23.0825 19.8676 28.2199 17.2192 23.0825C14.8357 17.945 12.717 23.0825 12.717 23.0825C12.717 23.0825 10.5984 28.2199 8.21476 23.0825C5.56639 17.945 3.71252 23.0825 3.71252 23.0825H30.9907Z"
            stroke="black" stroke-width="0.8" stroke-linecap="round" />
        <path
            d="M3.71252 23.0825C3.71252 23.0825 5.56639 28.2199 8.21476 23.0825C10.5984 17.945 12.717 23.0825 12.717 23.0825C12.717 23.0825 14.8357 28.2199 17.2192 23.0825C19.8676 17.945 21.9863 23.0825 21.9863 23.0825C21.9863 23.0825 23.8401 28.2199 26.4885 23.0825C28.8721 17.945 30.9907 23.0825 30.9907 23.0825H3.71252Z"
            stroke="black" stroke-width="0.8" stroke-linecap="round" />
        <path
            d="M30.4611 23.0825C30.4611 23.0825 28.3424 28.2199 25.9589 23.0825C23.5754 17.945 21.4566 23.0825 21.4566 23.0825C21.4566 23.0825 19.338 28.2199 16.6896 23.0825C14.306 17.945 12.1874 23.0825 12.1874 23.0825C12.1874 23.0825 10.0686 28.2199 7.68513 23.0825C5.30162 17.945 3.18289 23.0825 3.18289 23.0825H30.4611Z"
            stroke="white" stroke-width="0.8" stroke-linecap="round" />
        <path
            d="M3.18289 23.0825C3.18289 23.0825 5.30162 28.2199 7.68513 23.0825C10.0686 17.945 12.1874 23.0825 12.1874 23.0825C12.1874 23.0825 14.306 28.2199 16.9544 23.0825C19.338 17.945 21.4566 23.0825 21.4566 23.0825C21.4566 23.0825 23.5754 28.2199 25.9589 23.0825C28.3424 17.945 30.4611 23.0825 30.4611 23.0825H3.18289Z"
            stroke="white" stroke-width="0.8" stroke-linecap="round" />
    </g>
    <defs>
        <clipPath id="clip0_3_710">
            <rect width="40" height="40" fill="white" />
        </clipPath>
    </defs>
</svg>
