<svg width="40" height="40" viewBox="0 0 40 40" fill="none" xmlns="http://www.w3.org/2000/svg">
    <path
        d="M19.0968 11.2119C10.5165 11.2119 10.5165 11.2119 10.5165 11.2119C0.807068 25.1001 0.807068 25.1001 0.807068 25.1001C9.38745 25.1001 9.38745 25.1001 9.38745 25.1001C19.7742 26.6681 22.258 25.7721 32.1932 25.1001C39.1929 13.676 39.1929 13.676 39.1929 13.676C36.7092 13.676 36.7092 13.676 36.7092 13.676C38.5156 11.2119 38.5156 11.2119 38.5156 11.2119C21.3548 11.2119 21.3548 11.2119 21.3548 11.2119C19.3227 13.676 19.3227 13.676 19.3227 13.676C17.2905 13.676 17.2905 13.676 17.2905 13.676L19.0968 11.2119Z"
        fill="#036C9B" stroke="white" stroke-width="0.6" />
    <path d="M19.0968 24.2041H13.0002L16.3872 19.9481H22.258L19.0968 24.2041Z" fill="#036C9B"
        stroke="white" stroke-width="0.6" />
    <path d="M39.1929 13.676V21.964L32.1932 29.5801V25.1L39.1929 13.676Z" fill="#036C9B"
        stroke="white" stroke-width="0.6" />
    <path d="M32.1932 25.1L39.1929 13.676" stroke="black" stroke-width="0.6" />
    <path d="M32.1932 25.1L39.1929 13.676" stroke="white" stroke-width="0.6" />
    <path
        d="M14.5809 14.348C13.4519 15.6919 12.097 17.26 11.1938 18.828C11.1938 19.724 11.1938 19.724 11.1938 19.724C8.25844 24.2041 8.25844 24.2041 8.25844 24.2041C8.03262 21.292 8.03262 21.292 8.03262 21.292C8.48426 19.052 15.2583 10.5399 16.8388 9.64392C17.2905 12.556 17.2905 12.556 17.2905 12.556C14.5809 15.244 14.5809 15.244 14.5809 15.244V14.348Z"
        fill="#036C9B" stroke="white" stroke-width="0.6" />
    <path d="M2.61345 21.292L2.38763 24.204H8.25843L8.03262 21.292H2.61345Z" fill="#036C9B"
        stroke="white" stroke-width="0.6" />
    <path
        d="M16.8388 9.64392C15.2583 10.5399 8.48426 19.052 8.03263 21.292C2.61346 21.292 2.61346 21.292 2.61346 21.292C3.0651 19.052 9.83909 10.5399 11.4197 9.64392H16.8388Z"
        fill="#036C9B" stroke="white" stroke-width="0.6" />
    <path d="M18.6452 17.036L22.258 12.332H36.0318L32.8706 17.036H18.6452Z" fill="white"
        stroke="white" stroke-width="0.6" />
    <path d="M20.2259 16.14L22.4838 13.0039H31.7416L29.7094 16.14H20.2259Z" fill="#036C9B"
        stroke="white" stroke-width="0.6" />
    <path d="M20.2259 19.9481L17.0646 24.2041" stroke="#036C9B" stroke-width="0.6" />
    <path d="M20.2259 19.9481L17.0646 24.2041" stroke="white" stroke-width="0.6" />
    <path d="M18.1937 19.9481L15.0324 24.2041" stroke="#036C9B" stroke-width="0.6" />
    <path d="M18.1937 19.9481L15.0324 24.2041" stroke="white" stroke-width="0.6" />
    <path d="M15.7098 20.8441H21.5806" stroke="#036C9B" stroke-width="0.6" />
    <path d="M15.7098 20.8441H21.5806" stroke="white" stroke-width="0.6" />
    <path d="M14.8066 21.9641H20.6774" stroke="#036C9B" stroke-width="0.6" />
    <path d="M14.8066 21.9641H20.6774" stroke="white" stroke-width="0.6" />
    <path d="M13.6777 23.308H19.7742" stroke="#036C9B" stroke-width="0.6" />
    <path d="M13.6777 23.308H19.7742" stroke="white" stroke-width="0.6" />
    <path
        d="M32.1932 29.5801C22.258 30.2521 19.7742 30.9241 9.38745 29.5801C0.807068 29.5801 0.807068 29.5801 0.807068 29.5801C0.807068 25.1 0.807068 25.1 0.807068 25.1C9.38745 25.1 9.38745 25.1 9.38745 25.1C19.7742 26.6681 22.258 25.7721 32.1932 25.1V29.5801Z"
        fill="#036C9B" stroke="white" stroke-width="0.6" />
    <path d="M19.0969 11.2119V13.676H17.2905L19.0969 11.2119Z" fill="#036C9B" stroke="white"
        stroke-width="0.6" />
    <path d="M38.5156 11.2119V13.676H36.7092L38.5156 11.2119Z" fill="black" stroke="white"
        stroke-width="0.6" />
</svg>
