<svg width="40" height="40" viewBox="0 0 40 40" fill="none" xmlns="http://www.w3.org/2000/svg">
    <path
        d="M34.736 10.4887C34.736 10.4887 22.6793 23.8849 3.1207 11.2924C1.24516 11.0245 1.24516 11.0245 1.24516 11.0245C1.5131 11.2924 1.5131 11.2924 1.5131 11.2924C7.13957 5.66595 7.13957 5.66595 7.13957 5.66595C7.40752 5.66595 7.40752 5.66595 7.40752 5.66595C29.6454 21.7415 38.487 5.66595 38.487 5.66595L34.736 10.4887Z"
        fill="#046897" />
    <path
        d="M34.736 10.4887C34.736 10.4887 22.6793 23.8849 3.1207 11.2924C1.24516 11.0245 1.24516 11.0245 1.24516 11.0245C1.5131 11.2924 1.5131 11.2924 1.5131 11.2924C7.13957 5.66595 7.13957 5.66595 7.13957 5.66595C7.40752 5.66595 7.40752 5.66595 7.40752 5.66595C29.6454 21.7415 38.487 5.66595 38.487 5.66595L34.736 10.4887Z"
        stroke="white" stroke-width="0.8" />
    <path
        d="M1.24516 34.3341C1.24516 10.4887 1.24516 10.4887 1.24516 10.4887C20.8038 23.0811 33.1284 10.2207 33.1284 10.2207C33.1284 34.3341 33.1284 34.3341 33.1284 34.3341H1.24516Z"
        fill="#046897" />
    <path
        d="M1.24516 34.3341C1.24516 10.4887 1.24516 10.4887 1.24516 10.4887C20.8038 23.0811 33.1284 10.2207 33.1284 10.2207C33.1284 34.3341 33.1284 34.3341 33.1284 34.3341H1.24516Z"
        stroke="white" stroke-width="0.8" />
    <path d="M32.8605 10.7565V10.4887V34.3341L38.7548 28.1718V5.66595L32.8605 10.7565Z"
        fill="#046897" stroke="white" stroke-width="0.8" />
</svg>
