<svg width="40" height="40" viewBox="0 0 40 40" fill="none" xmlns="http://www.w3.org/2000/svg">
    <g clip-path="url(#clip0_3_549)">
        <path d="M31.9594 18.4675V1.86475" stroke="#0D6E9C" stroke-width="0.8" />
        <path d="M31.9594 18.2121V6.71783" stroke="#0D6E9C" stroke-width="0.8" />
        <path d="M32.4794 3.39733H31.4395V1.35394H32.4794V3.39733Z" fill="black" stroke="#0D6E9C"
            stroke-width="0.8" />
        <path d="M6.74069 18.4675V1.86475" stroke="#0D6E9C" stroke-width="0.8" />
        <path d="M6.74069 18.2121V6.71783" stroke="#0D6E9C" stroke-width="0.8" />
        <path d="M7.26061 3.39733H6.22067V1.35394H7.26061V3.39733Z" fill="black" stroke="#0D6E9C"
            stroke-width="0.8" />
        <path
            d="M39.2391 20.5109C39.2391 24.5977 30.6595 27.9182 20 27.9182C9.3405 27.9182 0.760925 24.5977 0.760925 20.5109C0.760925 31.2388 0.760925 31.2388 0.760925 31.2388C0.760925 35.3256 9.3405 38.6461 20 38.6461C30.6595 38.6461 39.2391 35.3256 39.2391 31.2388V20.5109Z"
            fill="#0D6E9C" stroke="white" stroke-width="0.8" />
        <path
            d="M20 27.9182C30.6595 27.9182 39.2391 24.5977 39.2391 20.5108C39.2391 16.6794 30.6595 13.3589 20 13.3589C9.3405 13.3589 0.760925 16.6794 0.760925 20.5108C0.760925 24.5977 9.3405 27.9182 20 27.9182Z"
            fill="#0D6E9C" stroke="white" stroke-width="0.8" />
        <path
            d="M15.5802 17.7012L17.1402 20.0001L11.1604 21.5326L12.4604 20.2555L3.36084 18.7229L5.70077 17.1904L14.5403 18.4675L15.5802 17.7012Z"
            fill="white" stroke="white" stroke-width="0.8" />
        <path
            d="M24.1598 23.3206L22.8599 21.0218L28.3196 20.0001L27.5396 20.7663L36.3792 22.2989L34.2993 23.8314L25.1997 22.2989L24.1598 23.3206Z"
            fill="white" stroke="white" stroke-width="0.8" />
        <path
            d="M21.04 16.4241L27.0197 14.8915L27.2796 17.4458L25.7198 17.1904L22.8599 19.4892L20 19.2338L22.8599 16.6795L21.04 16.4241Z"
            fill="white" stroke="white" stroke-width="0.8" />
        <path
            d="M18.4401 25.6194L12.7204 26.6411L12.4604 24.0868L14.2803 24.3422L17.4002 21.788L20.26 22.2988L16.8801 25.1085L18.4401 25.6194Z"
            fill="white" stroke="white" stroke-width="0.8" />
    </g>
    <defs>
        <clipPath id="clip0_3_549">
            <rect width="40" height="40" fill="white" />
        </clipPath>
    </defs>
</svg>
