<svg width="40" height="40" viewBox="0 0 40 40" fill="none" xmlns="http://www.w3.org/2000/svg">
    <path d="M1.64322 26.8021V18.9536H31.983V26.8021H1.64322Z" fill="#0F73A0" stroke="white"
        stroke-width="0.8" />
    <path
        d="M31.983 26.8021V18.9536H1.64322L9.29186 13.1979H36.3171H38.3568V19.7384L31.983 26.8021Z"
        fill="#0F73A0" stroke="white" stroke-width="0.8" />
    <path d="M32.4928 18.9536L37.8469 13.1979" stroke="#0F73A0" stroke-width="0.8" />
    <path d="M32.4928 18.9536L37.8469 13.1979" stroke="white" stroke-width="0.8" />
    <path
        d="M6.99729 24.186C7.50716 24.186 8.01711 23.6628 8.01711 23.1395C8.01711 22.6163 7.50716 22.093 6.99729 22.093C6.48734 22.093 5.97748 22.6163 5.97748 23.1395C5.97748 23.6628 6.48734 24.186 6.99729 24.186Z"
        fill="white" />
    <path
        d="M11.8414 24.186C12.3514 24.186 12.8613 23.6628 12.8613 23.1395C12.8613 22.6163 12.3514 22.093 11.8414 22.093C11.3316 22.093 10.8216 22.6163 10.8216 23.1395C10.8216 23.6628 11.3316 24.186 11.8414 24.186Z"
        fill="white" />
    <path
        d="M16.6856 24.186C17.1955 24.186 17.7054 23.6628 17.7054 23.1395C17.7054 22.6163 17.1955 22.093 16.6856 22.093C16.1757 22.093 15.6658 22.6163 15.6658 23.1395C15.6658 23.6628 16.1757 24.186 16.6856 24.186Z"
        fill="white" />
    <path
        d="M21.5297 24.186C22.0397 24.186 22.5496 23.6628 22.5496 23.1395C22.5496 22.6163 22.0397 22.093 21.5297 22.093C21.0198 22.093 20.5099 22.6163 20.5099 23.1395C20.5099 23.6628 21.0198 24.186 21.5297 24.186Z"
        fill="white" />
    <path
        d="M26.3739 24.186C26.8838 24.186 27.3937 23.6628 27.3937 23.1395C27.3937 22.6163 26.8838 22.093 26.3739 22.093C25.864 22.093 25.354 22.6163 25.354 23.1395C25.354 23.6628 25.864 24.186 26.3739 24.186Z"
        fill="white" />
</svg>
