<svg width="40" height="40" viewBox="0 0 40 40" fill="none" xmlns="http://www.w3.org/2000/svg">
    <g clip-path="url(#clip0_3_427)">
        <path d="M0.578873 18.7793L12.1705 9.21716H39.4211L29.6597 18.7793H0.578873Z" fill="#036E9D"
            stroke="white" stroke-width="0.8" />
        <path d="M29.6597 30.7828L39.4211 21.0172V9.21716L29.6597 18.7793V30.7828Z" fill="#036E9D"
            stroke="white" stroke-width="0.8" />
        <path d="M29.6597 30.7828V18.7793H0.578873V30.7828H29.6597Z" fill="#036E9D" stroke="white"
            stroke-width="0.8" />
        <path
            d="M9.32345 15.3207L12.984 14.9138L12.3739 16.5414L11.3571 15.931L7.28984 17.5586L6.47643 17.3552L10.3403 15.7276L9.32345 15.3207Z"
            fill="white" stroke="white" stroke-width="0.8" />
        <path
            d="M24.779 15.3207L21.7286 14.9138L21.932 16.5414L22.9487 15.931L25.7958 17.3552L26.6092 17.1518L23.9656 15.7276L24.779 15.3207Z"
            fill="white" stroke="white" stroke-width="0.8" />
        <path
            d="M28.0328 25.0862C28.0328 25.0862 25.9992 30.1725 23.7622 25.0862C21.3218 20.2034 19.4916 25.0862 19.4916 25.0862C19.4916 25.0862 17.458 30.1725 15.221 25.0862C12.984 20.2034 10.9504 25.0862 10.9504 25.0862C10.9504 25.0862 9.1201 30.1725 6.67978 25.0862C4.44281 20.2034 2.4092 25.0862 2.4092 25.0862H28.0328Z"
            stroke="white" stroke-width="0.8" stroke-linecap="round" />
        <path
            d="M2.4092 25.0862C2.4092 25.0862 4.44281 30.1725 6.67978 25.0862C9.1201 20.2034 10.9504 25.0862 10.9504 25.0862C10.9504 25.0862 12.984 30.1725 15.221 25.0862C17.6613 20.2034 19.4916 25.0862 19.4916 25.0862C19.4916 25.0862 21.3218 30.1725 23.7622 25.0862C25.9992 20.2034 28.0328 25.0862 28.0328 25.0862H2.4092Z"
            stroke="white" stroke-width="0.8" stroke-linecap="round" />
        <path
            d="M28.4396 25.0862C28.4396 25.0862 26.6092 30.1725 24.1689 25.0862C21.932 20.2034 19.8984 25.0862 19.8984 25.0862C19.8984 25.0862 18.0681 30.1725 15.6277 25.0862C13.3907 20.2034 11.3571 25.0862 11.3571 25.0862C11.3571 25.0862 9.52687 30.1725 7.08648 25.0862C4.84951 20.2034 2.8159 25.0862 2.8159 25.0862H28.4396Z"
            stroke="black" stroke-width="0.8" stroke-linecap="round" />
        <path
            d="M2.8159 25.0862C2.8159 25.0862 4.84951 30.1725 7.08648 25.0862C9.52687 20.2034 11.3571 25.0862 11.3571 25.0862C11.3571 25.0862 13.3907 30.1725 15.6277 25.0862C18.0681 20.2034 19.8984 25.0862 19.8984 25.0862C19.8984 25.0862 21.932 30.1725 24.1689 25.0862C26.6092 20.2034 28.4396 25.0862 28.4396 25.0862H2.8159Z"
            stroke="black" stroke-width="0.8" stroke-linecap="round" />
        <path
            d="M28.0328 25.0862C28.0328 25.0862 25.9992 30.1725 23.7622 25.0862C21.3218 20.2034 19.4916 25.0862 19.4916 25.0862C19.4916 25.0862 17.458 30.1725 15.221 25.0862C12.984 20.2034 10.9504 25.0862 10.9504 25.0862C10.9504 25.0862 9.1201 30.1725 6.67978 25.0862C4.44281 20.2034 2.4092 25.0862 2.4092 25.0862H28.0328Z"
            stroke="white" stroke-width="0.8" stroke-linecap="round" />
        <path
            d="M2.4092 25.0862C2.4092 25.0862 4.44281 30.1725 6.67978 25.0862C9.1201 20.2034 10.9504 25.0862 10.9504 25.0862C10.9504 25.0862 12.984 30.1725 15.221 25.0862C17.6613 20.2034 19.4916 25.0862 19.4916 25.0862C19.4916 25.0862 21.3218 30.1725 23.7622 25.0862C25.9992 20.2034 28.0328 25.0862 28.0328 25.0862H2.4092Z"
            stroke="white" stroke-width="0.8" stroke-linecap="round" />
        <path
            d="M28.4396 25.0862C28.4396 25.0862 26.6092 30.1725 24.1689 25.0862C21.932 20.2034 19.8984 25.0862 19.8984 25.0862C19.8984 25.0862 18.0681 30.1725 15.6277 25.0862C13.3907 20.2034 11.3571 25.0862 11.3571 25.0862C11.3571 25.0862 9.52687 30.1725 7.08648 25.0862C4.84951 20.2034 2.8159 25.0862 2.8159 25.0862H28.4396Z"
            stroke="black" stroke-width="0.8" stroke-linecap="round" />
        <path
            d="M2.8159 25.0862C2.8159 25.0862 4.84951 30.1725 7.08648 25.0862C9.52687 20.2034 11.3571 25.0862 11.3571 25.0862C11.3571 25.0862 13.3907 30.1725 15.6277 25.0862C18.0681 20.2034 19.8984 25.0862 19.8984 25.0862C19.8984 25.0862 21.932 30.1725 24.1689 25.0862C26.6092 20.2034 28.4396 25.0862 28.4396 25.0862H2.8159Z"
            stroke="black" stroke-width="0.8" stroke-linecap="round" />
        <path
            d="M28.0328 25.0862C28.0328 25.0862 25.9992 30.1725 23.7622 25.0862C21.3218 20.2034 19.4916 25.0862 19.4916 25.0862C19.4916 25.0862 17.458 30.1725 15.221 25.0862C12.984 20.2034 10.9504 25.0862 10.9504 25.0862C10.9504 25.0862 9.1201 30.1725 6.67978 25.0862C4.44281 20.2034 2.4092 25.0862 2.4092 25.0862H28.0328Z"
            stroke="white" stroke-width="0.8" stroke-linecap="round" />
        <path
            d="M2.4092 25.0862C2.4092 25.0862 4.44281 30.1725 6.67978 25.0862C9.1201 20.2034 10.9504 25.0862 10.9504 25.0862C10.9504 25.0862 12.984 30.1725 15.221 25.0862C17.6613 20.2034 19.4916 25.0862 19.4916 25.0862C19.4916 25.0862 21.3218 30.1725 23.7622 25.0862C25.9992 20.2034 28.0328 25.0862 28.0328 25.0862H2.4092Z"
            stroke="white" stroke-width="0.8" stroke-linecap="round" />
        <path
            d="M19.2882 11.6586L17.8647 11.4551L22.9488 10.2344L25.1858 11.862H23.5589H23.1521L20.3051 13.8965H16.6446L19.6949 11.6586H19.2882Z"
            fill="white" stroke="white" stroke-width="0.8" />
        <path
            d="M16.2378 16.3379H15.0177L17.8647 14.5068L18.0681 16.3379H17.0513L15.6277 17.9655H14.6109L16.0344 16.3379H16.2378Z"
            fill="white" stroke="white" stroke-width="0.8" />
    </g>
    <defs>
        <clipPath id="clip0_3_427">
            <rect width="40" height="40" fill="white" />
        </clipPath>
    </defs>
</svg>
