<svg width="40" height="40" viewBox="0 0 40 40" fill="none" xmlns="http://www.w3.org/2000/svg">
    <path
        d="M39.0897 14.7031C39.0897 18.7389 30.5767 22.0179 20 22.0179C9.42327 22.0179 0.910309 18.7389 0.910309 14.7031C0.910309 25.297 0.910309 25.297 0.910309 25.297C0.910309 29.3327 9.42327 32.6118 20 32.6118C30.5767 32.6118 39.0897 29.3327 39.0897 25.297V14.7031Z"
        fill="#0E6F9C" stroke="white" stroke-width="0.8" />
    <path
        d="M20 22.0179C30.5767 22.0179 39.0897 18.7389 39.0897 14.7031C39.0897 10.6673 30.5767 7.38818 20 7.38818C9.42327 7.38818 0.910309 10.6673 0.910309 14.7031C0.910309 18.7389 9.42327 22.0179 20 22.0179Z"
        fill="#0E6F9C" stroke="white" stroke-width="0.8" />
    <path
        d="M15.6146 11.9285L17.1623 14.1986L11.229 15.4597L12.5189 14.4508L3.49004 12.9374L5.81173 11.1718L14.5826 12.6852L15.6146 11.9285Z"
        fill="white" stroke="white" stroke-width="0.8" />
    <path
        d="M24.1275 17.4776L22.8376 15.2075L28.2549 13.9464L27.481 14.9553L36.252 16.4687L34.1883 17.9821L25.1593 16.4687L24.1275 17.4776Z"
        fill="white" stroke="white" stroke-width="0.8" />
    <path
        d="M21.0318 10.6673L26.9652 9.15387L27.2231 11.424L25.6753 11.1718L22.8376 13.6941L20 13.1897L22.8376 10.9195L21.0318 10.6673Z"
        fill="white" stroke="white" stroke-width="0.8" />
    <path
        d="M18.4522 19.7478L12.7769 20.7567L12.5189 17.9821L14.3247 18.4866L17.4203 15.712L20.2579 16.2165L16.9043 19.2433L18.4522 19.7478Z"
        fill="white" stroke="white" stroke-width="0.8" />
</svg>
