<svg width="40" height="40" viewBox="0 0 40 40" fill="none" xmlns="http://www.w3.org/2000/svg">
    <g clip-path="url(#clip0_3_832)">
        <path d="M0.55426 30.4113V15.7669H32.8502V30.4113H0.55426Z" fill="#126D99" stroke="white"
            stroke-width="0.8" />
        <path d="M32.8502 15.7669H0.326782L8.51445 9.58875H39.6732L32.8502 15.7669Z" fill="#126D99"
            stroke="white" stroke-width="0.8" />
        <path d="M39.6732 9.58875V23.7755L32.8502 30.4113V15.7669L39.6732 9.58875Z" fill="#126D99"
            stroke="white" stroke-width="0.8" />
        <path
            d="M17.6119 21.4874C18.7491 21.4874 18.7491 21.4874 18.7491 21.4874C18.9765 21.7161 18.9765 21.7161 18.9765 21.7161C19.8863 21.7161 19.8863 21.7161 19.8863 21.7161C20.796 21.0297 20.796 21.0297 20.796 21.0297C21.7057 21.0297 21.7057 21.0297 21.7057 21.0297C22.6155 21.945 22.6155 21.945 22.6155 21.945C23.5252 21.945 23.5252 21.945 23.5252 21.945C24.6624 21.0297 24.6624 21.0297 24.6624 21.0297C25.5722 21.0297 25.5722 21.0297 25.5722 21.0297C26.2545 21.7161 26.2545 21.7161 26.2545 21.7161C27.1643 21.7161 27.1643 21.7161 27.1643 21.7161C27.6191 21.0297 27.6191 21.0297 27.6191 21.0297C30.121 22.6315 30.1209 22.6315 30.1209 22.6315C28.3014 24.2332 28.3014 24.2332 28.3014 24.2332C17.612 24.2332 17.6119 24.2332 17.6119 24.2332C17.6119 24.6908 17.6119 24.6908 17.6119 24.6908C16.0198 24.6908 16.0198 24.6908 16.0198 24.6908C15.565 24.6908 15.1101 24.9196 14.8827 25.1485C14.2004 26.5213 12.8358 27.4366 11.2437 27.4366C8.74191 27.4366 6.69498 25.3773 6.69498 22.8602C6.69498 20.3433 8.74191 18.2839 11.2437 18.2839C12.8358 18.2839 14.2004 18.9703 14.8827 20.3433C15.1101 20.8009 15.565 21.0297 16.0198 21.0297C17.6119 21.0297 17.6119 21.0297 17.6119 21.0297C17.6119 21.4874 17.6119 21.4874 17.6119 21.4874Z"
            fill="white" />
        <path
            d="M17.6119 21.4874C18.7491 21.4874 18.7491 21.4874 18.7491 21.4874C18.9765 21.7161 18.9765 21.7161 18.9765 21.7161C19.8863 21.7161 19.8863 21.7161 19.8863 21.7161C20.796 21.0297 20.796 21.0297 20.796 21.0297C21.7057 21.0297 21.7057 21.0297 21.7057 21.0297C22.6155 21.945 22.6155 21.945 22.6155 21.945C23.5252 21.945 23.5252 21.945 23.5252 21.945C24.6624 21.0297 24.6624 21.0297 24.6624 21.0297C25.5722 21.0297 25.5722 21.0297 25.5722 21.0297C26.2545 21.7161 26.2545 21.7161 26.2545 21.7161C27.1643 21.7161 27.1643 21.7161 27.1643 21.7161C27.6191 21.0297 27.6191 21.0297 27.6191 21.0297C30.121 22.6315 30.1209 22.6315 30.1209 22.6315C28.3014 24.2332 28.3014 24.2332 28.3014 24.2332C17.6119 24.2332 17.6119 24.2332 17.6119 24.2332C17.6119 24.6908 17.6119 24.6908 17.6119 24.6908C16.0198 24.6908 16.0198 24.6908 16.0198 24.6908C15.565 24.6908 15.1101 24.9196 14.8827 25.1485C14.2004 26.5213 12.8358 27.4366 11.2437 27.4366C8.74191 27.4366 6.69498 25.3773 6.69498 22.8602C6.69498 20.3433 8.74191 18.2839 11.2437 18.2839C12.8358 18.2839 14.2004 18.9703 14.8827 20.3433C15.1101 20.8009 15.565 21.0297 16.0198 21.0297C17.612 21.0297 17.6119 21.0297 17.6119 21.0297C17.6119 21.4874 17.6119 21.4874 17.6119 21.4874Z"
            stroke="#126D99" stroke-width="0.2" />
        <path
            d="M29.0627 23.35C17.4635 23.35 17.4635 23.35 17.4635 23.35C17.0086 23.35 16.3263 23.35 15.8714 23.5025C16.3263 23.5787 17.0086 23.5787 17.4635 23.5787L29.0627 23.35Z"
            stroke="#126D99" stroke-width="0.3" stroke-linejoin="round" />
        <path
            d="M28.4305 22.6353C17.8992 22.6353 17.8992 22.6353 17.8992 22.6353C17.4863 22.6353 16.4538 22.6353 16.2473 22.4L28.4305 22.6353Z"
            stroke="#126D99" stroke-width="0.3" stroke-linejoin="round" />
        <path
            d="M11.2437 26.7501C13.5181 26.7501 15.1101 24.9196 15.1101 22.8602C15.1101 20.5721 13.5181 18.7415 11.2437 18.7415C8.96935 18.7415 7.14987 20.5721 7.14987 22.8602C7.14987 25.1484 8.96935 26.7501 11.2437 26.7501Z"
            fill="white" stroke="#126D99" stroke-width="0.4" stroke-linejoin="round" />
        <path
            d="M8.96938 23.7755C9.42421 23.7755 9.87912 23.3179 9.87912 22.8602C9.87912 22.1738 9.42421 21.7161 8.96938 21.7161C8.28709 21.7161 7.83218 22.1738 7.83218 22.8602C7.83218 23.3179 8.28709 23.7755 8.96938 23.7755Z"
            fill="white" stroke="#126D99" stroke-width="0.4" stroke-linejoin="round" />
    </g>
    <defs>
        <clipPath id="clip0_3_832">
            <rect width="40" height="40" fill="white" />
        </clipPath>
    </defs>
</svg>
