<svg width="40" height="40" viewBox="0 0 40 40" fill="none" xmlns="http://www.w3.org/2000/svg">
    <path d="M31.57 38.3456V7.88495H2.30467V38.3456H31.57Z" fill="#046897" stroke="white"
        stroke-width="0.8" />
    <path
        d="M16.9373 28.3074C19.6596 28.3074 22.0418 25.8844 22.0418 23.1153C22.0418 20 19.6596 17.5769 16.9373 17.5769C14.2149 17.5769 11.8329 20 11.8329 23.1153C11.8329 25.8844 14.2149 28.3074 16.9373 28.3074Z"
        stroke="white" stroke-width="0.8" />
    <path d="M16.9373 17.5769H26.1253" stroke="white" stroke-width="0.8" />
    <path d="M26.1253 14.1155V21.0384L29.8685 17.5769L26.1253 14.1155Z" fill="white" stroke="white"
        stroke-width="0.8" />
    <path d="M11.8329 23.1153V13.7693" stroke="white" stroke-width="0.8" />
    <path d="M8.4299 13.7694H14.8956L11.8329 9.61566L8.4299 13.7694Z" fill="white" stroke="white"
        stroke-width="0.8" />
    <path d="M22.0417 23.1153V32.1149" stroke="white" stroke-width="0.8" />
    <path d="M25.4446 32.1149H18.9791L22.0418 36.2686L25.4446 32.1149Z" fill="white" stroke="white"
        stroke-width="0.8" />
    <path d="M16.9373 28.3074H8.08968" stroke="white" stroke-width="0.8" />
    <path d="M7.74937 31.7689V25.1921L4.00606 28.3074L7.74937 31.7689Z" fill="white" stroke="white"
        stroke-width="0.8" />
    <path d="M31.57 7.88492H2.30467L9.79107 1.65442H37.6953V2.00047V32.115L31.57 38.3456V7.88492Z"
        fill="#046897" stroke="white" stroke-width="0.8" />
    <path d="M31.57 7.88492L37.6953 1.65442" stroke="white" stroke-width="0.8" />
</svg>
