<svg width="40" height="41" viewBox="0 0 40 41" fill="none" xmlns="http://www.w3.org/2000/svg">
    <g clip-path="url(#clip0_3_366)">
        <path d="M29.343 28.9893V20.0914H1.1968V28.9893H29.343Z" fill="#126D99" stroke="white"
            stroke-width="0.8" />
        <path d="M1 20.0914L12.4159 11H38.5938L29.1461 20.0914H1Z" fill="#126D99" stroke="white"
            stroke-width="0.8" />
        <path d="M29.343 29.3761L38.5938 19.3176V11L29.343 20.0914V29.3761Z" fill="#126D99"
            stroke="white" stroke-width="0.8" />
        <path
            d="M17.5334 17.7702L16.9429 18.157H10.054L9.26674 18.9307L7.29847 18.157L11.2349 16.9964L10.4477 17.7702H17.5334Z"
            fill="white" stroke="white" stroke-width="0.8" />
        <path
            d="M23.0445 14.2884L22.4541 14.8686H15.5651L14.7779 15.4489L12.8096 14.6752L16.7461 13.7081L15.9588 14.2884H23.0445Z"
            fill="white" stroke="white" stroke-width="0.8" />
        <path
            d="M18.7143 16.6096L19.3049 16.2227H26.3906L26.9811 15.449L28.9493 16.2227L25.2096 17.3833L25.8001 16.6096H18.7143Z"
            fill="white" stroke="white" stroke-width="0.8" />
        <path
            d="M22.4541 13.1277L23.0445 12.7409H29.9335L30.7208 11.9672L32.689 12.9343L28.7525 13.9015L29.5398 13.1277H22.4541Z"
            fill="white" stroke="white" stroke-width="0.8" />
    </g>
    <defs>
        <clipPath id="clip0_3_366">
            <rect width="38" height="19" fill="white" transform="translate(1 11)" />
        </clipPath>
    </defs>
</svg>
