<svg width="40" height="40" viewBox="0 0 40 40" fill="none" xmlns="http://www.w3.org/2000/svg">
    <path d="M37.6853 7.75946L38.5586 8.82387L36.157 22.0223L35.0653 21.3837L37.6853 7.75946Z"
        fill="#0F73A0" stroke="white" stroke-width="0.6" />
    <path d="M11.4848 21.3837L12.3582 22.0223H36.157L35.0653 21.3837H11.4848Z" fill="black"
        stroke="white" stroke-width="0.6" />
    <path
        d="M35.2836 22.4481C35.2836 24.5769 35.2836 24.5769 35.2836 24.5769C34.6286 25.2156 34.6286 25.2156 34.6286 25.2156C34.6286 25.2156 33.1003 25.6413 33.5369 26.4928C26.9868 32.2406 26.9868 32.2406 26.9868 32.2406C26.9868 29.686 26.9868 29.686 26.9868 29.686L35.2836 22.4481Z"
        fill="#0F73A0" stroke="white" stroke-width="0.6" />
    <path d="M1.44136 29.6859V32.2405H26.9868V29.6859H1.44136Z" fill="#0F73A0" stroke="#0F73A0"
        stroke-width="0.6" />
    <path d="M1.44136 29.6859V32.2405H26.9868V29.6859H1.44136Z" stroke="white" stroke-width="0.6" />
    <path d="M11.7032 22.4481H35.2836L26.9868 29.686H1.44136L11.7032 22.4481Z" fill="#0F73A0"
        stroke="white" stroke-width="0.6" />
    <path d="M35.0653 21.3837L37.6853 7.75946H14.5415L11.4848 21.3837H35.0653Z" fill="#0F73A0"
        stroke="white" stroke-width="0.6" />
    <path d="M33.1003 19.6807L35.0652 9.46252H16.2883L14.1049 19.6807H33.1003Z" fill="#0F73A0"
        stroke="white" stroke-width="0.6" />
    <path d="M12.1399 22.6609L6.2448 27.3443" stroke="white" stroke-width="0.6"
        stroke-linejoin="round" />
    <path d="M14.1049 22.6609L8.20979 27.3443" stroke="white" stroke-width="0.6"
        stroke-linejoin="round" />
    <path d="M16.0699 22.6609L10.1749 27.3443" stroke="white" stroke-width="0.6"
        stroke-linejoin="round" />
    <path d="M18.0349 22.6609L11.9215 27.3443" stroke="white" stroke-width="0.6"
        stroke-linejoin="round" />
    <path d="M19.7817 22.6609L13.8866 27.3443" stroke="white" stroke-width="0.6"
        stroke-linejoin="round" />
    <path d="M21.7467 22.6609L15.8516 27.3443" stroke="white" stroke-width="0.6"
        stroke-linejoin="round" />
    <path d="M23.7117 22.6609L17.8167 27.3443" stroke="white" stroke-width="0.6"
        stroke-linejoin="round" />
    <path d="M25.6767 22.6609L19.5633 27.3443" stroke="white" stroke-width="0.6"
        stroke-linejoin="round" />
    <path d="M27.4235 22.6609L21.5284 27.3443" stroke="white" stroke-width="0.6"
        stroke-linejoin="round" />
    <path d="M29.3885 22.6609L23.4934 27.3443" stroke="white" stroke-width="0.6"
        stroke-linejoin="round" />
    <path d="M31.3535 22.6609L25.4585 27.3443" stroke="white" stroke-width="0.6"
        stroke-linejoin="round" />
    <path d="M33.3185 22.6609L27.2051 27.3443" stroke="white" stroke-width="0.6"
        stroke-linejoin="round" />
    <path d="M6.89975 26.9186H28.0785" stroke="white" stroke-width="0.6" stroke-linejoin="round" />
    <path d="M8.42813 25.8541H29.1702" stroke="white" stroke-width="0.6" stroke-linejoin="round" />
    <path d="M9.73818 24.7897H30.6985" stroke="white" stroke-width="0.6" stroke-linejoin="round" />
    <path d="M11.0482 23.7254H32.0086" stroke="white" stroke-width="0.6" stroke-linejoin="round" />
</svg>
