<svg width="40" height="40" viewBox="0 0 40 40" fill="none" xmlns="http://www.w3.org/2000/svg">
    <g clip-path="url(#clip0_3_750)">
        <path d="M1.07962 33.5858H35.1363V11.1299H1.07962V33.5858Z" fill="#046897" stroke="white"
            stroke-width="0.8" />
        <path d="M38.9204 27.9719L35.1363 33.5858V11.1299L38.9204 6.41412V27.9719Z" fill="#046897"
            stroke="white" stroke-width="0.8" />
        <path d="M7.08962 6.41412H38.9204L35.1363 11.1299H1.07962L7.08962 6.41412Z" fill="#046897"
            stroke="white" stroke-width="0.8" />
        <path
            d="M30.4619 22.807H24.6744V21.9087H30.4619V20.3368L33.8007 22.3579L30.4619 24.1544V22.807Z"
            fill="white" stroke="white" stroke-width="0.8" />
        <path
            d="M7.75739 22.807H1.96994V21.9087H7.75739V20.3368L11.0962 22.3579L7.75739 24.1544V22.807Z"
            fill="white" stroke="white" stroke-width="0.8" />
        <path
            d="M29.5715 16.7439L24.6744 19.8877L24.2293 18.9895L28.9037 15.8456L28.2359 14.7228L32.02 14.4982L30.2393 17.8667L29.5715 16.7439Z"
            fill="white" stroke="white" stroke-width="0.8" />
        <path
            d="M29.5715 27.9719L24.6744 24.8281L24.2293 25.5018L28.9037 28.6455L28.2359 29.9929L32.02 30.2175L30.2393 26.8491L29.5715 27.9719Z"
            fill="white" stroke="white" stroke-width="0.8" />
        <path
            d="M23.5615 22.1333C23.5615 25.2772 21.113 27.7473 17.9967 27.7473C14.8803 27.7473 12.4318 25.2772 12.4318 22.1333C12.4318 18.9895 14.8803 16.5193 17.9967 16.5193C21.113 16.5193 23.5615 18.9895 23.5615 22.1333Z"
            fill="#046897" stroke="white" stroke-width="0.8" />
    </g>
    <defs>
        <clipPath id="clip0_3_750">
            <rect width="40" height="40" fill="white" />
        </clipPath>
    </defs>
</svg>
