<svg width="24" height="24" viewBox="0 0 24 24" fill="none" xmlns="http://www.w3.org/2000/svg">
    <path
        d="M21.0281 5.94308C20.5156 5.63349 20.0031 5.37551 19.4388 5.27231C18.8745 5.16912 18.4138 4.80794 18.2065 4.28624C17.3313 2.58354 15.6384 1.5 13.7382 1.5C12.3562 1.5 11.0203 2.06757 10.099 3.09951C9.73619 3.51228 9.22371 3.71867 8.6594 3.61548C7.93962 3.56388 7.27743 3.66707 6.65554 3.97666C5.48086 4.49836 4.60561 5.5819 4.34649 6.87182C4.24284 7.38779 3.88583 7.85216 3.42518 8.11015C1.78408 8.9873 0.701538 10.5925 0.546066 12.45L0.5 12.8628H5.52693V12.0889H1.36949C1.62861 10.6441 2.50386 9.45167 3.78219 8.72931C4.50196 8.36813 4.96262 7.69737 5.11809 6.97502C5.32539 5.94308 6.03941 5.06593 6.96648 4.65315C7.47896 4.44676 8.04327 4.34357 8.55575 4.39517C9.32735 4.49836 10.099 4.18304 10.6114 3.61548C11.3773 2.73833 12.5577 2.27396 13.6921 2.27396C15.2814 2.27396 16.7727 3.1511 17.4349 4.65315C17.7977 5.37551 18.4138 5.83988 19.1854 6.04627C19.6922 6.14946 20.1067 6.35585 20.5674 6.61384C22.4158 7.80057 23.1298 10.1798 22.1624 12.192H18.4657V12.966H22.7267L22.8246 12.7596C24.1087 10.3346 23.2853 7.33619 21.0281 5.94308Z"
        fill="#2D5967" />
    <path
        d="M6.5 9.09308V14.7026C6.65479 17.719 8.71294 20.4709 12.0782 22.2702L12.233 22.376L12.3878 22.2702C15.7531 20.4709 17.7596 17.719 17.966 14.7026V9.04016L12.233 6.5L6.5 9.09308ZM17.2092 14.7026C17.0545 17.2957 15.4033 19.6771 12.5827 21.3176V20.6296V12.9562H11.826V20.6296V21.3176C9.01679 19.6771 7.35422 17.2957 7.20516 14.7026V9.62228L11.826 7.5584V8.19344V12.0037H12.5827V8.19344V7.5584L17.2092 9.62228V14.7026Z"
        fill="#2D5967" />
</svg>
