<svg width="40" height="40" viewBox="0 0 40 40" fill="none" xmlns="http://www.w3.org/2000/svg">
    <path
        d="M14.6652 22.6721C15.3234 22.6721 15.9669 22.4769 16.5142 22.1112C17.0615 21.7455 17.4881 21.2257 17.74 20.6175C17.9919 20.0094 18.0578 19.3402 17.9294 18.6945C17.801 18.0489 17.484 17.4559 17.0186 16.9904C16.5531 16.525 15.9601 16.208 15.3145 16.0796C14.6688 15.9512 13.9997 16.0171 13.3915 16.269C12.7833 16.5209 12.2635 16.9475 11.8978 17.4948C11.5321 18.0421 11.3369 18.6856 11.3369 19.3438C11.3355 19.7813 11.4206 20.2148 11.5874 20.6192C11.7541 21.0236 11.9992 21.3911 12.3086 21.7005C12.6179 22.0098 12.9854 22.2549 13.3898 22.4216C13.7943 22.5884 14.2277 22.6735 14.6652 22.6721ZM25.273 22.6721C25.9314 22.673 26.5752 22.4786 27.123 22.1134C27.6709 21.7483 28.0981 21.2289 28.3507 20.6209C28.6033 20.013 28.6698 19.3437 28.542 18.6979C28.4141 18.0521 28.0975 17.4587 27.6324 16.9928C27.1672 16.5269 26.5742 16.2095 25.9286 16.0807C25.283 15.9519 24.6136 16.0175 24.0053 16.2692C23.3969 16.5208 22.8769 16.9473 22.511 17.4946C22.1451 18.0419 21.9497 18.6855 21.9496 19.3438C21.9483 19.7809 22.0333 20.2139 22.1998 20.618C22.3663 21.022 22.611 21.3893 22.9198 21.6985C23.2286 22.0078 23.5954 22.253 23.9993 22.42C24.4031 22.5871 24.836 22.6728 25.273 22.6721Z"
        fill="black" />
    <path
        d="M37.0765 32.5514L36.1404 31.6157L31.3041 26.7794C30.1383 28.7627 28.4738 30.4065 26.476 31.5475C24.4782 32.6884 22.2167 33.2869 19.9161 33.2833C17.5897 33.2859 15.3034 32.677 13.2864 31.5176C11.2695 30.3583 9.59256 28.6893 8.42378 26.6777L3.58789 31.5114C4.87544 33.3367 6.45677 34.9358 8.26752 36.2437C11.6626 38.6811 15.7375 39.9906 19.9169 39.9873C24.0571 40.0003 28.0963 38.7086 31.4608 36.2957L32.3976 37.2314C32.8605 37.694 33.4501 38.0091 34.092 38.1368C34.7339 38.2645 35.3992 38.199 36.004 37.9488C36.6085 37.6981 37.1251 37.2739 37.4887 36.7298C37.8522 36.1857 38.0464 35.546 38.0466 34.8916C38.0466 34.457 37.961 34.0267 37.7947 33.6252C37.6284 33.2237 37.3846 32.859 37.0772 32.5518H37.0761L37.0765 32.5514Z"
        fill="black" />
    <path
        d="M39.5723 16.7435C39.0691 13.7385 37.8767 10.8909 36.0886 8.42385C34.7807 6.61289 33.1815 5.03132 31.3563 3.74348C27.9838 1.36615 23.9565 0.0943249 19.8303 0.103566C15.7041 0.112806 11.6826 1.40266 8.32075 3.79506C6.51144 5.08447 4.92955 6.66624 3.64 8.47544C1.885 10.9115 0.727253 13.726 0.260187 16.6919C0.0937491 17.7937 0.0067957 18.9061 0 20.0205C0.00672897 21.1345 0.0934579 22.247 0.260187 23.3487H7.06841C6.51427 21.1646 6.51427 18.8767 7.06841 16.6926C7.37492 15.5053 7.84883 14.3677 8.47589 13.3139C9.64172 11.3305 11.3063 9.68668 13.3041 8.54576C15.302 7.40485 17.5636 6.80658 19.8643 6.81039C22.2007 6.80323 24.4975 7.41348 26.5222 8.57936C28.4632 9.72325 30.0896 11.3316 31.255 13.2597C31.8785 14.3513 32.3989 15.4953 32.711 16.7435C33.2652 18.9276 33.2652 21.2155 32.711 23.3996H39.5742C39.7406 22.2979 39.8277 21.1857 39.8344 20.0713C39.8268 18.9572 39.7392 17.8451 39.5723 16.7435Z"
        fill="black" />
</svg>
