<svg width="24" height="24" viewBox="0 0 24 24" fill="none" xmlns="http://www.w3.org/2000/svg">
    <path fill-rule="evenodd" clip-rule="evenodd"
        d="M7.76755 14.3401C8.36506 14.3401 9.65965 14.3401 11.4522 13.5434C13.5434 12.6472 17.6264 11.1534 20.6139 9.56007C22.7052 8.46465 23.6014 6.97088 23.6014 4.9792C23.6014 2.29043 21.4106 0 18.6222 0H7.17005C3.28627 0 0.0995827 3.18669 0.0995827 7.07047C-1.33519e-06 11.1534 2.98752 14.3401 7.76755 14.3401Z"
        fill="black" />
    <path fill-rule="evenodd" clip-rule="evenodd"
        d="M9.65967 19.2198C9.65967 17.3277 10.8547 15.5351 12.6472 14.8381L16.2322 13.3443C19.9168 11.8505 23.9002 14.5393 23.9002 18.4231C23.9002 21.5102 21.4106 23.9998 18.3235 23.9998H14.4397C11.8505 23.9998 9.65967 21.9085 9.65967 19.2198Z"
        fill="black" />
    <path
        d="M4.08295 15.2363C1.79251 15.2363 0 17.0288 0 19.3193V19.8172C0 22.1076 1.79251 23.9001 4.08295 23.9001C6.37338 23.9001 8.16589 22.1076 8.16589 19.8172V19.3193C8.26548 17.1284 6.37338 15.2363 4.08295 15.2363Z"
        fill="black" />
</svg>
