<svg width="24" height="24" viewBox="0 0 24 24" fill="none" xmlns="http://www.w3.org/2000/svg">
    <path
        d="M12.0998 0L1.5 6.11219V17.8788L12.0998 24L22.6997 17.8788V6.11219L12.0998 0ZM20.8687 16.8287L12.0998 21.8908L3.33097 16.8287V7.17128L12.0998 2.1092L20.8687 7.17128V16.8287Z"
        fill="black" />
    <path
        d="M11.4704 19.4494C11.4704 19.5392 11.3716 19.593 11.2909 19.5481L5.12482 15.9849C5.01712 15.9221 4.94531 15.8054 4.94531 15.6798V8.78673C4.94531 8.69698 5.04404 8.64313 5.12482 8.68801L11.2909 12.2512C11.3986 12.314 11.4704 12.4307 11.4704 12.5564V19.4494Z"
        fill="black" />
    <path
        d="M18.2939 7.74014L12.3881 11.1508C12.2445 11.2315 12.065 11.2315 11.9214 11.1508L6.01566 7.74014C5.93488 7.69526 5.93488 7.57858 6.01566 7.5337L11.9214 4.12308C12.065 4.04231 12.2445 4.04231 12.3881 4.12308L18.2939 7.5337C18.3657 7.58756 18.3657 7.69526 18.2939 7.74014Z"
        fill="black" />
    <path
        d="M18.2995 16.4605L12.9412 19.548C12.8604 19.5928 12.7617 19.539 12.7617 19.4492V13.2652C12.7617 13.1755 12.8604 13.1216 12.9412 13.1665L18.2995 16.254C18.3713 16.2989 18.3713 16.4066 18.2995 16.4605Z"
        fill="black" />
</svg>
