<svg width="24" height="24" viewBox="0 0 24 24" fill="none" xmlns="http://www.w3.org/2000/svg">
    <g clip-path="url(#clip0_483_23233)">
        <path
            d="M22.6855 0.857422H1.82836C1.31408 0.857422 0.856934 1.31456 0.856934 1.82885V22.8003C0.856934 23.2574 1.31408 23.7146 1.82836 23.7146H22.7426C23.2569 23.7146 23.7141 23.2574 23.7141 22.7431V1.82885C23.6569 1.31456 23.1998 0.857422 22.6855 0.857422ZM22.7998 22.7431C22.7998 22.8003 22.7426 22.8574 22.6855 22.8574H1.82836C1.77122 22.8574 1.71408 22.8003 1.71408 22.7431V1.82885C1.71408 1.77171 1.77122 1.71456 1.82836 1.71456H22.7426C22.7998 1.71456 22.8569 1.77171 22.8569 1.82885L22.7998 22.7431Z"
            fill="#2D5967" />
        <path
            d="M3.14307 20.2863H20.8574V15.7148H3.14307V20.2863ZM3.99449 16.4863H20.0059V19.5148H3.99449V16.4863Z"
            fill="#2D5967" />
        <path
            d="M18.0001 19.1429C18.3144 19.1429 18.5716 18.8857 18.5716 18.5714C18.5716 18.2571 18.3144 18 18.0001 18C17.6859 18 17.4287 18.2571 17.4287 18.5714C17.4287 18.8857 17.6859 19.1429 18.0001 19.1429Z"
            fill="#2D5967" />
        <path
            d="M3.14307 7.71401H20.8574V3.14258H3.14307V7.71401ZM3.99449 3.91401H20.0059V6.94258H3.99449V3.91401Z"
            fill="#2D5967" />
        <path
            d="M18.0001 6.00028C18.3144 6.00028 18.5716 5.74314 18.5716 5.42885C18.5716 5.11456 18.3144 4.85742 18.0001 4.85742C17.6859 4.85742 17.4287 5.11456 17.4287 5.42885C17.4287 5.74314 17.6859 6.00028 18.0001 6.00028Z"
            fill="#2D5967" />
        <path
            d="M3.14307 13.9992H20.8574V9.42773H3.14307V13.9992ZM3.99449 10.1992H20.0059V13.2792H3.99449V10.1992Z"
            fill="#2D5967" />
        <path
            d="M18.0001 12.8577C18.3144 12.8577 18.5716 12.6006 18.5716 12.2863C18.5716 11.972 18.3144 11.7148 18.0001 11.7148C17.6859 11.7148 17.4287 11.972 17.4287 12.2863C17.4287 12.6006 17.6859 12.8577 18.0001 12.8577Z"
            fill="#2D5967" />
    </g>
    <defs>
        <clipPath id="clip0_483_23233">
            <rect width="24" height="24" fill="white" />
        </clipPath>
    </defs>
</svg>
