<svg width="85" height="85" viewBox="0 0 85 85" fill="none" xmlns="http://www.w3.org/2000/svg">
    <path fill-rule="evenodd" clip-rule="evenodd"
        d="M60.6938 44.6707C62.84 44.555 64.9863 44.486 67.1325 44.3283V42.6729C64.9863 42.5153 62.84 42.4463 60.6938 42.328L54.2551 42.1285C50.4778 42.0127 46.7004 41.9807 42.9181 41.9561C42.9229 38.1596 42.8812 34.3632 42.793 30.5677L42.6115 24.1012C42.5012 21.9457 42.4398 19.7903 42.2878 17.6348H40.4678C40.3157 19.7903 40.2544 21.9457 40.144 24.1012L39.9649 30.5677C39.9159 32.3487 39.8938 34.1323 39.8766 35.9133C39.1776 34.2751 38.4785 32.637 37.7549 31.0086L35.1255 25.1038C34.2008 23.1577 33.3227 21.187 32.3612 19.2532L30.6834 19.9553C31.3629 22.0024 32.1281 24.0199 32.8468 26.0523L35.1451 32.0975C35.778 33.7603 36.4353 35.4132 37.0976 37.0686C35.8324 35.8189 34.5569 34.5797 33.2712 33.3513L28.5912 28.9074C26.9968 27.4613 25.4344 25.9808 23.8081 24.5644L22.5253 25.8552C23.9332 27.4884 25.4074 29.0576 26.8472 30.6588L31.2721 35.359C32.4969 36.6499 33.7307 37.9308 34.9734 39.202C33.3251 38.5368 31.6793 37.8766 30.0212 37.2411L24.0044 34.9329C21.9808 34.2111 19.9719 33.4425 17.9312 32.7577L17.2346 34.4451C19.16 35.4108 21.1198 36.2927 23.06 37.2214L28.9395 39.8622C30.5583 40.5889 32.1895 41.2909 33.8206 41.9905C32.0472 42.0103 30.2738 42.0324 28.498 42.0792L22.0617 42.2615C19.9155 42.3724 17.7693 42.434 15.623 42.5867V44.4145C17.7693 44.5673 19.9155 44.6289 22.0617 44.7397L28.5004 44.9195C32.2827 45.023 36.0625 45.0403 39.8423 45.0476C39.8668 48.8413 39.8963 52.6374 40.0115 56.4335L40.2127 62.9C40.328 65.0555 40.3966 67.211 40.5536 69.3665H42.2019C42.3589 67.211 42.4276 65.0555 42.5453 62.9L42.744 56.4335C42.8004 54.6082 42.8298 52.7828 42.8568 50.9574C43.5698 52.6358 44.2991 54.3084 45.0447 55.9753L47.6938 61.8703C48.621 63.8164 49.504 65.7822 50.4729 67.716L51.9936 67.078C51.3191 65.0284 50.5636 63.0109 49.8474 60.9736L47.5663 54.9259C46.9203 53.218 46.2597 51.5166 45.5844 49.8217C46.8827 51.0978 48.1942 52.3623 49.5187 53.6154L54.211 58.0471C55.8102 59.4882 57.3751 60.9638 59.0063 62.3778L60.1738 61.2052C58.7659 59.5695 57.2966 57.9954 55.8617 56.3892L51.4491 51.6742C50.2018 50.3473 48.9435 49.031 47.6742 47.7254C49.3601 48.4036 51.0525 49.0679 52.7515 49.7183L58.7781 52.0068C60.8042 52.7261 62.8131 53.4848 64.8563 54.1647L65.4891 52.6325C63.5636 51.6644 61.6087 50.7726 59.6685 49.8414L53.7989 47.181C52.1408 46.4321 50.4729 45.7078 48.8049 44.9836C50.62 44.959 52.4376 44.9294 54.2551 44.8727L60.6938 44.6707Z"
        fill="black" />
    <path fill-rule="evenodd" clip-rule="evenodd"
        d="M42.6044 84.1467C19.6115 84.1467 0.90625 65.3607 0.90625 42.2687C0.90625 19.1766 19.6115 0.390625 42.6044 0.390625C65.5972 0.390625 84.3025 19.1766 84.3025 42.2687C84.3025 65.3607 65.5972 84.1467 42.6044 84.1467ZM42.6044 4.30745C21.7627 4.30745 4.80625 21.3346 4.80625 42.2687C4.80625 63.2028 21.7627 80.2299 42.6044 80.2299C63.4461 80.2299 80.4025 63.2003 80.4025 42.2687C80.4025 21.337 63.4461 4.30745 42.6044 4.30745Z"
        fill="black" />
</svg>
