<svg width="24" height="24" viewBox="0 0 24 24" fill="none" xmlns="http://www.w3.org/2000/svg">
    <g clip-path="url(#clip0_485_54149)">
        <path
            d="M22.7541 0.285156H1.81693C1.27408 0.285156 0.856934 0.702299 0.856934 1.24516V22.1823C0.856934 22.7252 1.27408 23.1423 1.81693 23.1423H22.7541C23.2969 23.1423 23.7141 22.7252 23.7141 22.1823V1.24516C23.7141 0.702299 23.2969 0.285156 22.7541 0.285156ZM22.8798 22.1823C22.8798 22.2452 22.8169 22.3023 22.7541 22.3023H1.81693C1.75408 22.3023 1.69122 22.2452 1.69122 22.1823V1.24516C1.69122 1.1823 1.75408 1.12516 1.81693 1.12516H22.7541C22.8169 1.12516 22.8798 1.1823 22.8798 1.24516V22.1823Z"
            fill="#2D5967" />
        <path
            d="M3.14258 19.714H20.8569V15.1426H3.14258V19.714ZM4.03401 15.8969H20.0226V18.9597H4.03401V15.8969Z"
            fill="#2D5967" />
        <path
            d="M17.9997 18.5706C18.3139 18.5706 18.5711 18.3134 18.5711 17.9992C18.5711 17.6849 18.3139 17.4277 17.9997 17.4277C17.6854 17.4277 17.4282 17.6849 17.4282 17.9992C17.4282 18.3134 17.6854 18.5706 17.9997 18.5706Z"
            fill="#2D5967" />
        <path
            d="M11.1426 2.57031H3.14258V7.14174H11.1426V2.57031ZM6.85115 3.37603H7.49115V6.4446H6.85115C6.85115 6.38746 6.85115 3.37603 6.85115 3.37603ZM6.03972 6.38746H5.40544V3.37603H6.03972V6.38746ZM8.30258 3.37603H8.94258V6.4446H8.30258V3.37603ZM4.01115 3.37603H4.65115V6.4446H4.01115V3.37603ZM10.3311 6.38746H9.69115V3.37603H10.3311V6.38746Z"
            fill="#2D5967" />
        <path
            d="M12.8569 7.14174H20.8569V2.57031H12.8569V7.14174ZM17.1484 6.38746H16.5084V3.37603H17.1484V6.38746ZM17.9598 3.37603H18.5941V6.4446H17.9598V3.37603ZM15.6969 6.38746H15.0626V3.37603H15.6969V6.38746ZM20.0455 6.38746H19.4055V3.37603H20.0455V6.38746ZM13.6684 3.37603H14.3084V6.4446H13.6684V3.37603Z"
            fill="#2D5967" />
        <path
            d="M11.1426 8.85742H3.14258V13.4289H11.1426V8.85742ZM6.85115 9.61171H7.49115V12.6746H6.85115C6.85115 12.6231 6.85115 9.61171 6.85115 9.61171ZM6.03972 12.6746H5.40544V9.61171H6.03972V12.6746ZM8.30258 9.61171H8.94258V12.6746H8.30258V9.61171ZM4.01115 9.61171H4.65115V12.6746H4.01115V9.61171ZM10.3311 12.6746H9.69115V9.61171H10.3311V12.6746Z"
            fill="#2D5967" />
        <path
            d="M12.8569 13.4289H20.8569V8.85742H12.8569V13.4289ZM17.1484 12.6746H16.5084V9.61171H17.1484V12.6746ZM17.9598 9.61171H18.5941V12.6746H17.9598V9.61171ZM15.6969 12.6746H15.0626V9.61171H15.6969V12.6746ZM20.0455 12.6746H19.4055V9.61171H20.0455V12.6746ZM13.6684 9.61171H14.3084V12.6746H13.6684V9.61171Z"
            fill="#2D5967" />
    </g>
    <defs>
        <clipPath id="clip0_485_54149">
            <rect width="24" height="24" fill="white" />
        </clipPath>
    </defs>
</svg>
