<svg width="40" height="40" viewBox="0 0 40 40" fill="none" xmlns="http://www.w3.org/2000/svg">
    <g clip-path="url(#clip0_471_2317)">
        <path
            d="M17.8668 8.4511C18.0929 8.58277 18.078 8.76527 17.833 8.85693L3.5077 14.2177C3.35507 14.2943 3.17027 14.2318 3.09437 14.0777C3.06797 14.0243 3.05725 13.9652 3.06385 13.906V0.295402C3.06385 0.0320726 3.24865 -0.0754246 3.4747 0.05624L17.8668 8.4511ZM21.2749 10.4369C21.0101 10.3019 20.704 10.2752 20.4202 10.3636L3.50522 16.6935C3.24699 16.8051 3.07457 17.0551 3.06055 17.3385V18.3593C3.06137 18.6234 3.27339 18.8368 3.53409 18.8376H35.2009C35.4616 18.8376 35.4905 18.7301 35.2644 18.6001L21.2749 10.4369Z"
            fill="black" />
        <path
            d="M3.47427 39.9432C3.24822 40.0749 3.06342 39.9665 3.06342 39.704V26.0934C3.05682 26.0343 3.06754 25.9743 3.09394 25.9218C3.16984 25.7676 3.35547 25.7051 3.50727 25.7818L17.8326 31.1425C18.0776 31.2342 18.0924 31.4158 17.8664 31.5483L3.47427 39.9432Z"
            fill="black" />
        <path
            d="M35.2646 21.3977C35.4906 21.2685 35.4617 21.1602 35.201 21.1602H3.53507C3.27355 21.161 3.06235 21.3752 3.06152 21.6385V22.6593C3.07555 22.9426 3.24797 23.1926 3.5062 23.3043L20.4212 29.6342C20.705 29.7225 21.011 29.6959 21.2759 29.5609L35.2646 21.3977Z"
            fill="black" />
    </g>
    <defs>
        <clipPath id="clip0_471_2317">
            <rect width="33" height="40" fill="white" transform="translate(3)" />
        </clipPath>
    </defs>
</svg>
