<svg width="96" height="96" fill="none" xmlns="http://www.w3.org/2000/svg">
    <g clip-path="url(#a)">
        <mask id="b" mask-type="alpha" maskUnits="userSpaceOnUse" x="5" y="0" width="86"
            height="96">
            <path
                d="M46.035.608a4 4 0 0 1 3.93 0l39 21.994A4 4 0 0 1 91 26.086v43.828a4 4 0 0 1-2.035 3.484l-39 21.994a4 4 0 0 1-3.93 0l-39-21.994A4 4 0 0 1 5 69.914V26.086a4 4 0 0 1 2.035-3.484l39-21.994Z"
                fill="#fff" />
        </mask>
        <g mask="url(#b)">
            <path
                d="M46.015 1.134a4 4 0 0 1 3.97 0l38 21.714A4 4 0 0 1 90 26.321V69.68a4 4 0 0 1-2.016 3.473l-38 21.714a4 4 0 0 1-3.969 0l-38-21.714A4 4 0 0 1 6 69.679V26.32a4 4 0 0 1 2.015-3.473l38-21.714Z"
                fill="url(#c)" />
            <path fill-rule="evenodd" clip-rule="evenodd"
                d="M6 47.772v-.062l.055.031L32 33.5l.862 29.745 13.136 7.597a4 4 0 0 0 4.005 0L90 47.71V28.087 70.225a4 4 0 0 1-2.053 3.494l-38 21.18a4 4 0 0 1-3.894 0l-38-21.18A4 4 0 0 1 6 70.226V47.772Z"
                fill="url(#d)" />
            <g filter="url(#e)">
                <path
                    d="M46.017 25.765a4 4 0 0 1 3.968-.002L66.99 35.47a4 4 0 0 1 2.017 3.474v19.095a4 4 0 0 1-2.013 3.472l-17.008 9.735a4 4 0 0 1-3.97.003L29.02 61.544a4 4 0 0 1-2.016-3.474V38.956a4 4 0 0 1 2.014-3.472l16.998-9.72Z"
                    fill="#000" fill-opacity=".24" />
            </g>
            <g filter="url(#f)">
                <path
                    d="M46.017 26.765a4 4 0 0 1 3.968-.002L66.99 36.47a4 4 0 0 1 2.017 3.474v19.095a4 4 0 0 1-2.013 3.472l-17.008 9.735a4 4 0 0 1-3.97.003L29.02 62.544a4 4 0 0 1-2.016-3.474V39.956a4 4 0 0 1 2.014-3.472l16.998-9.72Z"
                    fill="#000" fill-opacity=".32" />
            </g>
            <path
                d="M46.017 25.382a4 4 0 0 1 3.968-.002l17.004 9.707a4 4 0 0 1 2.017 3.474v19.096a4 4 0 0 1-2.013 3.471l-17.008 9.736a4 4 0 0 1-3.97.002L29.02 61.16a4 4 0 0 1-2.016-3.473V38.574a4 4 0 0 1 2.014-3.473l16.998-9.72Z"
                fill="url(#g)" />
            <path fill-rule="evenodd" clip-rule="evenodd"
                d="m46.038 25.499-.002.001-17.287 9.745-.002.001c-.08.046-.16.094-.236.145a1.25 1.25 0 0 0 .134 2.09l17.39 9.805a4 4 0 0 0 3.93 0l17.39-9.804a1.25 1.25 0 0 0 .134-2.091 3.946 3.946 0 0 0-.238-.146L49.964 25.5a4 4 0 0 0-3.925-.001Z"
                fill="url(#h)" />
        </g>
    </g>
    <defs>
        <linearGradient id="c" x1="36.835" y1="32.403" x2="71.151" y2="88.469"
            gradientUnits="userSpaceOnUse">
            <stop stop-color="#0078D4" />
            <stop offset="1" stop-color="#2064AE" />
        </linearGradient>
        <linearGradient id="d" x1="28.313" y1="27.863" x2="61.893" y2="97.173"
            gradientUnits="userSpaceOnUse">
            <stop stop-color="#40C4F5" />
            <stop offset="1" stop-color="#0095E6" />
        </linearGradient>
        <linearGradient id="g" x1="34.17" y1="28.492" x2="56.315" y2="69.927"
            gradientUnits="userSpaceOnUse">
            <stop stop-color="#7CECFF" />
            <stop offset="1" stop-color="#50E6FF" />
        </linearGradient>
        <linearGradient id="h" x1="30.93" y1="25.17" x2="37.003" y2="52.04"
            gradientUnits="userSpaceOnUse">
            <stop stop-color="#A7F2FF" />
            <stop offset="1" stop-color="#7CECFF" />
        </linearGradient>
        <filter id="e" x="26.245" y="24.477" width="43.521" height="48.058"
            filterUnits="userSpaceOnUse" color-interpolation-filters="sRGB">
            <feFlood flood-opacity="0" result="BackgroundImageFix" />
            <feBlend in="SourceGraphic" in2="BackgroundImageFix" result="shape" />
            <feGaussianBlur stdDeviation=".38" result="effect1_foregroundBlur" />
        </filter>
        <filter id="f" x="19.005" y="18.237" width="58.001" height="62.538"
            filterUnits="userSpaceOnUse" color-interpolation-filters="sRGB">
            <feFlood flood-opacity="0" result="BackgroundImageFix" />
            <feBlend in="SourceGraphic" in2="BackgroundImageFix" result="shape" />
            <feGaussianBlur stdDeviation="4" result="effect1_foregroundBlur" />
        </filter>
        <clipPath id="a">
            <path fill="#fff" d="M0 0h96v96H0z" />
        </clipPath>
    </defs>
</svg>
