<svg width="40" height="40" viewBox="0 0 40 40" fill="none" xmlns="http://www.w3.org/2000/svg">
    <g>
        <path
            d="M13.3041 37.917C13.3046 38.1343 13.3502 38.3491 13.438 38.5481C13.5256 38.7471 13.6534 38.9259 13.8136 39.0734C13.9736 39.2209 14.1626 39.3339 14.3683 39.4054C14.5742 39.4768 14.7926 39.5052 15.01 39.4887C23.272 38.8993 31.0752 33.0728 33.5664 23.9719C33.6973 23.4486 34.0915 23.1861 34.6164 23.1861C34.8855 23.1969 35.1397 23.3129 35.3236 23.5092C35.5074 23.7054 35.6062 23.966 35.5987 24.2343C35.5987 26.2637 32.9814 31.5669 29.2383 34.6445C29.0475 34.8045 28.8954 35.0053 28.7932 35.232C28.6913 35.4586 28.6417 35.7054 28.6485 35.9537C28.6524 36.1558 28.6961 36.355 28.7773 36.5402C28.8586 36.7252 28.9756 36.8925 29.1218 37.0324C29.268 37.1722 29.4405 37.282 29.6293 37.3553C29.8181 37.4287 30.0196 37.4642 30.2222 37.4596C30.5501 37.4596 31.0752 37.2632 31.7311 36.6736C34.3486 34.3159 39.3372 27.7034 39.3372 20.4354C39.3372 9.77983 31.0706 0.597656 19.5335 0.597656C9.23919 0.597656 0.321289 8.97851 0.321289 18.6686C0.321289 25.0847 5.43615 29.9291 12.1892 29.9291C17.3704 29.9291 22.1573 26.2637 23.4691 21.2214C23.5999 20.6979 23.9926 20.4354 24.5175 20.4354C24.787 20.4462 25.041 20.5623 25.2252 20.7585C25.4092 20.9547 25.5086 21.2152 25.5015 21.4839C25.5015 23.7755 21.1734 31.7679 12.3862 31.7679C10.2878 31.7679 7.66566 31.1785 5.82877 30.1301C5.58287 30.0113 5.31502 29.9445 5.04199 29.9337C4.83293 29.9257 4.62447 29.961 4.42972 30.0371C4.23497 30.1133 4.05814 30.2288 3.91034 30.3765C3.76256 30.5242 3.64699 30.7006 3.57095 30.8948C3.49489 31.0892 3.45999 31.2971 3.46842 31.5054C3.47691 31.7725 3.55363 32.0329 3.69131 32.2619C3.82901 32.4911 4.0231 32.6814 4.25521 32.8149C6.68177 34.1962 9.56723 34.9101 12.5172 34.9101C19.8616 34.9101 26.55 29.9337 28.5177 22.6013C28.6485 22.0778 29.0427 21.8153 29.5663 21.8153C29.8356 21.8261 30.0898 21.9422 30.2738 22.1384C30.4581 22.3346 30.5572 22.5951 30.5501 22.8638C30.5501 25.8753 25.1736 35.5655 14.8129 36.3513C14.412 36.381 14.0364 36.5572 13.7577 36.8462C13.4793 37.1352 13.3177 37.5165 13.3041 37.917Z"
            fill="black" />
        <path
            d="M23.5708 12.8436C24.9849 12.8332 26.3731 13.2227 27.5739 13.9673C27.6954 13.3051 27.7622 12.6341 27.7742 11.961C27.7742 8.85275 25.3969 6.06836 22.5022 6.06836C20.2513 6.06836 18.8439 7.92718 18.8439 10.2235C18.8331 11.4639 19.2704 12.667 20.0757 13.6127C21.1667 13.094 22.3622 12.831 23.5708 12.8436Z"
            fill="white" />
        <path
            d="M30.3537 24.1037C30.7556 22.7346 30.9327 21.7845 30.9327 21.1673C30.9204 20.901 30.8057 20.6493 30.6127 20.4648C30.4195 20.2801 30.1625 20.1767 29.8949 20.1758C29.6457 20.1804 29.4051 20.268 29.2115 20.4245C29.0179 20.5812 28.8823 20.7977 28.8263 21.0399C28.717 21.4898 28.483 22.7084 28.252 23.4821C28.3475 23.1924 28.4347 22.8983 28.5139 22.5995C28.6446 22.0746 29.0388 21.8136 29.5623 21.8136C29.8315 21.824 30.0857 21.9397 30.2698 22.1357C30.454 22.3316 30.5532 22.592 30.5462 22.8604C30.5339 23.2824 30.466 23.7009 30.3445 24.1052L30.3537 24.1037Z"
            fill="black" />
        <path
            d="M35.927 22.6712C35.9143 22.4051 35.7999 22.1539 35.6071 21.9694C35.4144 21.7851 35.158 21.6813 34.8907 21.6797C34.6417 21.6846 34.4014 21.7723 34.2082 21.9288C34.015 22.0855 33.8796 22.3018 33.8238 22.5438C33.7128 23.0043 33.4742 24.2415 33.2402 25.0135H33.2509C33.3649 24.6698 33.4711 24.3213 33.5589 23.9667C33.6897 23.4418 34.0838 23.1808 34.609 23.1808C34.878 23.1912 35.1321 23.3071 35.3159 23.5029C35.4998 23.6989 35.5988 23.9594 35.5913 24.2277C35.5837 24.5535 35.5389 24.8775 35.4574 25.1931C35.7837 24.0511 35.927 23.2252 35.927 22.6712Z"
            fill="black" />
        <path
            d="M23.5707 12.8435C24.2734 12.842 24.9732 12.9354 25.6508 13.1212C26.0066 12.6376 26.1844 12.0466 26.1543 11.4475C26.1241 10.8486 25.8879 10.2781 25.4855 9.83239C25.0829 9.3867 24.5387 9.09274 23.9443 9.00007C23.3499 8.90744 22.7416 9.02173 22.2218 9.32373L23.2996 11.092L21.2812 10.2217C21.0077 10.6615 20.8707 11.172 20.8871 11.6893C20.9036 12.2064 21.0727 12.7071 21.3736 13.1289C22.0899 12.9365 22.8288 12.8404 23.5707 12.8435Z"
            fill="black" />
        <path
            d="M8.02015 24.2222C8.87056 24.2222 9.55988 23.5349 9.55988 22.6873C9.55988 21.8395 8.87056 21.1523 8.02015 21.1523C7.16981 21.1523 6.48047 21.8395 6.48047 22.6873C6.48047 23.5349 7.16981 24.2222 8.02015 24.2222Z"
            fill="black" />
        <path
            d="M8.02015 18.0835C8.87056 18.0835 9.55988 17.3964 9.55988 16.5486C9.55988 15.7008 8.87056 15.0137 8.02015 15.0137C7.16981 15.0137 6.48047 15.7008 6.48047 16.5486C6.48047 17.3964 7.16981 18.0835 8.02015 18.0835Z"
            fill="black" />
        <path
            d="M4.94106 21.1521C5.79142 21.1521 6.48076 20.4648 6.48076 19.617C6.48076 18.7693 5.79142 18.082 4.94106 18.082C4.09071 18.082 3.40137 18.7693 3.40137 19.617C3.40137 20.4648 4.09071 21.1521 4.94106 21.1521Z"
            fill="black" />
        <path
            d="M11.8688 29.9267H12.1767C17.3577 29.9267 22.1446 26.2612 23.4566 21.2187C23.5874 20.6954 23.9801 20.433 24.505 20.433C24.7743 20.4438 25.0285 20.5598 25.2127 20.756C25.3967 20.9522 25.4959 21.2127 25.4889 21.4812C25.4654 22.0171 25.3438 22.5441 25.1302 23.0363C25.1673 22.979 25.1998 22.919 25.2272 22.8565C25.6168 21.9688 25.8181 21.0104 25.8185 20.0415C25.8185 18.5358 24.7684 17.5533 23.261 17.5533C20.6328 17.5533 20.1062 19.8405 18.9976 22.2857C17.8474 24.8244 15.735 27.5704 10.4075 27.5704C4.87241 27.5704 -0.81524 23.7069 0.572027 15.851C0.588962 15.7529 0.60283 15.6654 0.613611 15.584C0.41034 16.5989 0.307189 17.6312 0.305664 18.6661C0.321056 24.9902 5.27734 29.7793 11.8688 29.9267Z"
            fill="black" />
    </g>
</svg>
