<svg width="24" height="24" viewBox="0 0 24 24" fill="none" xmlns="http://www.w3.org/2000/svg">
    <path
        d="M19.75 5.322C19.75 3.486 14.6155 3 11.875 3C9.13 3 4 3.486 4 5.322V18.75C4 20.55 9.1525 21 11.875 21C14.593 21 19.75 20.55 19.75 18.75V5.322ZM18.8635 14.322C18.8635 14.403 18.535 14.808 17.014 15.1815C15.3265 15.546 13.603 15.7215 11.875 15.6945C10.138 15.717 8.4055 15.5415 6.709 15.1725C5.1925 14.799 4.8865 14.394 4.8865 14.313V11.01C6.466 11.8875 9.859 12.153 11.8975 12.153C13.927 12.153 17.3245 11.8875 18.9085 11.01L18.8635 14.322ZM18.8635 9.903C18.8635 9.984 18.535 10.3935 17.014 10.7625C15.3265 11.127 13.603 11.3025 11.875 11.2755C10.138 11.298 8.4055 11.1225 6.709 10.7535C5.1925 10.3845 4.8865 9.975 4.8865 9.894V6.465C6.466 7.365 9.859 7.6395 11.8975 7.6395C13.927 7.6395 17.3245 7.3695 18.9085 6.465L18.8635 9.903ZM6.7135 4.4175C8.41 4.044 10.138 3.8685 11.875 3.9C13.6075 3.8775 15.34 4.0575 17.0365 4.44C18.5935 4.8 18.886 5.25 18.886 5.322C18.886 5.394 18.5755 5.835 17.0365 6.222C15.34 6.6045 13.6075 6.7845 11.875 6.762C10.138 6.789 8.41 6.609 6.7135 6.2265C5.1745 5.835 4.8865 5.412 4.8865 5.322C4.8865 5.232 5.197 4.8045 6.736 4.422L6.7135 4.4175ZM17.041 19.6005C15.34 19.974 13.6075 20.145 11.875 20.1225C10.138 20.145 8.4055 19.9695 6.709 19.6005C5.1925 19.2315 4.8865 18.822 4.8865 18.75V15.429C6.466 16.3065 9.859 16.572 11.8975 16.572C13.927 16.572 17.3245 16.3065 18.9085 15.429V18.75C18.9085 18.831 18.58 19.2405 17.0635 19.6095"
        fill="#2D5967" />
</svg>
