<svg width="24" height="24" viewBox="0 0 24 24" fill="none" xmlns="http://www.w3.org/2000/svg">
    <path
        d="M23.7482 4.51075C23.494 4.3838 23.3845 4.62573 23.2359 4.74864C23.185 4.78828 23.142 4.83981 23.099 4.88738C22.7274 5.29178 22.2933 5.55751 21.7261 5.52574C20.897 5.47813 20.1891 5.74387 19.5633 6.3902C19.4303 5.5932 18.9883 5.1173 18.3156 4.81205C17.9636 4.65341 17.6077 4.49478 17.3613 4.14979C17.1892 3.90403 17.1423 3.63041 17.0562 3.36076C17.0014 3.19821 16.9467 3.03161 16.7628 3.00384C16.5634 2.97216 16.4851 3.14259 16.4069 3.28542C16.094 3.86834 15.9728 4.51071 15.9845 5.161C16.0119 6.62421 16.6181 7.78991 17.8227 8.61868C17.9596 8.71386 17.9948 8.80895 17.9518 8.94783C17.8697 9.23332 17.7719 9.51086 17.6859 9.79635C17.6311 9.97879 17.5489 10.0184 17.3573 9.93906C16.6963 9.65761 16.1253 9.2412 15.6207 8.73766C14.7642 7.89306 13.9898 6.96123 13.0237 6.23161C12.7969 6.06109 12.57 5.90255 12.3353 5.75179C11.3497 4.7764 12.4644 3.97536 12.7226 3.88027C12.9924 3.78113 12.8164 3.44005 11.9442 3.4441C11.072 3.44802 10.2742 3.74544 9.25728 4.14196C9.10867 4.20145 8.95217 4.24501 8.79182 4.2807C7.8688 4.10231 6.91055 4.06257 5.9093 4.17764C4.0241 4.39172 2.51835 5.29978 1.4115 6.85021C0.0817348 8.71386 -0.231148 10.8312 0.152152 13.0399C0.55501 15.3674 1.7205 17.2945 3.51183 18.8014C5.36966 20.3636 7.50907 21.1289 9.94962 20.9822C11.432 20.895 13.0825 20.6928 14.9442 19.0869C15.4135 19.3248 15.9063 19.4199 16.7238 19.4913C17.3535 19.5508 17.9597 19.4596 18.429 19.3605C19.1643 19.2019 19.1135 18.508 18.8476 18.3811C16.6925 17.3581 17.1657 17.7744 16.7355 17.4373C17.8306 16.117 19.4812 14.7449 20.1265 10.2999C20.1773 9.94702 20.1343 9.72493 20.1265 9.43944C20.1226 9.26501 20.1617 9.19764 20.3573 9.17775C20.897 9.11429 21.4211 8.96367 21.9022 8.69401C23.2985 7.91686 23.8616 6.64005 23.9946 5.10947C24.0142 4.8755 23.9907 4.63357 23.7482 4.51075ZM11.5806 18.2859C9.49202 16.6126 8.47906 16.0614 8.06053 16.0852C7.66942 16.109 7.73984 16.565 7.82584 16.8624C7.91581 17.1558 8.03316 17.3581 8.1974 17.6158C8.31081 17.7863 8.38909 18.04 8.08402 18.2304C7.41128 18.6547 6.24182 18.0876 6.18704 18.0599C4.82601 17.243 3.68786 16.1644 2.88603 14.6895C2.11161 13.2698 1.66187 11.7473 1.58752 10.1215C1.56796 9.72898 1.68138 9.59011 2.06468 9.51882C2.56921 9.42364 3.08942 9.40375 3.59395 9.47908C5.72559 9.79635 7.54033 10.7678 9.06174 12.3063C9.93002 13.1826 10.5871 14.2295 11.2638 15.2525C11.9834 16.3389 12.7578 17.3739 13.7434 18.2225C14.0915 18.5198 14.3692 18.7458 14.6351 18.9124C13.8334 19.0036 12.4958 19.0235 11.5806 18.2859ZM12.5818 11.7235C12.5818 11.549 12.7187 11.4102 12.8909 11.4102C12.93 11.4102 12.9652 11.4181 12.9965 11.4299C13.0395 11.4459 13.0786 11.4697 13.1099 11.5053C13.1647 11.5609 13.1959 11.6401 13.1959 11.7234C13.1959 11.8979 13.0591 12.0366 12.887 12.0366C12.715 12.0366 12.5818 11.8979 12.5818 11.7235ZM15.6912 13.3492C15.4918 13.4325 15.2923 13.5038 15.1006 13.5118C14.8034 13.5276 14.4788 13.4047 14.3028 13.254C14.029 13.02 13.8334 12.8892 13.7513 12.4808C13.7161 12.3063 13.7356 12.0367 13.767 11.8821C13.8374 11.549 13.7591 11.3349 13.5284 11.1405C13.3406 10.9819 13.1021 10.9383 12.84 10.9383C12.7422 10.9383 12.6523 10.8947 12.5858 10.859C12.4763 10.8035 12.3864 10.6647 12.4724 10.4942C12.4997 10.4388 12.6328 10.3039 12.6641 10.2801C13.02 10.0739 13.4307 10.1413 13.81 10.296C14.1621 10.4427 14.428 10.7123 14.8113 11.093C15.2024 11.5529 15.2728 11.6799 15.4957 12.0248C15.6718 12.2944 15.8321 12.572 15.9416 12.8892C16.0081 13.0875 15.922 13.2501 15.6912 13.3492Z"
        fill="black" />
</svg>
