<svg width="24" height="24" viewBox="0 0 24 24" fill="none" xmlns="http://www.w3.org/2000/svg">
    <path
        d="M12.9672 19.7871C12.8648 19.9014 12.7565 20.0098 12.6482 20.1181C12.0344 20.7078 11.2942 21.1832 10.4818 21.5022C9.66941 21.8271 8.79081 21.9956 7.9062 22.0017H7.62938L8.09275 21.5684L7.45487 20.9606L5.81201 22.4891L7.45487 23.9996L8.12284 23.3737L7.58726 22.8863H7.93629C9.01949 22.8742 10.0907 22.6516 11.0716 22.2243C12.0524 21.797 12.925 21.1772 13.6351 20.413L13.256 20.0639L12.9672 19.7871Z"
        fill="#2D5967" />
    <path
        d="M16.7926 5.95508L16.1246 6.58695L16.6181 7.03828H16.4014C15.3904 7.0443 14.3855 7.23687 13.4527 7.60395C12.52 7.97103 11.6714 8.50662 10.9674 9.18061C10.847 9.28893 10.7327 9.40327 10.6304 9.5176L11.0456 9.90274L11.3104 10.1675C11.4187 10.0472 11.5391 9.92681 11.6534 9.81247C12.2732 9.22273 13.0134 8.75335 13.8318 8.4344C14.6502 8.10944 15.5288 7.94095 16.4135 7.93493H16.6361L16.1306 8.3983L16.8106 9.02415L18.4535 7.49563L16.7926 5.95508Z"
        fill="#2D5967" />
    <path
        d="M21.322 4.33558C20.8226 4.02265 20.2749 3.79397 19.7033 3.6676C19.4505 3.61946 19.2158 3.51716 19.0112 3.36069C18.8066 3.20423 18.6441 3.00565 18.5238 2.78299C18.1687 2.05484 17.6331 1.42899 16.9832 0.953583C16.3273 0.478178 15.569 0.165254 14.7687 0.0509161C13.9683 -0.0634218 13.1499 0.0148094 12.3856 0.285609C11.6274 0.55641 10.9414 1.00774 10.3938 1.6035C10.2253 1.78404 10.0146 1.92245 9.78596 2.00669C9.55728 2.09696 9.31055 2.12705 9.06382 2.09696C8.07089 2.00669 7.07796 2.28351 6.27759 2.88529C5.47723 3.48105 4.92961 4.35965 4.73704 5.34054C4.6889 5.58126 4.59261 5.80391 4.44217 6.0025C4.29774 6.20109 4.11119 6.35755 3.89455 6.4779C3.08817 6.89915 2.40214 7.51898 1.89665 8.28324C1.39717 9.0475 1.1023 9.92609 1.03611 10.8348L1 11.3583H2.91967L3.19047 11.0875L3.89455 10.3955H2.0832C2.20957 9.75158 2.48037 9.13776 2.87153 8.61422C3.26269 8.08465 3.76818 7.65739 4.3519 7.35048C4.70093 7.16995 5.00784 6.91118 5.24253 6.59826C5.47723 6.27932 5.63971 5.91825 5.71794 5.5271C5.86237 4.78089 6.27759 4.11894 6.88539 3.6676C7.48717 3.21627 8.23939 2.99963 8.99161 3.07184C9.38878 3.11397 9.78596 3.05981 10.153 2.9214C10.5201 2.78299 10.8571 2.56033 11.1279 2.27148C11.5672 1.79607 12.1209 1.42899 12.7347 1.21235C13.3485 0.995707 14.0044 0.929512 14.6483 1.01978C15.2922 1.11606 15.906 1.36279 16.4356 1.74191C16.9591 2.12705 17.3864 2.63254 17.6813 3.21627C17.8558 3.57132 18.1146 3.88424 18.4275 4.12495C18.7404 4.37168 19.1015 4.54018 19.4866 4.62443C20.0884 4.75682 20.6541 5.02762 21.1355 5.40674C21.6229 5.79188 22.0141 6.2733 22.2909 6.82694C22.5677 7.38057 22.7121 7.98235 22.7302 8.60218C22.7422 9.21599 22.6219 9.82981 22.3691 10.3955H20.8767L21.5808 11.0996L21.8456 11.3704H22.9649L23.0973 11.1176C23.7111 9.97423 23.8676 8.63829 23.5366 7.38057C23.2056 6.12286 22.4173 5.03364 21.322 4.33558Z"
        fill="#2D5967" />
    <path
        d="M18.4503 14.9887C18.4503 14.6337 18.348 14.2907 18.1494 13.9958C17.9509 13.7009 17.674 13.4723 17.3491 13.3339C17.0181 13.2015 16.6631 13.1654 16.314 13.2315C15.965 13.3038 15.6461 13.4723 15.3993 13.725C15.1466 13.9717 14.9781 14.2907 14.9059 14.6397C14.8397 14.9887 14.8758 15.3438 15.0082 15.6748C15.1466 15.9997 15.3753 16.2765 15.6701 16.4751C15.965 16.6737 16.308 16.776 16.6631 16.776C16.8978 16.776 17.1324 16.7279 17.3491 16.6376C17.5657 16.5534 17.7583 16.421 17.9268 16.2525C18.0953 16.084 18.2217 15.8914 18.3119 15.6748C18.4022 15.4581 18.4503 15.2234 18.4503 14.9887ZM15.7845 14.9887C15.7845 14.8082 15.8326 14.6337 15.9349 14.4893C16.0312 14.3388 16.1756 14.2245 16.3381 14.1523C16.5006 14.0861 16.6871 14.068 16.8616 14.1041C17.0362 14.1402 17.1926 14.2245 17.319 14.3509C17.4454 14.4772 17.5356 14.6337 17.5657 14.8142C17.6018 14.9887 17.5838 15.1693 17.5176 15.3318C17.4514 15.5003 17.331 15.6387 17.1866 15.7349C17.0362 15.8372 16.8616 15.8914 16.6811 15.8914C16.5608 15.8914 16.4464 15.8734 16.3321 15.8252C16.2177 15.7831 16.1154 15.7169 16.0312 15.6326C15.9469 15.5484 15.8807 15.4461 15.8326 15.3378C15.7845 15.2295 15.7604 15.1091 15.7604 14.9887H15.7845Z"
        fill="#2D5967" />
    <path
        d="M19.5712 10.6131L18.5963 11.3533H18.5542L18.4158 10.1738H15.5694L15.431 11.3533H15.3888L14.42 10.6131L12.6267 12.3282L12.404 12.5509L13.1562 13.4475V13.4896L11.9286 13.5979V15.4875L10.9477 15.6079L10.8454 15.8967C10.7973 16.0592 10.7251 16.2157 10.6468 16.3661L10.4964 16.6429L11.0921 17.3771L10.352 18.0932L9.58168 17.5215L9.29283 17.6539C9.13637 17.7322 8.97389 17.7984 8.79937 17.8525L8.49848 17.9488L8.38415 18.8816H7.32502L7.21068 17.9488L6.90377 17.8525C6.73527 17.7984 6.57279 17.7322 6.41633 17.6539L6.12748 17.5215L5.3572 18.0932L4.59896 17.3771L5.20074 16.6429L5.06835 16.3782C4.9841 16.2277 4.9179 16.0713 4.86374 15.9088L4.76144 15.6199L3.76851 15.5056V14.4826L4.74941 14.3803L4.86374 14.0974C4.9179 13.9349 4.9841 13.7785 5.06835 13.628L5.21879 13.3512L4.61702 12.617L5.37526 11.8949L6.14553 12.4666L6.43439 12.3282C6.59085 12.2439 6.75333 12.1838 6.92183 12.1296L7.22873 12.0393L7.34307 11.1066H8.40822L8.52255 12.0393L8.82344 12.1296C8.99194 12.1838 9.16044 12.2439 9.3169 12.3282L9.60576 12.4666L10.376 11.8949L11.1283 12.617L11.7601 11.8769L10.4302 10.6131L9.46133 11.3533H9.4192L9.2808 10.1738H6.43439L6.29598 11.3533H6.25385L5.28499 10.6131L3.26302 12.5388L4.04533 13.4595V13.5017L2.80566 13.6341V16.3782L4.04533 16.5106V16.5467L3.26302 17.4794L5.28499 19.3991L6.25385 18.6529H6.29598L6.43439 19.8023H9.2808L9.4192 18.6589H9.46133L10.4302 19.4051L12.4281 17.5035L12.2536 17.2929L11.6578 16.5707V16.5346L12.2175 16.4865H12.392L12.9276 16.3782V14.4946L13.9025 14.3923L13.9987 14.0974C14.0529 13.9349 14.1251 13.7785 14.2033 13.628L14.3538 13.3512L13.758 12.617L14.5102 11.8949L15.2805 12.4666L15.5694 12.3282C15.7258 12.2439 15.8883 12.1838 16.0628 12.1296L16.3697 12.0393L16.4781 11.1066H17.5312L17.6395 12.0393L17.9464 12.1296C18.1149 12.1838 18.2774 12.2439 18.4338 12.3282L18.7227 12.4666L19.493 11.8949L20.2572 12.617L19.6554 13.3512L19.7999 13.628C19.8841 13.7785 19.9503 13.9349 20.0045 14.0974L20.1068 14.3923L21.0877 14.4946V15.5176L20.1068 15.6199L20.0045 15.9088C19.9503 16.0713 19.8841 16.2277 19.7999 16.3782L19.6554 16.649L20.2572 17.3891L19.493 18.0932L18.7287 17.5215L18.4399 17.6539C18.2834 17.7322 18.1209 17.7984 17.9524 17.8525L17.6455 17.9488L17.5312 18.8755H16.46L16.3336 17.9428L16.0207 17.8465C15.8522 17.7923 15.6897 17.7322 15.5333 17.6479L15.2625 17.5215L14.4922 18.0932L13.8062 17.4253L13.7099 17.4012L13.1081 18.1113L14.42 19.357L15.3888 18.6168H15.431L15.5694 19.8023H18.4158L18.5542 18.6589H18.5963L19.5712 19.4051L21.5811 17.4854L20.8048 16.5527V16.5166L22.0626 16.3782V13.6341L20.8229 13.5257V13.4836L21.6052 12.5569L19.5712 10.6131Z"
        fill="#2D5967" />
    <path
        d="M5.81201 14.9631C5.81201 15.3181 5.91431 15.6611 6.1129 15.956C6.31149 16.2509 6.58831 16.4795 6.91327 16.618C7.24424 16.7503 7.59929 16.7864 7.94832 16.7203C8.29735 16.648 8.6163 16.4795 8.86303 16.2268C9.11577 15.9801 9.28427 15.6611 9.35648 15.3121C9.42268 14.9631 9.38657 14.608 9.25418 14.277C9.11577 13.9521 8.8871 13.6753 8.59223 13.4767C8.29735 13.2781 7.95434 13.1758 7.59929 13.1758C7.12389 13.1758 6.67255 13.3623 6.33556 13.6993C5.99856 14.0363 5.81201 14.4877 5.81201 14.9631ZM8.47789 14.9631C8.47789 15.1436 8.42975 15.3181 8.32744 15.4625C8.23116 15.613 8.08673 15.7273 7.92425 15.7995C7.76177 15.8657 7.57522 15.8838 7.40071 15.8477C7.22619 15.8116 7.06973 15.7273 6.94335 15.6009C6.81698 15.4746 6.72671 15.3121 6.69663 15.1376C6.66052 14.9631 6.67857 14.7825 6.74477 14.62C6.81096 14.4516 6.93132 14.3131 7.07575 14.2108C7.22619 14.1146 7.40071 14.0604 7.58124 14.0604C7.70159 14.0604 7.81593 14.0784 7.93027 14.1266C8.04461 14.1687 8.14691 14.2349 8.23116 14.3192C8.31541 14.4034 8.38762 14.4997 8.42975 14.614C8.47789 14.7224 8.50196 14.8427 8.50196 14.9631H8.47789Z"
        fill="#2D5967" />
</svg>
