<svg viewBox="0 0 40 40" fill="none" xmlns="http://www.w3.org/2000/svg">
    <path fill-rule="evenodd" clip-rule="evenodd"
        d="M23.2295 15.9631L15.8458 7.57721H2.98843C1.89105 7.57721 0.999969 6.68638 0.999969 5.58875C0.999969 4.49136 1.89105 3.60028 2.98843 3.60028H16.7677C17.456 3.60028 18.0632 3.951 18.4202 4.48316L25.6937 12.7435H37.0116C38.1089 12.7435 39 13.6346 39 14.732C39 15.8296 38.1089 16.7204 37.0116 16.7204H24.7907C24.1579 16.7204 23.5939 16.4244 23.2295 15.9631Z"
        fill="white" />
    <path fill-rule="evenodd" clip-rule="evenodd"
        d="M23.2295 24.037L15.8458 32.4228H2.98843C1.89105 32.4228 0.999969 33.3136 0.999969 34.4113C0.999969 35.5087 1.89105 36.3997 2.98843 36.3997H16.7677C17.456 36.3997 18.0632 36.049 18.4202 35.5169L25.6937 27.2565H37.0116C38.1089 27.2565 39 26.3654 39 25.2681C39 24.1704 38.1089 23.2796 37.0116 23.2796H24.7907C24.1579 23.2796 23.5939 23.5756 23.2295 24.037Z"
        fill="white" />
</svg>
