<svg role="img" width="20" height="20" viewBox="0 0 134 20" fill="none"
    xmlns="http://www.w3.org/2000/svg">
    <title>eraser.io</title>
    <g clip-path="url(#clip0_1108_14881)">
        <path
            d="M63.0058 17.2791C60.8877 17.2791 59.1667 16.6102 57.8498 15.2725C56.533 13.9347 55.8711 12.158 55.8711 9.93542V9.52434C55.8711 8.04027 56.1568 6.70948 56.7351 5.53895C57.3064 4.36842 58.1146 3.45568 59.1528 2.80771C60.1909 2.15276 61.3475 1.83226 62.6226 1.83226C64.6501 1.83226 66.2178 2.48023 67.3256 3.77618C68.4334 5.07213 68.9838 6.90457 68.9838 9.27351V10.6252H59.2503C59.3479 11.8584 59.7589 12.8269 60.4835 13.5446C61.2012 14.2622 62.1139 14.6175 63.2009 14.6175C64.7337 14.6175 65.9809 13.9974 66.9494 12.7572L68.7539 14.4782C68.1547 15.37 67.3604 16.0598 66.3641 16.5475C65.3677 17.0353 64.246 17.2791 63.0058 17.2791ZM62.6086 4.51473C61.6889 4.51473 60.9504 4.83524 60.386 5.47624C59.8216 6.11725 59.4593 7.01605 59.3061 8.15871H65.6813V7.90789C65.6046 6.78612 65.312 5.94306 64.7894 5.36476C64.2599 4.80737 63.5353 4.51473 62.6086 4.51473Z"
            fill="white" />

        <path
            d="M79.3799 5.16262C78.9409 5.08598 78.488 5.05114 78.0142 5.05114C76.4814 5.05114 75.4502 5.63641 74.9137 6.81391V17.0073H71.5693V2.10391H74.7674L74.851 3.76913C75.6592 2.47318 76.781 1.82521 78.2093 1.82521C78.6831 1.82521 79.0803 1.88792 79.3938 2.0203L79.3799 5.16262Z"
            fill="white" />

        <path
            d="M90.1233 17.0073C89.977 16.7216 89.8446 16.2618 89.7401 15.6138C88.6741 16.7216 87.3712 17.279 85.8314 17.279C84.3334 17.279 83.1141 16.854 82.1665 15.997C81.2189 15.14 80.7451 14.0879 80.7451 12.8268C80.7451 11.2382 81.3374 10.0189 82.5149 9.16891C83.6924 8.31888 85.3785 7.89387 87.5732 7.89387H89.6217V6.91842C89.6217 6.14503 89.4057 5.5319 88.9737 5.06508C88.5417 4.59826 87.8868 4.36833 87.0019 4.36833C86.2424 4.36833 85.6154 4.55645 85.1277 4.93966C84.6399 5.32287 84.3961 5.80363 84.3961 6.39586H81.0517C81.0517 5.58067 81.3234 4.81425 81.8669 4.10357C82.4103 3.39289 83.1419 2.83549 84.0756 2.43138C85.0092 2.02726 86.0474 1.82521 87.197 1.82521C88.9389 1.82521 90.3323 2.26416 91.3705 3.14206C92.4086 4.01996 92.9382 5.2532 92.966 6.84178V13.5584C92.966 14.8962 93.1542 15.9692 93.5304 16.7704V17.0073H90.1233ZM86.4515 14.5966C87.1134 14.5966 87.7335 14.4363 88.3187 14.1158C88.904 13.7953 89.343 13.3633 89.6356 12.8199V10.012H87.831C86.5908 10.012 85.6572 10.228 85.0371 10.6599C84.41 11.0919 84.1034 11.7051 84.1034 12.4924C84.1034 13.1334 84.3194 13.649 84.7444 14.0252C85.1625 14.4084 85.7338 14.5966 86.4515 14.5966Z"
            fill="white" />

        <path
            d="M104.832 12.9593C104.832 12.3601 104.588 11.9072 104.093 11.5937C103.598 11.2801 102.79 11.0084 101.648 10.7645C100.512 10.5277 99.5573 10.2211 98.7979 9.85877C97.1257 9.05055 96.2896 7.88002 96.2896 6.34718C96.2896 5.06516 96.8331 3.98521 97.913 3.12821C98.993 2.26424 100.373 1.83226 102.045 1.83226C103.828 1.83226 105.264 2.27121 106.365 3.15608C107.458 4.03398 108.009 5.18361 108.009 6.58407H104.664C104.664 5.94306 104.428 5.40657 103.947 4.98155C103.466 4.55654 102.839 4.34055 102.045 4.34055C101.313 4.34055 100.714 4.50777 100.247 4.84917C99.7803 5.19058 99.5504 5.64346 99.5504 6.21479C99.5504 6.73039 99.7664 7.12753 100.198 7.4132C100.63 7.69886 101.501 7.98453 102.818 8.27716C104.128 8.56979 105.159 8.9112 105.912 9.30835C106.657 9.70549 107.215 10.1862 107.577 10.7506C107.939 11.308 108.12 11.9908 108.12 12.7921C108.12 14.1298 107.563 15.2168 106.455 16.0459C105.347 16.875 103.891 17.2931 102.087 17.2931C100.867 17.2931 99.7803 17.0701 98.8258 16.6311C97.8712 16.1922 97.1257 15.586 96.5962 14.8126C96.0667 14.0393 95.7949 13.2101 95.7949 12.3183H99.0418C99.0905 13.1056 99.3832 13.7187 99.9336 14.1438C100.484 14.5688 101.216 14.7848 102.121 14.7848C102.999 14.7848 103.675 14.6176 104.135 14.2831C104.602 13.9417 104.832 13.5028 104.832 12.9593Z"
            fill="white" />

        <path
            d="M117.596 17.2791C115.478 17.2791 113.757 16.6102 112.44 15.2725C111.123 13.9347 110.461 12.158 110.461 9.93542V9.52434C110.461 8.04027 110.747 6.70948 111.325 5.53895C111.896 4.36842 112.704 3.45568 113.743 2.80771C114.781 2.15276 115.937 1.83226 117.212 1.83226C119.24 1.83226 120.808 2.48023 121.915 3.77618C123.023 5.07213 123.574 6.90457 123.574 9.27351V10.6252H113.84C113.938 11.8584 114.349 12.8269 115.073 13.5446C115.791 14.2622 116.704 14.6175 117.791 14.6175C119.324 14.6175 120.571 13.9974 121.539 12.7572L123.344 14.4782C122.745 15.37 121.95 16.0598 120.954 16.5475C119.958 17.0353 118.836 17.2791 117.596 17.2791ZM117.198 4.51473C116.279 4.51473 115.54 4.83524 114.976 5.47624C114.411 6.11725 114.049 7.01605 113.896 8.15871H120.271V7.90789C120.194 6.78612 119.902 5.94306 119.379 5.36476C118.85 4.80737 118.125 4.51473 117.198 4.51473Z"
            fill="white" />

        <path
            d="M133.97 5.16262C133.531 5.08598 133.078 5.05114 132.604 5.05114C131.071 5.05114 130.04 5.63641 129.504 6.81391V17.0073H126.159V2.10391H129.357L129.441 3.76913C130.249 2.47318 131.371 1.82521 132.799 1.82521C133.273 1.82521 133.67 1.88792 133.984 2.0203L133.97 5.16262Z"
            fill="white" />

        <path
            d="M23.2921 19.1117H1.44915C0.327385 19.1117 -0.369361 17.5162 0.208938 16.269L7.32271 0.90577C7.58051 0.341406 8.0543 0 8.56292 0H23.2991V19.1117H23.2921Z"
            fill="#EC2C40" />

        <path
            d="M25.8008 0H47.6507C48.7725 0 49.4692 1.59555 48.8909 2.84272L41.7772 18.206C41.5194 18.7703 41.0456 19.1117 40.537 19.1117H25.8008V0Z"
            fill="#00A9E5" />
    </g>

    <defs>
        <clipPath id="clip0_1108_14881">
            <rect width="133.984" height="19.1117" fill="white" />
        </clipPath>
    </defs>
</svg>
