<svg width="24" height="24" viewBox="0 0 24 24" fill="none" xmlns="http://www.w3.org/2000/svg">
    <path
        d="M2.62988 6.57031V7.31004H5.01344C5.09564 7.06346 5.17783 6.81689 5.30112 6.57031H2.62988Z"
        fill="#2D5967" />
    <path d="M21.2466 7.31004V6.57031H18C18.1233 6.81689 18.2055 7.06346 18.2877 7.31004H21.2466Z"
        fill="#2D5967" />
    <path
        d="M4.47924 9.24023H1.35596V9.97996H3.78061C3.98609 9.69229 4.19157 9.44571 4.47924 9.24023Z"
        fill="#2D5967" />
    <path
        d="M22.6027 9.93894V9.19922H19.7671C19.9726 9.4047 20.137 9.65127 20.2602 9.93894H22.6027Z"
        fill="#2D5967" />
    <path
        d="M20.8354 12.4878H23.9998V11.748H20.8354C20.8354 11.9946 20.8354 12.2412 20.8354 12.4878Z"
        fill="#2D5967" />
    <path d="M3.16438 11.748H0V12.4878H3.16438C3.12329 12.2412 3.12329 11.9946 3.16438 11.748Z"
        fill="#2D5967" />
    <path
        d="M4.02719 14.418H1.35596V15.1577H4.68472C4.68472 15.1166 4.68472 15.0755 4.72582 15.0344C4.47924 14.8289 4.23267 14.6234 4.02719 14.418Z"
        fill="#2D5967" />
    <path
        d="M22.6029 15.1167V14.377H20.2193C20.0549 14.6235 19.8905 14.8701 19.6851 15.1167H22.6029Z"
        fill="#2D5967" />
    <path
        d="M21.2467 17.7475V17.0078H19.0275C18.9453 17.2544 18.822 17.501 18.6987 17.7475H21.2467Z"
        fill="#2D5967" />
    <path
        d="M2.62988 17.0488V17.7886H5.21892C5.05454 17.542 4.93125 17.2954 4.84906 17.0488H2.62988Z"
        fill="#2D5967" />
    <path
        d="M20.2601 12.5283C20.4245 10.8022 19.4793 9.19948 17.9176 8.50085C17.7532 6.15839 15.945 4.22688 13.5615 4.0214C12.2053 3.89811 10.8902 4.30907 9.86282 5.21318C9.61625 5.13099 9.36967 5.08989 9.1231 5.0488C8.21899 4.96661 7.35597 5.21318 6.65734 5.78853C5.95871 6.36387 5.54775 7.14469 5.42447 8.0488C5.38337 8.45976 5.42447 8.82962 5.50666 9.24058C4.47926 9.69263 3.78063 10.6378 3.65734 11.7474C3.53406 13.0214 4.19159 14.2132 5.30118 14.7885C5.21899 14.994 5.17789 15.2406 5.17789 15.4461C5.0957 16.3091 5.34228 17.131 5.87652 17.7885C6.41077 18.4461 7.19159 18.857 8.0546 18.9392C8.34228 18.9803 8.62995 18.9392 8.91762 18.8981C9.53406 19.7611 10.5204 20.2954 11.5478 20.3776C11.671 20.3776 11.7943 20.3776 11.9176 20.3776C13.1094 20.3776 14.219 19.8433 14.9176 18.857C15.0409 18.8981 15.1231 18.8981 15.2464 18.8981C15.3697 18.8981 15.4519 18.8981 15.5752 18.8981C17.1368 18.8981 18.4519 17.7063 18.6162 16.1447C18.6573 15.857 18.6162 15.5693 18.5752 15.2817C19.5615 14.6652 20.1779 13.6789 20.2601 12.5283ZM17.8354 15.2817C17.9176 15.5693 17.9587 15.857 17.9176 16.1447C17.8354 16.7611 17.5478 17.3365 17.0546 17.7063C16.5615 18.1173 15.945 18.2817 15.3286 18.2406C15.1642 18.2406 15.0409 18.1995 14.8765 18.1584L14.6299 18.0762L14.4656 18.3228C13.8491 19.268 12.7395 19.8022 11.5889 19.6789C10.6847 19.5967 9.86282 19.1036 9.32858 18.3228L9.20529 18.1173L8.95871 18.1995C8.67104 18.2817 8.38337 18.2817 8.0957 18.2817C7.43817 18.1995 6.82173 17.9118 6.41077 17.3776C5.99981 16.8433 5.79433 16.2269 5.87652 15.5693C5.91762 15.3228 5.95871 15.0351 6.082 14.7885L6.24639 14.4187L5.87652 14.2954C5.0957 14.0077 4.56145 13.3502 4.39707 12.5693H9.49296L8.50666 13.5556L9.04091 14.0488L10.8902 12.1584L9.04091 10.268L8.50666 10.7611L9.49296 11.7474H4.43817C4.56145 10.8022 5.17789 10.0214 6.082 9.77483L6.45186 9.65154L6.32858 9.32277C6.16419 8.91181 6.1231 8.50085 6.16419 8.08989C6.24639 7.39126 6.57515 6.77483 7.1094 6.32277C7.64364 5.87072 8.34228 5.66524 9.04091 5.74743C9.28748 5.78853 9.57515 5.82962 9.78063 5.95291L10.0272 6.0351L10.1916 5.87072C11.0546 5.0077 12.2875 4.59674 13.4793 4.72003C15.5752 4.92551 17.1779 6.65154 17.219 8.74743V8.994L17.4656 9.0762C18.6162 9.48715 19.4382 10.5556 19.5615 11.7474H14.4656L15.3697 10.8433L14.8354 10.3502L13.0683 12.1173L14.9176 14.0077L15.4519 13.5146L14.4656 12.5283H19.5204C19.3971 13.5146 18.8628 14.3776 17.9998 14.9118L17.7532 15.0351L17.8354 15.2817Z"
        fill="#2D5967" />
</svg>
