<svg width="24" height="24" viewBox="0 0 24 24" fill="none" xmlns="http://www.w3.org/2000/svg">
    <path
        d="M15.589 11.9101H17.9809C18.1714 11.9141 18.3301 11.7623 18.3341 11.5717C18.3352 11.5231 18.3262 11.4745 18.3073 11.4298L14.1917 0.228267C14.1421 0.0913118 14.0121 -0.000984502 13.8662 7.92561e-06H11.4655C11.275 -0.000984502 11.1191 0.152842 11.1182 0.344381C11.1182 0.386063 11.1251 0.426754 11.14 0.465458L15.2546 11.6819C15.3052 11.8219 15.4402 11.9141 15.589 11.9101Z"
        fill="black" />
    <path
        d="M15.1568 23.8184H17.5486C17.7392 23.8193 17.8949 23.6655 17.896 23.474C17.896 23.4323 17.889 23.3916 17.8741 23.3529L9.38784 0.228264C9.33822 0.0913088 9.20823 4.77512e-06 9.06132 4.77512e-06H6.67255C6.48201 -0.000987653 6.32619 0.15284 6.3252 0.344378C6.3252 0.38606 6.33215 0.42675 6.34704 0.465455L14.8313 23.5921C14.882 23.7281 15.0119 23.8184 15.1568 23.8184Z"
        fill="black" />
    <path
        d="M10.4484 23.8184H12.8402C13.0307 23.8273 13.1925 23.6794 13.2014 23.4888C13.2034 23.4422 13.1965 23.3966 13.1806 23.3528L9.05107 12.1364C9.00145 11.9995 8.87146 11.9072 8.72557 11.9082H6.32191C6.13136 11.9132 5.98051 12.0719 5.98547 12.2625C5.98646 12.3012 5.9944 12.3399 6.00829 12.3766L10.1229 23.5931C10.1735 23.728 10.3035 23.8184 10.4484 23.8184Z"
        fill="black" />
    <path
        d="M15.8773 0.468437L17.8066 5.71543C17.8562 5.85236 17.9862 5.94467 18.1322 5.94368H20.5239C20.7144 5.94467 20.8703 5.79086 20.8712 5.59928C20.8712 5.55763 20.8643 5.51692 20.8494 5.47822L18.9201 0.228267C18.8705 0.0913118 18.7405 -0.000984503 18.5946 7.92561e-06H16.2029C16.0123 -0.000984503 15.8555 0.15185 15.8545 0.343389C15.8545 0.386063 15.8615 0.428738 15.8773 0.468437Z"
        fill="black" />
    <path
        d="M6.03557 23.8199H8.42735C8.61788 23.8208 8.77367 23.667 8.7747 23.4755C8.7747 23.4338 8.76772 23.3931 8.75285 23.3544L6.81265 18.0935C6.76302 17.9566 6.63301 17.8643 6.48712 17.8652H4.09834C3.9078 17.8643 3.75099 18.0171 3.75 18.2087C3.75 18.2513 3.75695 18.294 3.77283 18.3337L5.70211 23.5946C5.75272 23.7326 5.8877 23.8238 6.03557 23.8199Z"
        fill="black" />
</svg>
