<svg width="24" height="24" viewBox="0 0 24 24" fill="none" xmlns="http://www.w3.org/2000/svg">
    <path
        d="M13.3969 8.01367C11.8499 8.01367 10.5913 9.16264 10.5913 10.5751C10.5913 11.9876 11.8499 13.1364 13.3969 13.1364C14.944 13.1364 16.2027 11.9874 16.2027 10.5751C16.2027 9.16279 14.9438 8.01367 13.3969 8.01367ZM13.3969 12.176C12.43 12.176 11.6434 11.4577 11.6434 10.5751C11.6434 9.69252 12.43 8.97425 13.3969 8.97425C14.3639 8.97425 15.1505 9.69237 15.1505 10.5751C15.1505 11.4579 14.364 12.176 13.3969 12.176Z"
        fill="black" />
    <path
        d="M9.5232 8.02338C9.42736 8.01358 9.33105 8.00839 9.23473 8.00781C9.18673 8.00781 9.14078 8.00911 9.09373 8.00983C9.04668 8.01055 8.99994 8.01459 8.95305 8.01718C8.76405 8.03073 8.57694 8.06028 8.39394 8.10525C8.0262 8.19592 7.67173 8.35361 7.36526 8.57761C7.0542 8.80392 6.80505 9.09293 6.6372 9.42215C6.55352 9.58619 6.49178 9.75888 6.45326 9.93632C6.43415 10.024 6.4201 10.1125 6.41126 10.2015C6.4081 10.2458 6.40257 10.2902 6.40194 10.3343L6.4002 10.4005L6.39941 10.4336V10.461L6.40178 11.3188L6.40415 12.1766L6.41063 13.0343H7.46284L7.46947 12.1766L7.47184 11.3187L7.4742 10.4609V10.4346L7.47499 10.4142L7.47626 10.3731C7.47626 10.3455 7.48068 10.319 7.48241 10.2918C7.4881 10.2384 7.49678 10.1854 7.50847 10.1329C7.53152 10.0297 7.56752 9.92925 7.61552 9.83354C7.71231 9.64154 7.85678 9.47289 8.03757 9.34071C8.2201 9.20637 8.43878 9.10605 8.67515 9.04637C8.79468 9.01653 8.91705 8.99679 9.04052 8.98756C9.07178 8.98597 9.10289 8.98324 9.13431 8.98223C9.16573 8.98122 9.19778 8.98035 9.22826 8.9805C9.28873 8.9805 9.34826 8.9841 9.40857 8.98915C9.64826 9.0112 9.88052 9.07837 10.0904 9.18633L10.6155 8.35376C10.28 8.17574 9.90815 8.06345 9.5232 8.02338Z"
        fill="black" />
    <path
        d="M2.80579 8C1.25858 8 0 9.14897 0 10.5613C0 11.9736 1.25858 13.1227 2.80579 13.1227H3.72853V12.1622H2.80579C1.83884 12.1622 1.05221 11.444 1.05221 10.5613C1.05221 9.67856 1.83884 8.96043 2.80579 8.96043C3.77274 8.96043 4.56347 9.67856 4.56347 10.5613V12.9202C4.56347 13.7972 3.78126 14.5114 2.823 14.5206C2.36447 14.5172 1.926 14.349 1.60263 14.0522L0.858632 14.7314C1.37432 15.2046 2.073 15.4739 2.80405 15.4811V15.4815C2.81037 15.4815 2.81668 15.4815 2.82284 15.4815H2.84258V15.4811C4.36768 15.4622 5.60258 14.3272 5.60968 12.9317L5.61063 10.4985C5.574 9.11524 4.32979 8 2.80579 8Z"
        fill="black" />
    <path
        d="M19.5923 8.01367C18.0452 8.01367 16.7866 9.16264 16.7866 10.5751C16.7866 11.9876 18.0452 13.1364 19.5923 13.1364H20.5523V12.176H19.5923C18.6253 12.176 17.8387 11.4577 17.8387 10.5751C17.8387 9.69252 18.6253 8.97425 19.5923 8.97425C20.5079 8.97425 21.2615 9.61828 21.3389 10.4363H21.3373V15.3545H22.3895V10.5751C22.3892 9.16264 21.1393 8.01367 19.5923 8.01367Z"
        fill="black" />
    <path
        d="M23.9971 8.14258H23.8471L23.6425 8.43274L23.4312 8.14258H23.2798V8.65919H23.4489V8.4078L23.5989 8.61076H23.6807L23.828 8.40146L23.8307 8.65919H23.9998L23.9971 8.14258Z"
        fill="black" />
    <path d="M22.6611 8.26597H22.8452V8.65919H23.0308V8.26597H23.2161V8.14258H22.6611V8.26597Z"
        fill="black" />
</svg>
