<svg width="40" height="40" xmlns="http://www.w3.org/2000/svg">
    <defs>
        <linearGradient x1="0%" y1="100%" x2="100%" y2="0%" id="a">
            <stop stop-color="#01A88D" offset="0%" />
            <stop stop-color="#01A88D" offset="100%" />
        </linearGradient>
    </defs>
    <g fill="none" fill-rule="evenodd">
        <path d="M0 0h40v40H0z" fill="url(#a)" />
        <path
            d="M21.875 26.25H33.75V25H21.875V26.25ZM21.875 15H33.75V13.75H21.875V15ZM21.875 22.5H28.125V21.25H21.875V22.5ZM15.1344 27.0544L14.4225 28.0819C15.63 28.9187 16.5319 29.805 17.045 30.625H7.93375C8.47875 29.68 9.475 28.7088 10.7763 27.8906L11.9375 27.1656C13.7181 26.0563 15.4006 25.0088 16.6562 23.9969C18.2581 22.7056 18.9475 21.0263 18.7044 19.0056C18.6938 18.92 18.6681 18.835 18.6519 18.75H30.625V17.5H18.1662C17.5769 16.495 16.5225 15.5113 14.9594 14.5244L14.2912 15.5819C15.3256 16.2337 16.1038 16.875 16.6363 17.5H11.25V18.75H17.3731C17.4156 18.8856 17.4469 19.0206 17.4631 19.1544C17.6537 20.7412 17.1331 22.0063 15.8719 23.0231C14.6756 23.9881 13.0244 25.0163 11.2762 26.105L10.1112 26.8325C9.12625 27.4519 6.7825 29.1331 6.3025 31.3731C6.28125 31.4744 6.25 33.125 6.25 33.75H7.5C7.5 33.75 7.49125 32.1369 7.5 31.875H17.4994C17.5081 32.1412 17.5137 32.6906 17.5 33.75H18.75C18.7762 31.6938 18.7319 31.4831 18.7081 31.3713C18.3256 29.5844 16.5531 28.0375 15.1344 27.0544ZM16.92 9.375H8.17C8.47937 9.85937 8.93438 10.3806 9.60688 10.8775C9.90938 11.1 10.2556 11.3369 10.6381 11.5819L9.96312 12.6338C9.55875 12.375 9.18938 12.1225 8.86563 11.8837C6.18875 9.90812 6.265 7.47875 6.26875 7.37625L6.26813 6.26125H7.51813V7.40375C7.5175 7.44062 7.51375 7.715 7.61813 8.125H17.38C17.4906 7.6525 17.4994 7.3275 17.5 7.29187V6.25H18.75V7.2975C18.7494 7.4225 18.705 10.3106 16.045 12.2744C14.945 13.0862 13.5619 13.8744 12.3419 14.57C11.7319 14.9188 11.1625 15.2425 10.6988 15.5313C8.81625 16.7019 7.70188 17.9887 7.5625 19.1544C7.46688 19.9462 7.52812 20.6363 7.7425 21.25H14.375V22.5H8.49312C8.65625 22.6812 8.8325 22.8575 9.03813 23.0231C9.43188 23.3413 9.89 23.6788 10.4406 24.0563L9.73375 25.0869C9.15625 24.6912 8.67187 24.3344 8.25312 23.9963C6.7 22.7444 6.0675 21.1119 6.32062 19.0056C6.56 17.0188 8.475 15.4425 10.0388 14.4694C10.5144 14.1737 11.0969 13.8413 11.7231 13.4844C12.9131 12.8056 14.2619 12.0369 15.3025 11.2681C16.0919 10.6862 16.5963 10.0062 16.92 9.375Z"
            fill="#FFF" />
    </g>
</svg>
