<svg width="40" height="40" xmlns="http://www.w3.org/2000/svg">
    <defs>
        <linearGradient x1="0%" y1="100%" x2="100%" y2="0%" id="a">
            <stop stop-color="#01A88D" offset="0%" />
            <stop stop-color="#01A88D" offset="100%" />
        </linearGradient>
    </defs>
    <g fill="none" fill-rule="evenodd">
        <path d="M0 0h40v40H0z" fill="url(#a)" />
        <path
            d="M21.8712 24.9809H23.1212V18.1059H21.8712V24.9809ZM18.7462 19.3559H19.9962V14.9809H18.7462V19.3559ZM18.7462 26.8559H19.9962V24.9809H18.7462V26.8559ZM18.7462 23.7309H19.9962V20.6059H18.7462V23.7309ZM15.6212 29.9809H16.8712V28.1059H15.6212V29.9809ZM15.6212 26.8559H16.8712V22.4809H15.6212V26.8559ZM32.4962 28.1059H30.6212C30.2756 28.1059 29.9962 27.8259 29.9962 27.4809V25.6059H28.1212V27.4809C28.1212 27.8259 27.8418 28.1059 27.4962 28.1059H25.6212V29.9809H27.4962C27.8418 29.9809 28.1212 30.2609 28.1212 30.6059V32.4809H29.9962V30.6059C29.9962 30.2609 30.2756 29.9809 30.6212 29.9809H32.4962V28.1059ZM33.7462 27.4809V30.6059C33.7462 30.9509 33.4668 31.2309 33.1212 31.2309H31.2462V33.1059C31.2462 33.4509 30.9668 33.7309 30.6212 33.7309H27.4962C27.1506 33.7309 26.8712 33.4509 26.8712 33.1059V31.2309H24.9962C24.6506 31.2309 24.3712 30.9509 24.3712 30.6059V27.4809C24.3712 27.1359 24.6506 26.8559 24.9962 26.8559H26.8712V24.9809C26.8712 24.6359 27.1506 24.3559 27.4962 24.3559H30.6212C30.9668 24.3559 31.2462 24.6359 31.2462 24.9809V26.8559H33.1212C33.4668 26.8559 33.7462 27.1359 33.7462 27.4809ZM11.2462 19.3559H17.4962V18.1059H11.2462C10.5568 18.1059 9.99622 18.6665 9.99622 19.3559V32.4809C9.99622 33.1703 10.5568 33.7309 11.2462 33.7309H25.6212V32.4809H11.2462V19.3559ZM29.9962 23.1059V19.3559C29.9962 18.6665 29.435 18.1059 28.7462 18.1059H24.3712V19.3559H28.7462V23.1059H29.9962ZM33.875 18.7528L33.8731 19.0378C33.8731 19.0797 33.865 20.3922 33.1343 21.7403L32.0362 21.1447C32.61 20.0859 32.6231 19.0334 32.6231 19.0228L32.625 18.7528C32.625 15.659 30.5193 14.9328 28.935 14.6553C28.9075 14.6509 28.88 14.644 28.8537 14.6359L28.6875 14.5828C28.3962 14.4903 28.2143 14.2003 28.2581 13.8984C28.4287 12.7109 27.955 11.7765 26.99 11.3984C26.2368 11.104 25.1568 11.1859 24.5543 12.0597C24.42 12.2534 24.1862 12.3578 23.9556 12.324C23.7225 12.2922 23.5262 12.1322 23.4493 11.9097C23.0675 10.8097 22.5156 9.88592 21.8081 9.16342C20.945 8.28092 18.575 6.38592 15.2306 7.82592C13.1037 8.74342 11.7812 10.5672 11.7812 12.5859L11.8293 14.104C11.8375 14.3953 11.6443 14.6547 11.3612 14.7284L11.24 14.7597C9.59997 15.1853 7.90434 15.6247 7.63059 18.564C7.62184 18.6572 7.62434 18.9522 7.63247 19.169L6.38372 19.2153C6.38122 19.1609 6.36434 18.6797 6.38559 18.449C6.71622 14.9028 8.91684 14.089 10.5637 13.6453L10.5312 12.6053C10.5312 10.0603 12.1425 7.79655 14.7356 6.6778C17.55 5.46467 20.5268 6.0678 22.7018 8.28905C23.3325 8.93342 23.8568 9.70592 24.2662 10.5934C25.1487 9.95842 26.3418 9.80155 27.4462 10.2347C28.525 10.6578 29.5818 11.7265 29.5437 13.5015C32.4181 14.1284 33.875 15.8934 33.875 18.7528Z"
            fill="#FFF" />
    </g>
</svg>
