<svg width="40" height="40" xmlns="http://www.w3.org/2000/svg">
    <defs>
        <linearGradient x1="0%" y1="100%" x2="100%" y2="0%" id="a">
            <stop stop-color="#01A88D" offset="0%" />
            <stop stop-color="#01A88D" offset="100%" />
        </linearGradient>
    </defs>
    <g fill="none" fill-rule="evenodd">
        <path d="M0 0h40v40H0z" fill="url(#a)" />
        <path
            d="M18.6248 26.9781C18.2361 26.1781 16.9598 25.75 15.6236 25.6494V23.6713L17.0173 22.905C17.1611 22.8325 17.3336 22.8569 17.4554 22.9669C18.6529 24.0575 20.2748 25.3256 21.6623 25.6819C20.8948 26.18 19.5761 26.8031 18.6248 26.9781ZM12.5148 27.5C12.6754 27.2956 13.5317 26.875 14.9986 26.875C16.4661 26.875 17.3223 27.2956 17.4829 27.5C17.3223 27.7044 16.4661 28.125 14.9986 28.125C13.5317 28.125 12.6754 27.7044 12.5148 27.5ZM16.8736 30C16.8736 30.1556 16.2086 30.625 14.9986 30.625C13.7892 30.625 13.1236 30.1556 13.1236 30C13.1236 29.8444 13.7892 29.375 14.9986 29.375C16.2086 29.375 16.8736 29.8444 16.8736 30ZM12.6242 22.9669C12.7454 22.8569 12.9167 22.8331 13.0404 22.8937L14.3736 23.6263V25.6494C13.0473 25.7494 11.7792 26.1725 11.3811 26.9619C10.4361 26.77 9.16543 26.1675 8.4173 25.6819C9.8048 25.3256 11.4267 24.0575 12.6242 22.9669ZM13.7486 18.75C13.7486 18.0606 14.3098 17.5 14.9986 17.5C15.6879 17.5 16.2486 18.0606 16.2486 18.75C16.2486 19.4394 15.6879 20 14.9986 20C14.3098 20 13.7486 19.4394 13.7486 18.75ZM22.9911 24.6406C22.8254 24.5644 22.6286 24.5294 22.3717 24.5294C21.5304 24.5294 20.0067 23.6 18.2967 22.0431C17.7911 21.5825 17.0704 21.4813 16.4373 21.7981L15.6236 22.245V21.1612C16.6992 20.8819 17.4986 19.9113 17.4986 18.75C17.4986 17.3712 16.3779 16.25 14.9986 16.25C13.6198 16.25 12.4986 17.3712 12.4986 18.75C12.4986 19.9113 13.2986 20.8819 14.3736 21.1612V22.2006L13.6198 21.7869C13.0104 21.4819 12.2886 21.5819 11.7829 22.0431C10.0729 23.6 8.54918 24.5294 7.7073 24.5294C7.45043 24.5294 7.25418 24.5644 7.08855 24.6406C6.79043 24.7775 6.6123 25.0456 6.6123 25.3581C6.6123 26.5181 9.87293 28.0037 11.5098 28.2425C11.7173 28.5162 12.0354 28.7394 12.4279 28.9112C12.0786 29.2144 11.8736 29.5869 11.8736 30C11.8736 30.9394 12.9129 31.675 14.3736 31.8394V33.75H15.6236V31.8394C17.0848 31.675 18.1236 30.9394 18.1236 30C18.1236 29.5869 17.9192 29.2144 17.5698 28.9112C17.9548 28.7425 18.2692 28.5244 18.4767 28.2575C20.0804 28.0619 23.4673 26.54 23.4673 25.3581C23.4673 25.0456 23.2892 24.7775 22.9911 24.6406ZM21.8736 19.375H25.6236V18.125H21.8736V19.375ZM21.8736 13.125H25.6236V11.875H21.8736V13.125ZM21.8736 16.25H30.6236V15H21.8736V16.25ZM24.3736 22.5H30.6236V21.25H24.3736V22.5ZM26.8736 19.375H30.6236V18.125H26.8736V19.375ZM28.7486 8.51875L31.7317 11.875H28.7486V8.51875ZM33.5911 12.0844L28.5911 6.45938C28.4723 6.32625 28.3023 6.25 28.1236 6.25H19.3736C19.0286 6.25 18.7486 6.53 18.7486 6.875V19.375H19.9986V7.5H27.4986V12.5C27.4986 12.845 27.7786 13.125 28.1236 13.125H32.4986V26.25H25.6236V27.5H33.1236C33.4692 27.5 33.7486 27.22 33.7486 26.875V12.5C33.7486 12.3469 33.6929 12.1988 33.5911 12.0844Z"
            fill="#FFF" />
    </g>
</svg>
