<svg width="24" height="24" viewBox="0 0 24 24" fill="none" xmlns="http://www.w3.org/2000/svg">
    <path d="M0.84 1.834H18.36V9.13L18.78 8.944L19.2 9.13V1H0V14.2H12.84V13.366H0.84V1.834Z"
        fill="#2D5967" />
    <path
        d="M18.9058 10L13.7998 12.232V17.14C13.9438 19.78 15.7438 22.168 18.7258 23.704L18.9058 23.8L19.0798 23.704C22.0618 22.168 23.8558 19.798 23.9998 17.14V12.25L18.9058 10ZM23.1958 17.116C23.0758 19.27 21.6658 21.262 19.3018 22.654V15.64H18.5038V22.666C16.1338 21.268 14.7058 19.282 14.6038 17.128V12.79L18.5038 11.074V14.758H19.3138V11.074L23.2078 12.79L23.1958 17.116Z"
        fill="#2D5967" />
    <path
        d="M11.3463 4.84639L10.8003 5.43439L12.2403 7.00039L15.0003 3.99439L14.4603 3.40039L12.2403 5.81839L11.3463 4.84639Z"
        fill="#2D5967" />
    <path
        d="M14.3999 10.0716L13.4279 9.09961L14.3999 8.12761L13.8779 7.59961L12.8999 8.57761L11.9279 7.59961L11.3999 8.12761L12.3719 9.09961L11.3999 10.0716L11.9279 10.5996L12.8999 9.62761L13.8779 10.5996L14.3999 10.0716Z"
        fill="#2D5967" />
    <path
        d="M8.4 11.7988V10.1188C8.4 9.76483 8.256 9.43483 8.004 9.18283C7.746 8.93683 7.398 8.79883 7.038 8.79883H4.362C4.002 8.79883 3.654 8.93683 3.396 9.18283C3.144 9.43483 3 9.76483 3 10.1188V11.7988H3.768V10.1188C3.768 10.0468 3.78 9.97483 3.81 9.90283C3.84 9.83683 3.882 9.77683 3.936 9.72283C3.99 9.67483 4.05 9.63283 4.122 9.60283C4.188 9.57883 4.266 9.56083 4.338 9.56083H7.02C7.092 9.56083 7.17 9.57883 7.236 9.60283C7.308 9.63283 7.368 9.67483 7.422 9.72283C7.476 9.77683 7.518 9.83683 7.542 9.90283C7.572 9.97483 7.584 10.0468 7.584 10.1188V11.7988H8.4Z"
        fill="#2D5967" />
    <path
        d="M5.98171 7.59944C6.33571 7.59944 6.67771 7.49744 6.97171 7.29944C7.26571 7.10144 7.49371 6.82544 7.63171 6.50144C7.76371 6.17144 7.79971 5.81744 7.73371 5.46944C7.66171 5.12144 7.49371 4.80344 7.24171 4.55744C6.99571 4.30544 6.67771 4.13744 6.32971 4.06544C5.98171 3.99944 5.62771 4.03544 5.29771 4.16744C4.97371 4.30544 4.69771 4.53344 4.49971 4.82744C4.30171 5.12144 4.19971 5.46344 4.19971 5.81744C4.19971 6.29144 4.38571 6.74144 4.72171 7.07744C5.05771 7.41344 5.50771 7.59944 5.98171 7.59944ZM5.98171 4.80344C6.18571 4.80344 6.38971 4.86344 6.55771 4.97744C6.72571 5.09144 6.86371 5.25344 6.94171 5.43944C7.01971 5.63144 7.03771 5.84144 7.00171 6.03944C6.95971 6.24344 6.85771 6.42344 6.71371 6.56744C6.56971 6.71744 6.38371 6.81344 6.18571 6.85544C5.98171 6.89144 5.77771 6.87344 5.58571 6.79544C5.39371 6.71744 5.23171 6.58544 5.11771 6.41144C5.00371 6.24344 4.94371 6.03944 4.94371 5.83544C4.94371 5.56544 5.05771 5.30144 5.24971 5.10344C5.44171 4.91144 5.70571 4.80344 5.98171 4.80344Z"
        fill="#2D5967" />
</svg>
