<svg width="24" height="24" viewBox="0 0 24 24" fill="none" xmlns="http://www.w3.org/2000/svg">
    <path
        d="M13.3076 20.1608V20.9238C15.3507 20.7023 17.2584 19.7854 18.7107 18.3331C20.163 16.8808 21.0799 14.9731 21.3076 12.9238H20.5568C20.3353 14.77 19.4984 16.4931 18.1876 17.8038C16.8707 19.1208 15.1538 19.9515 13.3076 20.1608Z"
        fill="#2D5967" />
    <path
        d="M4.21268 12.9238H3.46191C3.68961 14.9731 4.60653 16.8808 6.05884 18.3331C7.51115 19.7854 9.41884 20.7023 11.4619 20.9238V20.1608C9.61576 19.9515 7.89884 19.1208 6.58191 17.8038C5.27114 16.4931 4.43422 14.77 4.21268 12.9238Z"
        fill="#2D5967" />
    <path
        d="M20.5568 11.0781H21.3076C21.0861 9.03505 20.1692 7.12736 18.7168 5.66889C17.2584 4.21659 15.3507 3.29966 13.3076 3.07812V3.82889C15.1538 4.04428 16.8768 4.8812 18.1938 6.19197C19.5045 7.50889 20.3415 9.23197 20.5568 11.0781Z"
        fill="#2D5967" />
    <path
        d="M11.4619 3.82889V3.07812C9.41884 3.29966 7.51114 4.21659 6.05268 5.66889C4.60038 7.12736 3.68345 9.03505 3.46191 11.0781H4.21268C4.42807 9.23197 5.26499 7.50889 6.57576 6.19197C7.89268 4.8812 9.61576 4.04428 11.4619 3.82889Z"
        fill="#2D5967" />
    <path
        d="M13.0303 1.42769L13.5349 1.99385L14.058 2.56615L14.538 2.04308L13.5349 0.935385L13.5103 0.904615L12.6919 0L11.8734 0.904615L11.8488 0.935385L10.8457 2.04308L11.3257 2.56615L11.8488 1.99385L12.3534 1.42769V22.5723L11.8488 22.0123L11.3257 21.44L10.8457 21.9692L11.8488 23.0708L12.2119 23.4708L12.6919 24L13.1657 23.4708L13.5349 23.0708L14.538 21.9692L14.058 21.44L13.5349 22.0123L13.0303 22.5723V1.42769Z"
        fill="#2D5967" />
    <path
        d="M14.6922 11.3534L15.2338 10.8488L15.7938 10.3257L15.283 9.8457L14.2122 10.8488L13.3076 11.6919L14.2122 12.5349L15.283 13.538L15.7938 13.058L15.2338 12.5349L14.6922 12.0303H23.7692V11.3534H14.6922Z"
        fill="#2D5967" />
    <path
        d="M10.0769 12.0303L9.53538 12.5349L8.97538 13.058L9.49231 13.538L10.9508 12.1657L11.4615 11.6919L10.9508 11.218L9.49231 9.8457L8.97538 10.3257L9.53538 10.8488L10.0769 11.3534H1V12.0303H10.0769Z"
        fill="#2D5967" />
</svg>
