<svg width="40" height="40" viewBox="0 0 40 40" fill="none" xmlns="http://www.w3.org/2000/svg">
    <path fill-rule="evenodd" clip-rule="evenodd"
        d="M24.5723 9.64326C23.4639 8.58226 23.1777 6.86337 23.9786 5.47603C24.9194 3.84628 27.0064 3.28712 28.6361 4.22798C30.2657 5.16885 30.8249 7.25579 29.884 8.88554C29.0831 10.2729 27.4514 10.8845 25.9783 10.4551L23.6894 14.4193C25.1862 15.537 26.2191 17.2418 26.4458 19.191H31.0221C31.3866 17.7006 32.7321 16.5933 34.3342 16.5933C36.216 16.5933 37.7438 18.1211 37.7438 20.0028C37.7438 21.8846 36.216 23.4123 34.3342 23.4123C32.7321 23.4123 31.3866 22.3051 31.0221 20.8146H26.4458C26.2191 22.7639 25.1862 24.4686 23.6894 25.5863L25.9783 29.5506C27.4514 29.1212 29.0831 29.7328 29.884 31.1201C30.8249 32.7499 30.2657 34.8368 28.6361 35.7777C27.0064 36.7185 24.9194 36.1594 23.9786 34.5296C23.1777 33.1423 23.4639 31.4234 24.5723 30.3624L22.2844 26.3997C21.439 26.7647 20.5072 26.967 19.5285 26.967C18.5498 26.967 17.618 26.7647 16.7726 26.3997L14.4847 30.3624C15.5931 31.4234 15.8794 33.1423 15.0784 34.5296C14.1376 36.1594 12.0506 36.7185 10.4209 35.7777C8.7913 34.8368 8.23214 32.7499 9.173 31.1201C9.97392 29.7328 11.6056 29.1212 13.0787 29.5506L15.3676 25.5863C13.8708 24.4686 12.8379 22.7639 12.6113 20.8146H8.03488C7.67038 22.3051 6.32492 23.4123 4.72278 23.4123C2.84105 23.4123 1.31326 21.8846 1.31326 20.0028C1.31326 18.1211 2.84105 16.5933 4.72278 16.5933C6.32492 16.5933 7.67038 17.7006 8.03488 19.191H12.6113C12.8379 17.2418 13.8708 15.537 15.3676 14.4193L13.0787 10.4551C11.6056 10.8845 9.97392 10.2729 9.173 8.88554C8.23214 7.25579 8.7913 5.16885 10.4209 4.22798C12.0506 3.28712 14.1376 3.84628 15.0784 5.47603C15.8794 6.86337 15.5931 8.58226 14.4847 9.64326L16.7726 13.6059C17.618 13.2409 18.5498 13.0387 19.5285 13.0387C20.5072 13.0387 21.439 13.2409 22.2844 13.6059L24.5723 9.64326ZM21.0222 24.2136L19.5285 21.6264L18.0348 24.2136C18.5019 24.3795 19.0047 24.4698 19.5285 24.4698C20.0523 24.4698 20.5551 24.3795 21.0222 24.2136ZM16.6296 23.4003L18.1225 20.8146H15.1353C15.3243 21.8427 15.8659 22.7478 16.6296 23.4003ZM23.9218 20.8146H20.9345L22.4274 23.4003C23.1911 22.7478 23.7328 21.8427 23.9218 20.8146ZM16.6296 16.6053C15.8659 17.2578 15.3243 18.163 15.1353 19.191H18.1225L16.6296 16.6053ZM22.4274 16.6053L20.9345 19.191H23.9218C23.7328 18.163 23.1911 17.2578 22.4274 16.6053ZM21.0222 15.7921C20.5551 15.6261 20.0523 15.5359 19.5285 15.5359C19.0047 15.5359 18.5019 15.6261 18.0348 15.7921L19.5285 18.3793L21.0222 15.7921Z"
        fill="white" />
    <path
        d="M19.5285 24.5776C22.0551 24.5776 24.1033 22.5294 24.1033 20.0028C24.1033 17.4763 22.0551 15.4281 19.5285 15.4281C17.0019 15.4281 14.9538 17.4763 14.9538 20.0028C14.9538 22.5294 17.0019 24.5776 19.5285 24.5776Z"
        fill="#FFFEFE" />
</svg>
