<svg width="40" height="40" viewBox="0 0 40 40" fill="none" xmlns="http://www.w3.org/2000/svg">
    <path fill-rule="evenodd" clip-rule="evenodd"
        d="M19.0164 3C25.173 3 30.1639 7.92896 30.1639 14.0091L30.1639 29.5741L35.4098 29.5741C37.9449 29.5741 40 31.6036 40 34.1072V38H39.3963C37.9383 38 36.7487 36.8471 36.7213 35.4074V34.7576L36.721 34.7255C36.7037 33.6673 35.8297 32.8148 34.7541 32.8148H8.52459C3.81659 32.8148 0 29.0456 0 24.3961L0 14.0091C0 7.92896 4.99092 3 11.1475 3H19.0164ZM18.3607 6.24074H11.8033L11.6623 6.24187C7.01933 6.31621 3.27869 10.0564 3.27869 14.6595V24.3933L3.27939 24.479C3.32572 27.3007 5.65633 29.5741 8.52459 29.5741H21.6393C24.5366 29.5741 26.8852 27.2546 26.8852 24.3933V14.6595L26.8841 14.5203C26.8088 9.93494 23.0216 6.24074 18.3607 6.24074ZM11.8295 11.4259C12.577 11.4259 13.1672 12.0287 13.1672 12.787V16.7343L17.7115 12.1065C18.3016 11.562 19.1082 11.5231 19.6787 12.0481V12.0676C20.2295 12.5731 20.1902 13.4093 19.5803 13.9537L16.2164 17.3759L20.1311 22.8981C20.6033 23.5787 20.4656 24.4343 19.8361 24.8426C19.1475 25.2315 18.3607 25.0176 17.8885 24.337L14.3672 19.2426L13.1672 20.487V23.6759C13.1672 24.4537 12.577 25.037 11.8295 25.037C11.082 25.037 10.4918 24.4537 10.4918 23.6759V12.787C10.4918 12.0287 11.082 11.4259 11.8295 11.4259Z"
        fill="black" />
</svg>