<svg width="24" height="24" viewBox="0 0 24 24" fill="none" xmlns="http://www.w3.org/2000/svg">
    <g clip-path="url(#clip0_484_10275)">
        <path
            d="M22.6855 0.857422H1.82836C1.31408 0.857422 0.856934 1.31456 0.856934 1.82885V22.8003C0.856934 23.2574 1.31408 23.7146 1.82836 23.7146H22.7426C23.2569 23.7146 23.7141 23.2574 23.7141 22.7431V1.82885C23.6569 1.31456 23.1998 0.857422 22.6855 0.857422ZM22.7998 22.7431C22.7998 22.8003 22.7426 22.8574 22.6855 22.8574H1.82836C1.77122 22.8574 1.71408 22.8003 1.71408 22.7431V1.82885C1.71408 1.77171 1.77122 1.71456 1.82836 1.71456H22.7426C22.7998 1.71456 22.8569 1.77171 22.8569 1.82885L22.7998 22.7431Z"
            fill="#2D5967" />
        <path
            d="M11.1427 3.14258H6.57129V7.71401H11.1427V3.14258ZM10.3713 6.99401H7.34272V3.91401H10.3713V6.99401Z"
            fill="#2D5967" />
        <path
            d="M16.8571 3.14258H12.2856V7.71401H16.8571C16.8056 7.71401 16.8056 3.14258 16.8571 3.14258ZM16.0856 6.99401H13.0571V3.91401H16.0856V6.99401Z"
            fill="#2D5967" />
        <path
            d="M10.1539 9.67456H13.2739V10.9774L13.9997 11.1431V8.85742H9.42822V11.1431L10.1539 10.9774V9.67456Z"
            fill="#2D5967" />
        <path
            d="M15.8683 9.62314H18.9883V12.1317L19.714 12.286V8.85742H15.1426V11.1603L15.8683 11.366V9.62314Z"
            fill="#2D5967" />
        <path
            d="M4.43958 9.62314H7.55958V11.366L8.2853 11.1603V8.85742H3.71387V12.286L4.43958 12.1317V9.62314Z"
            fill="#2D5967" />
        <path
            d="M11.9997 11.1426L3.14258 13.2626L3.25686 13.6454C4.26258 17.5654 7.85115 20.2854 11.9997 20.2854C16.1483 20.2854 19.794 17.5654 20.7426 13.6454L20.8569 13.2626L11.9997 11.1426ZM11.6054 12.0683V19.4683C8.13115 19.3597 5.15972 17.074 4.15401 13.8626L11.6054 12.0683ZM12.394 19.4683V12.0683L19.8454 13.8626C18.8397 17.074 15.8683 19.3597 12.394 19.4683Z"
            fill="#2D5967" />
    </g>
    <defs>
        <clipPath id="clip0_484_10275">
            <rect width="24" height="24" fill="white" />
        </clipPath>
    </defs>
</svg>
