<svg width="40" height="41" viewBox="0 0 40 41" fill="none" xmlns="http://www.w3.org/2000/svg">
    <path fill-rule="evenodd" clip-rule="evenodd"
        d="M18.4631 11.2909C16.3936 10.64 14.891 8.70518 14.891 6.42209C14.891 3.60549 17.1777 1.31909 19.994 1.31909C22.8104 1.31909 25.097 3.60549 25.097 6.42209C25.097 8.70518 23.5944 10.64 21.5249 11.2909V16.9629C23.5944 17.6137 25.097 19.5488 25.097 21.8319C25.097 22.6831 24.888 23.4858 24.5188 24.1918L30.3865 30.0595C31.0956 29.6862 31.9029 29.4749 32.7592 29.4749C35.5755 29.4749 37.8622 31.7616 37.8622 34.5779C37.8622 37.3943 35.5755 39.6809 32.7592 39.6809C29.9426 39.6809 27.6562 37.3943 27.6562 34.5779C27.6562 33.7316 27.8623 32.9335 28.2277 32.2305L22.3539 26.3567C21.6479 26.7259 20.8452 26.9349 19.994 26.9349C19.1428 26.9349 18.3401 26.7259 17.6341 26.3567L11.7682 32.2226C12.1359 32.9273 12.3438 33.7285 12.3438 34.5779C12.3438 37.3943 10.0574 39.6809 7.24084 39.6809C4.42449 39.6809 2.13784 37.3943 2.13784 34.5779C2.13784 31.7616 4.42449 29.4749 7.24084 29.4749C8.09406 29.4749 8.89855 29.6846 9.60557 30.0554L15.4692 24.1918C15.1 23.4858 14.891 22.6831 14.891 21.8319C14.891 19.5488 16.3936 17.6137 18.4631 16.9629V11.2909Z"
        fill="white" />
</svg>
