<svg width="24" height="24" viewBox="0 0 24 24" fill="none" xmlns="http://www.w3.org/2000/svg">
    <path
        d="M22 5.15V2H18.85V2.75H20.7L12.85 10.55C12.8 9.6 12.7 8.75 12.55 7.95C11.55 2.8 9.75 2.05 8.75 2.05C7 2.05 5.55 4.3 4.9 7.85C4.65 9 4.55 10.3 4.5 11.65H2V12.4H4.5C4.5 13.7 4.65 14.95 4.85 16.05C5.3 18.55 6.45 21.6 8.35 21.95C8.45 21.95 8.55 22 8.7 22C9.4 22 10.35 21.6 11.3 20C12.3 18.1 12.75 15.75 12.9 13.45L20.75 21.3H18.9V22H22V18.85H21.25V20.75L12.9 12.4H20.55L19.25 13.7L19.75 14.2L22 12L19.8 9.9L19.3 10.45L20.55 11.65H12.9V11.6L21.25 3.2V5.15H22ZM10.45 19.5C10 20.2 9.4 21.05 8.65 21.05C8.6 21.05 8.55 21.05 8.5 21.05C7.4 20.85 6.2 18.7 5.75 15.9C5.55 14.85 5.45 13.65 5.4 12.4H9.85L8.55 13.7L9.1 14.2L11.3 12L9 9.8L8.5 10.35L9.85 11.65H5.45C5.45 10.4 5.6 9.1 5.8 8.05C6.4 4.55 7.75 3 8.7 3C9.6 3 10.85 4.35 11.6 8.15C12.25 11.55 12.1 16.4 10.45 19.5Z"
        fill="#2D5967" />
</svg>
