<svg width="24" height="24" viewBox="0 0 24 24" fill="none" xmlns="http://www.w3.org/2000/svg">
    <path
        d="M20.6867 6.20316C20.2103 5.89851 19.6786 5.67695 19.1246 5.55509C18.8864 5.4997 18.6593 5.4 18.471 5.2449C18.2771 5.09535 18.122 4.90702 18.0168 4.68546C17.6623 3.982 17.1471 3.37825 16.5156 2.9185C15.8786 2.45876 15.1419 2.15965 14.3608 2.04887C13.5853 1.93809 12.7987 2.01564 12.0565 2.28151C11.3197 2.54185 10.655 2.97943 10.1232 3.55549C9.95707 3.73274 9.75765 3.86568 9.53608 3.95431C9.30897 4.03739 9.07078 4.07063 8.83259 4.04847C7.86875 3.95431 6.90491 4.22572 6.1294 4.80732C5.3539 5.38338 4.82213 6.23639 4.63933 7.18357C4.59501 7.42175 4.49531 7.64331 4.34575 7.83718C4.20172 8.03104 4.01893 8.18614 3.80289 8.29692C3.02185 8.70681 2.35713 9.31056 1.86967 10.0528C1.38775 10.7895 1.09971 11.6425 1.03324 12.5232L1 13.0162H6.35098V12.069H2.03585C2.15772 11.4431 2.41806 10.8504 2.80028 10.3408C3.18249 9.8257 3.66995 9.41027 4.23496 9.1167C4.5784 8.93945 4.87198 8.69019 5.09909 8.38554C5.3262 8.07536 5.48684 7.7264 5.55885 7.34974C5.69734 6.62967 6.10171 5.98714 6.68888 5.54401C7.27604 5.10643 8.00723 4.90148 8.73842 4.97349C9.12063 5.01226 9.50285 4.96241 9.8629 4.82394C10.2174 4.691 10.5387 4.47498 10.8046 4.19249C11.2367 3.73274 11.7684 3.37825 12.3667 3.16776C12.9594 2.95728 13.5964 2.89635 14.2223 2.98497C14.8483 3.0736 15.441 3.31732 15.9506 3.68289C16.4658 4.05401 16.8757 4.54698 17.1582 5.11197C17.3299 5.45539 17.5792 5.76004 17.8838 5.99268C18.183 6.23085 18.5375 6.39703 18.9141 6.48011C19.3684 6.57427 19.7949 6.75706 20.1882 7.00632C21.008 7.52145 21.6118 8.31907 21.8943 9.24963C22.1713 10.1802 22.1048 11.1828 21.706 12.069H18.9585V13.0162H22.2765L22.4094 12.7669C23.0022 11.6536 23.1573 10.363 22.836 9.14439C22.5147 7.9258 21.7503 6.87338 20.6867 6.20316Z"
        fill="#2D5967" />
    <path
        d="M18.715 10.0744L16.1891 7.47656H7.64746V21.8781H18.3993L18.2165 21.6842C17.9783 21.4405 17.7512 21.1857 17.5351 20.9143H8.5836V8.42374H15.2917V11.088H17.7844V12.4783C17.9561 12.6057 18.1223 12.7442 18.2719 12.8993C18.438 13.071 18.5931 13.2593 18.7261 13.4643L18.715 10.0744ZM16.2279 8.86686L17.4687 10.1408H16.2279V8.86686Z"
        fill="#2D5967" />
    <path
        d="M9.86279 14.6797V15.2336H11.3086C11.3473 15.0453 11.4193 14.8569 11.5246 14.6797H9.86279Z"
        fill="#2D5967" />
    <path
        d="M12.6657 19.1074H9.86279V19.6613H14.2942C13.6849 19.5616 13.1254 19.3733 12.6657 19.1074Z"
        fill="#2D5967" />
    <path
        d="M9.86279 17.4465H11.5246C11.4083 17.2692 11.3196 17.0864 11.2698 16.8926H9.86279V17.4465Z"
        fill="#2D5967" />
    <path
        d="M12.4552 13.0168C12.4773 13.0002 12.4995 12.9836 12.5272 12.9725C12.8762 12.7509 13.2861 12.5792 13.7403 12.4629H9.86279V13.0168H12.4552Z"
        fill="#2D5967" />
    <path
        d="M18.4264 17.2489C18.7588 16.5454 18.8363 15.7478 18.6424 14.9889C18.443 14.2356 17.9833 13.571 17.3463 13.1223C16.7092 12.6736 15.9337 12.4631 15.1527 12.5296C14.3772 12.5961 13.646 12.9395 13.0976 13.4934C12.5437 14.0418 12.2058 14.7729 12.1448 15.5539C12.0784 16.3294 12.2889 17.1049 12.7431 17.7419C13.1973 18.3788 13.8565 18.8386 14.6154 19.0325C15.3687 19.2263 16.1719 19.1488 16.8754 18.8109L17.7008 19.963C18.022 20.3951 18.371 20.7994 18.7477 21.1761L19.4512 21.8795L21.4952 19.8301L20.7972 19.1322C20.415 18.75 20.0051 18.401 19.5731 18.0797L18.4264 17.2489ZM13.7512 17.4871C13.3635 17.0993 13.1253 16.5897 13.0699 16.0469C13.0145 15.4985 13.153 14.9502 13.4577 14.496C13.7623 14.0418 14.2165 13.7039 14.7428 13.5433C15.2635 13.3826 15.8285 13.4103 16.3381 13.6208C16.8422 13.8313 17.2632 14.2135 17.5235 14.6954C17.7783 15.1773 17.8614 15.7367 17.7562 16.274C17.6509 16.8113 17.3573 17.2987 16.9363 17.6477C16.5098 17.9911 15.978 18.185 15.4296 18.185C15.1194 18.185 14.8092 18.124 14.5212 18.0022C14.2332 17.8859 13.9728 17.7086 13.7512 17.4871ZM20.1381 19.8079H20.1658L19.4733 20.5058L19.4401 20.4781C19.0911 20.1403 18.7699 19.7802 18.4707 19.398L17.6565 18.2791C17.6952 18.2404 17.734 18.2016 17.7728 18.1628L17.8836 18.0465L18.997 18.8497C19.4013 19.1377 19.778 19.459 20.1381 19.8079Z"
        fill="#2D5967" />
    <path
        d="M16.5106 16.0423V15.5272L14.2949 14.6797V15.3333L15.6631 15.7764L14.2949 16.2417V16.8953L16.5106 16.0423Z"
        fill="#2D5967" />
</svg>
