<svg width="24" height="24" viewBox="0 0 24 24" fill="none" xmlns="http://www.w3.org/2000/svg">
    <g clip-path="url(#clip0_484_35884)">
        <path
            d="M20.2827 20.9697C20.2827 21.0243 20.2242 21.079 20.1656 21.079H9.57052C9.51783 21.1337 9.4593 21.1944 9.40076 21.2491L8.78027 21.8624H20.1656C20.6749 21.8624 21.073 21.4738 21.073 20.9697V17.0039C20.8447 17.2286 20.5637 17.4533 20.2827 17.672V20.9697Z"
            fill="#2D5967" />
        <path
            d="M4.2322 22.1184L4.17366 21.9969L4.05659 21.6386H0.913171C0.860488 21.6386 0.801951 21.5779 0.801951 21.5232V0.947306C0.801951 0.892648 0.860488 0.831916 0.913171 0.831916H20.7454C20.798 0.831916 20.8566 0.892648 20.8566 0.947306V5.04062C21.1434 5.27748 21.4302 5.51433 21.6585 5.75118V1.00804C21.6585 0.473599 21.2605 0.0606234 20.7454 0.0606234H0.913171C0.398049 -0.000108349 0 0.412867 0 0.947306V21.5232C0 22.0576 0.398049 22.4706 0.913171 22.4706H4.57171L4.34341 22.2338L4.2322 22.1184Z"
            fill="#2D5967" />
        <path
            d="M2.04903 4.25349H2.34171V1.82422H2.13684L1.75635 2.32222V2.65017L2.04903 2.43154V4.25349Z"
            fill="#2D5967" />
        <path
            d="M5.84221 4.25349L6.41002 3.33644L6.98368 4.25349H7.61002L6.80807 3.01456L7.55148 1.82422H6.92514L6.41002 2.68661L5.8949 1.82422H5.26855L6.01197 3.01456L5.26855 4.25349H5.84221Z"
            fill="#2D5967" />
        <path
            d="M9.11385 1.82422C8.80946 1.82422 8.59287 1.92746 8.45824 2.14002C8.28263 2.35258 8.19482 2.66839 8.19482 3.03885C8.19482 3.40932 8.28263 3.72512 8.41141 3.93768C8.59287 4.15024 8.80946 4.25349 9.07287 4.25349C9.37726 4.25349 9.5997 4.15024 9.72848 3.93768C9.90995 3.72512 9.95092 3.40932 9.95092 3.03885C9.95092 2.66839 9.86312 2.35258 9.72848 2.14002C9.64068 1.92746 9.42409 1.82422 9.11385 1.82422ZM9.5119 3.67046C9.42409 3.82836 9.29531 3.88302 9.16068 3.88302C9.02604 3.88302 8.85629 3.77978 8.76263 3.67046C8.68068 3.56722 8.63385 3.35466 8.63385 3.09351C8.63385 2.82629 8.68068 2.61373 8.76263 2.51049C8.85629 2.35258 8.98507 2.29793 9.11385 2.29793C9.24848 2.29793 9.37726 2.35258 9.46507 2.51049C9.55287 2.66839 9.5997 2.82629 9.5997 3.09351C9.5997 3.3 9.55287 3.51256 9.5119 3.67046Z"
            fill="#2D5967" />
        <path
            d="M12.8782 1.82422H12.3982L12.0001 2.63195L11.6021 1.82422H11.1221L11.6899 3.01456L11.1221 4.25349H11.5611C11.5611 4.25349 11.6021 4.25349 11.6021 4.19883L12.0001 3.33644L12.2167 3.76763C12.3513 3.71297 12.4801 3.60366 12.6148 3.549L12.3513 2.9599L12.8782 1.82422Z"
            fill="#2D5967" />
        <path
            d="M16.6299 2.09144C16.4016 1.91532 16.1206 1.82422 15.7753 1.82422C15.3772 1.82422 15.0904 1.91532 14.9206 2.09144C14.6923 2.27363 14.6338 2.54693 14.6338 2.85666C14.6338 2.94776 14.6338 2.99634 14.6338 3.03885C14.7509 3.03885 14.9206 2.99634 15.1489 2.99634C15.1489 2.94776 15.1489 2.90524 15.1489 2.90524C15.1489 2.68054 15.2074 2.49834 15.3187 2.40724C15.4357 2.27363 15.6055 2.23112 15.7753 2.23112C15.945 2.23112 16.1206 2.27363 16.2318 2.40724C16.3489 2.54693 16.4016 2.68054 16.4016 2.90524V2.94776C16.5772 2.94776 16.8055 2.94776 16.9753 2.94776V2.90524C16.9167 2.54693 16.864 2.27363 16.6299 2.09144Z"
            fill="#2D5967" />
        <path
            d="M19.3171 1.82422H18.8371L18.4391 2.56515L18.041 1.82422H17.561L18.1288 2.90524L18.0001 3.20283C18.1288 3.25141 18.2635 3.3 18.3981 3.3L18.4391 3.20283L18.5269 3.34858C18.7493 3.45183 18.9659 3.549 19.1415 3.64617L18.7493 2.90524L19.3171 1.82422Z"
            fill="#2D5967" />
        <path
            d="M2.46464 8.33766C2.55245 8.16761 2.6344 8.0583 2.71635 7.94898C2.80415 7.83966 2.84513 7.73035 2.84513 7.62103C2.8861 7.50564 2.92708 7.45098 2.92708 7.34166C2.92708 7.12303 2.8861 6.95298 2.75732 6.84366C2.6344 6.73435 2.51147 6.67969 2.30074 6.67969C2.21879 6.67969 2.13098 6.67969 2.00806 6.73435C1.9261 6.789 1.8383 6.789 1.75635 6.84366V7.287C1.9261 7.17769 2.09001 7.12303 2.21879 7.12303C2.42366 7.12303 2.51147 7.23235 2.51147 7.45098C2.51147 7.45098 2.51147 7.50564 2.51147 7.5603C2.51147 7.62103 2.46464 7.67569 2.42366 7.785C2.38269 7.83966 2.30074 7.94898 2.21879 8.11296L1.75635 8.77493V9.10896H2.92708V8.66561H2.21879L2.46464 8.33766Z"
            fill="#2D5967" />
        <path
            d="M7.55148 6.67969H6.92514L6.41002 7.50564L5.8949 6.67969H5.26855L6.01197 7.83966L5.26855 9.10896H5.84221L6.41002 8.22835L6.98368 9.10896H7.61002L6.80807 7.83966L7.55148 6.67969Z"
            fill="#2D5967" />
        <path
            d="M8.4758 7.09266C8.28848 7.32952 8.19482 7.68783 8.19482 8.10081C8.19482 8.51379 8.28848 8.8721 8.42897 9.10896C8.4758 8.8721 8.56946 8.57452 8.61629 8.33766C8.61629 8.27693 8.61629 8.16154 8.61629 8.04008C8.61629 7.74857 8.66312 7.51171 8.75678 7.39025C8.85043 7.27486 8.94409 7.15339 9.13141 7.15339C9.22507 6.97727 9.2719 6.85581 9.36556 6.67969C9.31873 6.67969 9.22507 6.67969 9.13141 6.67969C8.89726 6.74042 8.66312 6.85581 8.4758 7.09266Z"
            fill="#2D5967" />
        <path
            d="M10.5187 17.4084L9.48262 18.787C9.10213 19.3033 8.66311 19.8256 8.22993 20.3418L7.2992 21.3196L5.77725 19.7648L6.70213 18.787C7.14115 18.3255 7.62701 17.8639 8.17725 17.4631L9.54115 16.4246C9.37725 16.1938 9.21335 16.0237 9.04945 15.793L7.68554 16.8315C7.14115 17.2323 6.64945 17.7485 6.15774 18.2101L4.68262 19.7648L7.24652 22.4735L8.72164 20.9187C9.21335 20.4025 9.64652 19.8802 10.0329 19.3033L11.1216 17.9247C10.9577 17.7485 10.7412 17.5785 10.5187 17.4084Z"
            fill="#2D5967" />
        <path
            d="M4.37863 20.6484L4.09766 20.8853L4.37863 21.778L5.95327 23.3874L6.74351 23.685L7.02449 23.3874L4.37863 20.6484Z"
            fill="#2D5967" />
        <path
            d="M16.0682 18.2215C17.9062 18.2215 19.7443 17.5292 21.1843 16.0837C23.9999 13.2536 23.9999 8.69269 21.1843 5.86867C18.3687 3.03857 13.8262 3.03857 11.0106 5.86867C8.19502 8.69269 8.19502 13.2536 11.0106 16.0837C12.3921 17.5292 14.2301 18.2215 16.0682 18.2215ZM11.5843 6.44562C12.8487 5.17633 14.4584 4.53864 16.1267 4.53864C17.795 4.53864 19.4048 5.17633 20.6692 6.44562C23.1394 8.92347 23.1394 13.0229 20.6692 15.5068C18.1931 17.9907 14.1131 17.9907 11.5843 15.5068C9.05551 13.0229 9.05551 8.9842 11.5843 6.44562Z"
            fill="#2D5967" />
        <path
            d="M13.809 13.3625C14.4763 13.3625 14.9739 13.15 15.3075 12.8403C15.6412 12.4698 15.8051 11.9475 15.8051 11.2612C15.8051 10.581 15.6412 10.0587 15.249 9.68828C14.9212 9.32389 14.4178 9.11133 13.7563 9.11133C13.0948 9.11133 12.65 9.32389 12.2636 9.68828C11.93 10.0587 11.7075 10.581 11.7075 11.2612C11.7075 11.9475 11.8714 12.4698 12.2636 12.8403C12.7026 13.15 13.1475 13.3625 13.809 13.3625ZM13.0363 10.2166C13.2002 9.94943 13.4812 9.84618 13.8675 9.84618C14.2012 9.84618 14.4763 9.94943 14.6987 10.2166C14.8626 10.4778 14.9739 10.7936 14.9739 11.2126C14.9739 11.6317 14.8626 11.9961 14.6987 12.2572C14.529 12.5245 14.2012 12.6277 13.809 12.6277C13.4812 12.6277 13.2002 12.5245 12.9836 12.2572C12.8139 11.9961 12.7026 11.6803 12.7026 11.2126C12.7612 10.7936 12.8139 10.4231 13.0363 10.2166Z"
            fill="#2D5967" />
        <path
            d="M18.4623 10.6357L17.5433 9.16599H16.4487L17.7716 11.1823L16.3901 13.3625H17.4262L18.4038 11.7835L19.3814 13.3625H19.4984C19.674 13.0893 19.7853 12.816 19.9023 12.488L19.036 11.1823L19.8438 9.93121C19.7267 9.65791 19.6155 9.38462 19.4399 9.11133H19.3287L18.4623 10.6357Z"
            fill="#2D5967" />
        <path
            d="M16.1088 17.0047C17.5137 17.0047 18.9771 16.4217 20.0483 15.3103C22.2435 13.0329 22.2435 9.41325 20.0483 7.13581C17.8532 4.85837 14.3644 4.85837 12.1693 7.13581C11.0981 8.2472 10.5361 9.70476 10.5361 11.2231C10.5361 12.7414 11.0981 14.1989 12.1693 15.3103C13.2932 16.4217 14.7039 17.0047 16.1088 17.0047ZM12.7313 7.71884C13.6854 6.72891 14.8678 6.26128 16.1088 6.26128C17.3439 6.26128 18.5849 6.72891 19.4864 7.71884C21.342 9.64403 21.342 12.8021 19.4864 14.7273C17.6249 16.6525 14.5869 16.6525 12.7313 14.7273C11.8298 13.792 11.3264 12.5652 11.3264 11.2231C11.3264 9.88089 11.8298 8.65411 12.7313 7.71884Z"
            fill="#2D5967" />
    </g>
    <defs>
        <clipPath id="clip0_484_35884">
            <rect width="24" height="24" fill="white" />
        </clipPath>
    </defs>
</svg>
