<svg width="40" height="40" viewBox="0 0 40 40" fill="none" xmlns="http://www.w3.org/2000/svg">
    <g clip-path="url(#clip0_451_2951)">
        <path
            d="M20 39.5564C30.8002 39.5564 39.5556 30.8011 39.5556 20.0009C39.5556 9.20063 30.8002 0.445312 20 0.445312C9.19978 0.445312 0.444458 9.20063 0.444458 20.0009C0.444458 30.8011 9.19978 39.5564 20 39.5564Z"
            stroke="black" stroke-width="0.5" />
        <path
            d="M20 34.6673C28.1002 34.6673 34.6667 28.1008 34.6667 20.0007C34.6667 11.9005 28.1002 5.33398 20 5.33398C11.8999 5.33398 5.33337 11.9005 5.33337 20.0007C5.33337 28.1008 11.8999 34.6673 20 34.6673Z"
            stroke="black" stroke-width="0.5" />
        <path
            d="M20 29.7782C25.4001 29.7782 29.7778 25.4006 29.7778 20.0004C29.7778 14.6003 25.4001 10.2227 20 10.2227C14.5999 10.2227 10.2222 14.6003 10.2222 20.0004C10.2222 25.4006 14.5999 29.7782 20 29.7782Z"
            stroke="black" stroke-width="0.5" />
        <path
            d="M20 24.8891C22.7001 24.8891 24.8889 22.7003 24.8889 20.0002C24.8889 17.3002 22.7001 15.1113 20 15.1113C17.3 15.1113 15.1111 17.3002 15.1111 20.0002C15.1111 22.7003 17.3 24.8891 20 24.8891Z"
            stroke="black" stroke-width="0.5" />
        <path
            d="M20 0.445312V39.5564M33.7778 33.7786L6.22224 6.22309M33.7778 6.22309L6.22224 33.7786M39.5556 20.0009H0.444458"
            stroke="black" stroke-width="0.5" />
        <path d="M20 19.9998H24C24.0517 19.6312 24.0517 19.2572 24 18.8887L20 19.9998Z" fill="black"
            stroke="black" stroke-width="0.25" />
        <path
            d="M20 19.9993L27.5556 10.4438C26.5433 9.68203 25.4188 9.08227 24.2222 8.66602L20 19.9993Z"
            fill="black" stroke="black" stroke-width="0.25" />
        <path d="M20 20L16.4445 4C13.918 4.55388 11.5578 5.69592 9.5556 7.33333L20 20Z" fill="black"
            stroke="black" stroke-width="0.25" />
        <path
            d="M20 19.9996L7.11114 13.7773C5.85494 16.4823 5.4668 19.5097 6.00003 22.444L20 19.9996Z"
            fill="black" stroke="black" stroke-width="0.25" />
        <path d="M20 20L12.6667 23.5556C12.7876 23.9362 12.9362 24.3076 13.1111 24.6667L20 20Z"
            fill="black" stroke="black" stroke-width="0.25" />
        <path d="M20.0001 20L17.7778 30C19.0982 30.2634 20.4575 30.2634 21.7778 30L20.0001 20Z"
            fill="black" stroke="black" stroke-width="0.25" />
        <path d="M20 20L30.2222 32.8889C31.2104 32.1052 32.1052 31.2104 32.8889 30.2222L20 20Z"
            fill="black" stroke="black" stroke-width="0.25" />
    </g>
    <defs>
        <clipPath id="clip0_451_2951">
            <rect width="40" height="40" fill="white" />
        </clipPath>
    </defs>
</svg>
