<svg width="24" height="24" viewBox="0 0 24 24" fill="none" xmlns="http://www.w3.org/2000/svg">
    <g clip-path="url(#clip0_442_2507)">
        <path d="M6.80569 3H3.40234V6.38562H6.80569V3Z" fill="black" />
        <path d="M20.4209 3H17.0176V6.38562H20.4209V3Z" fill="black" />
        <path d="M10.209 6.38477H3.40234V9.77038H10.209V6.38477Z" fill="black" />
        <path d="M20.4219 6.38477H13.6152V9.77038H20.4219V6.38477Z" fill="black" />
        <path d="M20.4211 9.77148H3.40234V13.1569H20.4211V9.77148Z" fill="black" />
        <path d="M6.80569 13.1562H3.40234V16.5419H6.80569V13.1562Z" fill="black" />
        <path d="M13.6143 13.1562H10.2109V16.5419H13.6143V13.1562Z" fill="black" />
        <path d="M20.4209 13.1562H17.0176V16.5419H20.4209V13.1562Z" fill="black" />
        <path d="M10.2121 16.5449H0V19.9305H10.2121V16.5449Z" fill="black" />
        <path d="M23.8273 16.5449H13.6152V19.9305H23.8273V16.5449Z" fill="black" />
    </g>
    <defs>
        <clipPath id="clip0_442_2507">
            <rect width="24" height="17" fill="white" transform="translate(0 3)" />
        </clipPath>
    </defs>
</svg>
