<svg width="24" height="24" viewBox="0 0 24 24" fill="none" xmlns="http://www.w3.org/2000/svg">
    <path
        d="M2.9855 18.9318C2.45496 18.9329 1.93362 18.7977 1.47475 18.5399C1.01587 18.2821 0.635899 17.9109 0.373657 17.4644C0.115428 17.021 -0.0133576 16.518 0.00109555 16.0091C0.0155487 15.5003 0.172696 15.0049 0.455704 14.5759L5.83437 6.39813C6.10965 5.95862 6.5005 5.59773 6.96698 5.35233C7.43346 5.10692 7.95886 4.9858 8.48951 5.00133C9.01975 5.01363 9.5371 5.16211 9.98862 5.43158C10.4401 5.70104 10.8096 6.08182 11.0592 6.53494C11.5606 7.4529 11.4979 8.55732 10.8974 9.41901L5.52213 17.5968C5.24955 18.0081 4.87414 18.346 4.43072 18.5794C3.98729 18.8128 3.4902 18.934 2.9855 18.9318Z"
        fill="black" />
    <path
        d="M12.2105 18.9315C11.1257 18.9315 10.1274 18.3699 9.60325 17.4674C9.3456 17.0252 9.21711 16.5234 9.23157 16.016C9.24602 15.5085 9.40287 15.0143 9.6853 14.5866L15.0537 6.42756C15.3249 5.98187 15.7144 5.61455 16.1817 5.3637C16.6489 5.11286 17.177 4.98762 17.7111 5.00097C18.8051 5.02414 19.7965 5.61662 20.2979 6.5434C20.7959 7.47019 20.7229 8.58123 20.1042 9.44072L14.7369 17.5998C14.4652 18.0093 14.0913 18.3459 13.6498 18.5787C13.2082 18.8114 12.7133 18.9327 12.2105 18.9315Z"
        fill="black" />
    <path
        d="M21.23 18.9996C22.7594 18.9996 23.9991 17.8244 23.9991 16.3748C23.9991 14.9252 22.7594 13.75 21.23 13.75C19.7007 13.75 18.4609 14.9252 18.4609 16.3748C18.4609 17.8244 19.7007 18.9996 21.23 18.9996Z"
        fill="black" />
</svg>
