<svg width="24" height="24" viewBox="0 0 24 24" fill="none" xmlns="http://www.w3.org/2000/svg">
    <g clip-path="url(#clip0_484_13932)">
        <path
            d="M22.6855 0.857422H1.82836C1.31408 0.857422 0.856934 1.31456 0.856934 1.82885V22.8003C0.856934 23.2574 1.31408 23.7146 1.82836 23.7146H5.18836H7.52551H11.1769H13.5084H17.1598H19.4969H22.7426C23.2569 23.7146 23.7141 23.2574 23.7141 22.7431V1.82885C23.6569 1.31456 23.1998 0.857422 22.6855 0.857422ZM1.71408 7.42885H22.7998V8.51456L18.0684 12.1717L12.1426 10.5717L6.27408 15.2003L1.71408 13.086V7.42885ZM1.82836 1.71456H22.7426C22.7998 1.71456 22.8569 1.77171 22.8569 1.82885V6.57171H1.77122V1.82885C1.71408 1.77171 1.77122 1.71456 1.82836 1.71456ZM6.04551 22.8574V19.2574H6.67408V22.8574H6.04551ZM11.9712 22.8574V14.6289H12.5998V22.8574H11.9712ZM17.9541 22.8574V16.2289H18.5826V22.9146H17.9541V22.8574ZM22.6855 22.8574H19.4398V15.3717H17.1026V22.8574H13.4512V13.7717H11.1198V22.8574H7.46836V18.4003H5.18836V22.8574H1.82836C1.77122 22.8574 1.71408 22.8003 1.71408 22.7431V14.0003L6.38836 16.1717L12.3141 11.486L18.2398 13.086L22.7998 9.60028V22.8003C22.7998 22.8003 22.7426 22.8574 22.6855 22.8574Z"
            fill="#2D5967" />
        <path
            d="M4.857 2.57227H2.57129V4.85798H4.857V2.57227ZM4.18843 4.18941H3.28557V3.28655H4.14272L4.18843 4.18941Z"
            fill="#2D5967" />
    </g>
    <defs>
        <clipPath id="clip0_484_13932">
            <rect width="24" height="24" fill="white" />
        </clipPath>
    </defs>
</svg>
