<svg width="40" height="40" viewBox="0 0 40 40" fill="none" xmlns="http://www.w3.org/2000/svg">
    <path fill-rule="evenodd" clip-rule="evenodd"
        d="M30.6396 39.4493H9.36042C8.15244 39.4493 7.17178 38.4686 7.17178 37.2608V2.73918C7.17178 1.53138 8.15244 0.55072 9.36042 0.55072H30.6396C31.8476 0.55072 32.8282 1.53138 32.8282 2.73918V37.2608C32.8282 38.4686 31.8477 39.4493 30.6396 39.4493ZM27.7985 31.5147H12.2015C10.9599 31.5147 9.95186 32.5228 9.95186 33.7643C9.95186 35.0061 10.9599 36.0141 12.2015 36.0141H27.7985C29.0401 36.0141 30.0482 35.0061 30.0482 33.7643C30.0482 32.5228 29.0403 31.5147 27.7985 31.5147ZM12.3687 32.7033C12.9543 32.7033 13.4298 33.1787 13.4298 33.7643C13.4298 34.3501 12.9543 34.8256 12.3687 34.8256C11.7831 34.8256 11.3076 34.3501 11.3076 33.7643C11.3076 33.1787 11.7831 32.7033 12.3687 32.7033ZM27.7985 24.6529H12.2015C10.9597 24.6529 9.95186 25.661 9.95186 26.9025C9.95186 28.1443 10.9599 29.1523 12.2015 29.1523H27.7985C29.0401 29.1523 30.0482 28.1443 30.0482 26.9025C30.0482 25.661 29.0403 24.6529 27.7985 24.6529ZM12.3687 25.8415C12.9543 25.8415 13.4298 26.3169 13.4298 26.9025C13.4298 27.4883 12.9543 27.9638 12.3687 27.9638C11.7831 27.9638 11.3076 27.4883 11.3076 26.9025C11.3076 26.3169 11.7831 25.8415 12.3687 25.8415ZM27.7985 17.8088H12.2015C10.9597 17.8088 9.95186 18.8169 9.95186 20.0586C9.95186 21.3002 10.9599 22.3082 12.2015 22.3082H27.7985C29.0401 22.3082 30.0482 21.3002 30.0482 20.0586C30.0482 18.8169 29.0403 17.8088 27.7985 17.8088ZM12.3687 18.9973C12.9543 18.9973 13.4298 19.4728 13.4298 20.0586C13.4298 20.6442 12.9543 21.1197 12.3687 21.1197C11.7831 21.1197 11.3076 20.6442 11.3076 20.0586C11.3076 19.4728 11.7831 18.9973 12.3687 18.9973ZM27.7985 10.9442H12.2015C10.9597 10.9443 9.95186 11.9522 9.95186 13.194C9.95186 14.4355 10.9599 15.4436 12.2015 15.4436H27.7985C29.0401 15.4436 30.0482 14.4355 30.0482 13.194C30.0482 11.9522 29.0403 10.9443 27.7985 10.9442ZM12.3687 12.1327C12.9543 12.1327 13.4298 12.6082 13.4298 13.194C13.4298 13.7796 12.9543 14.2551 12.3687 14.2551C11.7831 14.2551 11.3076 13.7796 11.3076 13.194C11.3076 12.6082 11.7831 12.1327 12.3687 12.1327ZM27.7985 4.14159H12.2015C10.9597 4.14159 9.95186 5.14965 9.95186 6.3912C9.95186 7.63294 10.9599 8.641 12.2015 8.641H27.7985C29.0401 8.641 30.0482 7.63294 30.0482 6.3912C30.0482 5.14965 29.0403 4.14159 27.7985 4.14159ZM12.3687 5.33012C12.9543 5.33012 13.4298 5.8056 13.4298 6.3912C13.4298 6.97681 12.9543 7.45229 12.3687 7.45229C11.7831 7.45229 11.3076 6.97681 11.3076 6.3912C11.3076 5.8056 11.7831 5.33012 12.3687 5.33012Z"
        fill="white" />
</svg>
