<svg width="24" height="24" viewBox="0 0 24 24" fill="none" xmlns="http://www.w3.org/2000/svg">
    <g clip-path="url(#clip0_482_5967)">
        <path
            d="M13.1313 3.60352V4.4554C15.4713 4.73136 17.6253 5.9012 19.1433 7.73096C20.6673 9.56071 21.4353 11.9124 21.3033 14.3001C21.1653 16.6877 20.1393 18.9374 18.4233 20.5812C16.7073 22.225 14.4393 23.1429 12.0813 23.1429C9.72325 23.1429 7.45525 22.225 5.73925 20.5812C4.02325 18.9374 2.99725 16.6877 2.85925 14.3001C2.72725 11.9124 3.49525 9.56071 5.01925 7.73096C6.53725 5.9012 8.69125 4.73136 11.0313 4.4554V3.60352C8.46325 3.87948 6.09325 5.13931 4.41925 7.13104C2.73925 9.12277 1.88125 11.6904 2.01325 14.3061C2.15125 16.9217 3.27325 19.3874 5.14525 21.1931C7.01725 22.9929 9.50125 24.0007 12.0813 24.0007C14.6613 24.0007 17.1453 22.9929 19.0173 21.1931C20.8893 19.3874 22.0113 16.9217 22.1493 14.3061C22.2813 11.6904 21.4233 9.12277 19.7433 7.13104C18.0693 5.13931 15.6993 3.87948 13.1313 3.60352Z"
            fill="#2D5967" />
        <path
            d="M11.3952 20.9971H12.1632V1.60178L12.7392 2.2317L13.3332 2.87961L13.8792 2.28569L12.7392 1.04386L12.7032 1.00786L11.7792 0L10.8492 1.00786L10.8132 1.04386L9.6792 2.28569L10.2192 2.87961L10.8132 2.2317L11.3952 1.60178V20.9971Z"
            fill="#2D5967" />
        <path
            d="M15.4056 15.0519L14.1936 13.8821H19.2816V13.1142H14.1936L15.4056 11.9444L14.8416 11.3984L13.2396 12.9522L12.6816 13.4982L13.2396 14.0441L14.8416 15.5979L15.4056 15.0519Z"
            fill="#2D5967" />
        <path
            d="M8.1613 11.9444L9.3613 13.1142H4.2793V13.8821H9.3613L8.1613 15.0519L8.7193 15.5979L10.3153 14.0441L10.8793 13.4982L10.3153 12.9522L8.7193 11.3984L8.1613 11.9444Z"
            fill="#2D5967" />
    </g>
    <defs>
        <clipPath id="clip0_482_5967">
            <rect width="24" height="24" fill="white" />
        </clipPath>
    </defs>
</svg>
