<svg width="24" height="24" viewBox="0 0 24 24" fill="none" xmlns="http://www.w3.org/2000/svg">
    <path fill-rule="evenodd" clip-rule="evenodd"
        d="M3 6.10345C3 4.38946 4.38945 3 6.10341 3H17.8963C19.6103 3 20.9998 4.38946 20.9998 6.10345V16.1335C20.9998 17.9067 18.7559 18.6763 17.6676 17.2763L14.2654 12.8996V18.2069C14.2654 19.7495 13.0149 21 11.4723 21H6.10341C4.38945 21 3 19.6105 3 17.8966V6.10345ZM6.10341 5.48276C5.76062 5.48276 5.48273 5.76065 5.48273 6.10345V17.8966C5.48273 18.2393 5.76062 18.5172 6.10341 18.5172H11.5654C11.7368 18.5172 11.7826 18.3783 11.7826 18.2069V11.0899C11.7826 9.31664 14.0265 8.54705 15.1148 9.94704L18.517 14.3237V6.10345C18.517 5.76065 18.5495 5.48276 18.2067 5.48276H6.10341Z"
        fill="black" />
    <path
        d="M17.8967 3C19.6107 3 21.0001 4.38946 21.0001 6.10345V16.1335C21.0001 17.9067 18.7562 18.6763 17.668 17.2763L14.2657 12.8996V18.2069C14.2657 19.7495 13.0152 21 11.4727 21C11.644 21 11.783 20.861 11.783 20.6897V11.0899C11.783 9.31664 14.0268 8.54705 15.1151 9.94704L18.5174 14.3237V3.62069C18.5174 3.27789 18.2395 3 17.8967 3Z"
        fill="black" />
</svg>
