<svg width="24" height="24" viewBox="0 0 24 24" fill="none" xmlns="http://www.w3.org/2000/svg">
    <path
        d="M11.7746 0C11.7746 1.00683 9.14634 3.12 3 3.12V15.6117C3 19.8498 11.7746 24 11.7746 24C11.7746 24 20.561 19.879 20.561 15.641V3.12585C14.2098 3.12585 11.7746 0.89561 11.7746 0ZM12.2195 1.9961C12.5883 2.26537 12.9863 2.50537 13.402 2.70439C15.3863 3.56488 17.5229 4.00976 19.6829 4.00976V11.3854H12.2195V1.9961ZM3.87805 4.00976C6.00878 4.0039 8.11024 3.58244 10.0771 2.75707C10.5278 2.5522 10.961 2.30634 11.3649 2.01951V11.3854H3.87805V4.00976ZM7.87024 20.64C5.29463 18.8019 3.87805 17.0107 3.87805 15.6117V12.2693H11.3415V22.7649C10.1415 22.1327 8.98244 21.4244 7.87024 20.64ZM19.6829 15.6117C19.6829 17.0107 18.2605 18.8019 15.6849 20.64C14.5727 21.4244 13.4195 22.1327 12.2195 22.7649V12.2693H19.6829V15.6117Z"
        fill="#2D5967" />
</svg>
