<svg width="24" height="24" viewBox="0 0 24 24" fill="none" xmlns="http://www.w3.org/2000/svg">
    <g clip-path="url(#clip0_480_16994)">
        <path
            d="M17.2878 6.10924L18.8379 8.79251L17.2878 11.4797H14.1874L12.6412 8.79251L14.1874 6.10924H17.2878ZM17.8032 5.31055H13.672L11.6064 8.85153L13.672 12.3925H17.8032L19.8687 8.85153L17.8032 5.31055Z"
            fill="#2D5967" />
        <path
            d="M11.6064 14.7655C13.0897 14.7655 14.2897 15.9655 14.2897 17.4488C14.2897 18.936 13.0897 20.136 11.6064 20.136C10.1231 20.136 8.92313 18.936 8.92313 17.4488C8.92313 15.9655 10.1231 14.7655 11.6064 14.7655ZM11.6064 13.9668C9.66281 13.9668 8.06543 15.5642 8.06543 17.5078C8.06543 19.4514 9.66281 21.0488 11.6064 21.0488C13.55 21.0488 15.1474 19.4514 15.1474 17.5078C15.1474 15.5091 13.55 13.9668 11.6064 13.9668Z"
            fill="#2D5967" />
        <path
            d="M7.64468 7.02202L10.1706 11.5348H5.17386L7.64468 7.02202ZM7.64468 5.31055L3.73779 12.3925H11.6066L7.64468 5.31055Z"
            fill="#2D5967" />
        <path
            d="M22.8001 23.8025H1.20006C0.668909 23.8025 0.196777 23.3304 0.196777 22.7993V2.55664H23.8033V22.7993C23.8033 23.3304 23.3312 23.8025 22.8001 23.8025ZM1.08202 3.44189V22.8583C1.08202 22.9173 1.14104 22.9763 1.20006 22.9763H22.8591C22.9181 22.9763 22.9771 22.9173 22.9771 22.8583V3.44189H1.08202Z"
            fill="#2D5967" />
        <path
            d="M23.8033 1.77104H0.196777V1.12186C0.196777 0.630052 0.668909 0.197266 1.20006 0.197266H22.8591C23.3312 0.197266 23.8033 0.630052 23.8033 1.12186V1.77104Z"
            fill="#2D5967" />
    </g>
    <defs>
        <clipPath id="clip0_480_16994">
            <rect width="24" height="24" fill="white" />
        </clipPath>
    </defs>
</svg>
