<svg width="24" height="24" viewBox="0 0 24 24" fill="none" xmlns="http://www.w3.org/2000/svg">
    <g clip-path="url(#clip0_442_2508)">
        <path fill-rule="evenodd" clip-rule="evenodd"
            d="M9.51596 0L2.08833 1.92615L0.0413582 9.32185L2.60148 11.9244L0 14.484L1.92647 21.9121L9.32193 23.958L11.9239 21.3979L14.484 24L21.9117 22.0739L23.9581 14.6776L21.3985 12.0761L24 9.51648L22.0735 2.08792L14.677 0.0419607L12.0761 2.60156L9.51596 0ZM4.95788 3.34877L8.87056 2.33362L10.5816 4.07271L8.08629 6.52767L4.95788 3.34877ZM13.5471 4.09597L15.2857 2.38569L19.1815 3.46353L16.002 6.59137L13.5471 4.09597ZM2.3855 8.71468L3.46336 4.81941L6.59076 7.99831L4.09599 10.4533L2.3855 8.71417V8.71468ZM17.472 8.08628L20.6515 4.95743L21.6656 8.87039L19.9275 10.5812L17.472 8.08628ZM9.5568 8.02208L12.0521 5.56712L14.5065 8.06252L12.0117 10.5175L9.5568 8.02208ZM5.56702 11.9477L8.06178 9.49272L10.5177 11.9881L8.02196 14.4431L5.56702 11.9477ZM13.4828 12.0119L15.9775 9.55693L18.4325 12.0523L15.9372 14.5073L13.4828 12.0119ZM2.33342 15.1296L4.0725 13.4183L6.52693 15.9142L3.34848 19.0416L2.33342 15.1296ZM9.49247 15.9375L11.9877 13.4825L14.4427 15.9779L11.9479 18.4329L9.49247 15.9375ZM17.4077 16.0022L19.903 13.5472L21.614 15.2858L20.5366 19.1811L17.4077 16.0022ZM4.81848 20.537L7.99745 17.4081L10.4534 19.9035L8.71432 21.6148L4.81848 20.537ZM13.4184 19.9273L15.9132 17.4723L19.0411 20.6517L15.1289 21.6664L13.4184 19.9273Z"
            fill="black" />
    </g>
    <defs>
        <clipPath id="clip0_442_2508">
            <rect width="24" height="24" fill="white" />
        </clipPath>
    </defs>
</svg>
