<svg width="24" height="24" viewBox="0 0 24 24" fill="none" xmlns="http://www.w3.org/2000/svg">
    <g clip-path="url(#clip0_484_6612)">
        <path
            d="M16.8538 17.9096H5.7358V13.7696H11.7778C11.5978 13.4756 11.4778 13.2416 11.3578 13.0016H5.7358V8.86761H10.2658V8.09961H0.299805V23.6996H17.6998V18.2636L17.3998 18.1436C17.2138 18.0296 17.0338 17.9696 16.8538 17.9096ZM1.0858 8.80761H4.9498V12.9476H1.0858V8.80761ZM4.9498 13.7156V17.8496H1.0858V13.7156H4.9498ZM1.0858 18.6776H4.9498V22.8116H1.0858V18.6776ZM16.8538 22.8116H5.7358V18.6776H16.8538V22.8116Z"
            fill="#AA643B" />
        <path d="M15.3002 21.9004H14.7002V22.5004H15.3002V21.9004Z" fill="#AA643B" />
        <path
            d="M12.2582 22.4996L12.9302 21.8276L13.5962 22.4996L14.1002 21.9416L13.4282 21.2696L14.1002 20.6036L13.5962 20.0996L12.9302 20.7716L12.2582 20.0996L11.7002 20.6036L12.3722 21.2696L11.7002 21.9416L12.2582 22.4996Z"
            fill="#AA643B" />
        <path d="M10.4999 21.9004H9.8999V22.5004H10.4999V21.9004Z" fill="#AA643B" />
        <path
            d="M6.8999 21.9416L7.4039 22.4996L8.0699 21.8276L8.7419 22.4996L9.2999 21.9416L8.6279 21.2696L9.2999 20.6036L8.7419 20.0996L8.0699 20.7716L7.4039 20.0996L6.8999 20.6036L7.5719 21.2696L6.8999 21.9416Z"
            fill="#AA643B" />
        <path d="M10.4999 16.5H9.8999V17.1H10.4999V16.5Z" fill="#AA643B" />
        <path
            d="M6.8999 16.5412L7.4039 17.0992L8.0699 16.4272L8.7419 17.0992L9.2999 16.5412L8.6279 15.8692L9.2999 15.2032L8.7419 14.6992L8.0699 15.3712L7.4039 14.6992L6.8999 15.2032L7.5719 15.8692L6.8999 16.5412Z"
            fill="#AA643B" />
        <path
            d="M9.8999 12.2992H10.4999V11.7412C10.4999 11.7412 10.4999 11.7412 10.4999 11.6992H9.8999V12.2992Z"
            fill="#AA643B" />
        <path
            d="M6.2998 11.1968L6.8578 11.7008L7.5298 11.0288L8.1958 11.7008L8.6998 11.1968L8.0278 10.5308L8.6998 9.85878L8.1958 9.30078L7.5298 9.97278L6.8578 9.30078L6.2998 9.85878L6.9718 10.5308L6.2998 11.1968Z"
            fill="#AA643B" />
        <path
            d="M10.5 3.10278V9.24078C10.5 9.30078 10.56 10.7888 11.328 12.5768C12.096 14.2448 13.698 16.4468 17.01 17.6408L17.13 17.7008L17.25 17.6408C20.562 16.4468 22.158 14.2448 22.872 12.5768C23.7 10.7888 23.7 9.30078 23.7 9.24078V3.10278L17.13 0.300781L10.5 3.10278ZM22.992 9.24078C22.992 9.30078 22.872 14.6588 17.19 16.8068C14.82 15.9128 13.104 14.3648 12.096 12.2768C11.328 10.6688 11.328 9.24078 11.328 9.24078V3.63678L17.19 1.13478L22.992 3.63678V9.24078Z"
            fill="#AA643B" />
        <path d="M16.5 9.90039H13.5V10.5004H16.5V9.90039Z" fill="#AA643B" />
        <path d="M16.5 5.69922H13.5V6.29922H16.5V5.69922Z" fill="#AA643B" />
        <path
            d="M20.2322 5.09961L18.7322 6.52761L18.2162 6.01761L17.7002 6.47961L18.7322 7.49961L20.7002 5.56161L20.2322 5.09961Z"
            fill="#AA643B" />
        <path d="M13.5 8.69961H16.386H16.5V8.09961H13.5V8.69961Z" fill="#AA643B" />
    </g>
    <defs>
        <clipPath id="clip0_484_6612">
            <rect width="24" height="24" fill="white" />
        </clipPath>
    </defs>
</svg>
