<svg width="40" height="40" viewBox="0 0 40 40" fill="none" xmlns="http://www.w3.org/2000/svg">
    <path fill-rule="evenodd" clip-rule="evenodd"
        d="M21.7615 23.9161V31.7732L24.9764 28.5586L24.9655 33.488L20.0152 38.4383L15.0752 33.4982V28.5516L18.2997 31.7761V23.9385L21.7615 23.9161ZM30.5673 18.2832H38.4051L38.4272 21.745H30.5701L33.7847 24.96L28.8556 24.9491L23.9052 19.9987L28.8452 15.0587H33.7918L30.5673 18.2832ZM11.1549 24.96H6.20819L9.43284 21.7355H1.59507L1.57275 18.2737H9.42986L6.21542 15.0587L11.1446 15.0696L16.0949 20.02L11.1549 24.96ZM18.2901 16.0837V8.2266L15.0752 11.4412L15.086 6.51189L20.0364 1.56168L24.9764 6.50168V11.4483L21.7519 8.22378V16.0614L18.2901 16.0837Z"
        fill="white" />
</svg>
