<svg width="24" height="24" viewBox="0 0 24 24" fill="none" xmlns="http://www.w3.org/2000/svg">
    <g clip-path="url(#clip0_485_61487)">
        <path
            d="M0.856934 0.857422V23.7146H23.7141V0.857422H0.856934ZM22.8569 8.17171H8.05693V1.71456H22.8569V8.17171ZM1.71408 16.4003H7.19979V22.9146H1.71408V16.4003ZM7.19979 1.71456V8.22885H1.71408V1.71456H7.19979ZM7.19979 9.02885V15.5431H1.71408V9.02885H7.19979ZM8.05693 22.8574V16.4003H22.8569V22.9146L8.05693 22.8574ZM8.05693 15.5431V9.02885H22.8569V15.5431H8.05693Z"
            fill="#AA643B" />
        <path
            d="M8.85693 7.1423H9.81122L10.3141 6.21087L10.8169 7.1423H11.7141L10.8741 5.65658L11.6569 4.28516H10.7598L10.3141 5.16516L9.81122 4.28516H8.91408L9.75408 5.65658L8.85693 7.1423Z"
            fill="#AA643B" />
        <path d="M12.8571 6.57227H12.2856V7.14369H12.8571V6.57227Z" fill="#AA643B" />
        <path
            d="M14.3425 7.1423L14.8568 6.21087L15.3711 7.1423H16.2854L15.3711 5.65658L16.2282 4.28516H15.3711L14.8568 5.16516L14.3425 4.28516H13.4282L14.2854 5.65658L13.4282 7.1423H14.3425Z"
            fill="#AA643B" />
        <path d="M17.4284 6.57227H16.8569V7.14369H17.4284V6.57227Z" fill="#AA643B" />
        <path
            d="M18.9143 7.1423L19.4286 6.21087L20 7.1423H20.8571L20 5.65658L20.8 4.28516H19.9429L19.4286 5.16516L18.9143 4.28516H18.0571L18.8571 5.65658L18 7.1423H18.9143Z"
            fill="#AA643B" />
        <path d="M21.4284 6.57227H20.8569V7.14369H21.4284V6.57227Z" fill="#AA643B" />
        <path
            d="M11.6569 11.7148H10.7598L10.3141 12.5948L9.81122 11.7148H8.91408L9.75408 13.0863L8.85693 14.572H9.81122L10.3141 13.6406L10.8169 14.572H11.7141L10.8741 13.0863L11.6569 11.7148Z"
            fill="#AA643B" />
        <path d="M12.8571 14H12.2856V14.5714H12.8571V14Z" fill="#AA643B" />
        <path
            d="M16.2282 11.7148H15.3711L14.8568 12.5948L14.3425 11.7148H13.4282L14.2854 13.0863L13.4282 14.572H14.3425L14.8568 13.6406L15.3711 14.572H16.2854L15.3711 13.0863L16.2282 11.7148Z"
            fill="#AA643B" />
        <path d="M17.4284 14H16.8569V14.5714H17.4284V14Z" fill="#AA643B" />
        <path
            d="M20.8 11.7148H19.9429L19.4286 12.5948L18.9143 11.7148H18.0571L18.8571 13.0863L18 14.572H18.9143L19.4286 13.6406L20 14.572H20.8571L20 13.0863L20.8 11.7148Z"
            fill="#AA643B" />
        <path d="M21.4284 14H20.8569V14.5714H21.4284V14Z" fill="#AA643B" />
        <path
            d="M11.6569 19.1426H10.7598L10.3141 19.9826L9.81122 19.1426H8.91408L9.75408 20.4854L8.85693 21.9997H9.81122L10.3141 21.0454L10.8169 21.9997H11.7141L10.8741 20.5426L11.6569 19.1426Z"
            fill="#AA643B" />
        <path d="M12.8571 21.4297H12.2856V22.0011H12.8571V21.4297Z" fill="#AA643B" />
        <path
            d="M16.2282 19.1426H15.3711L14.8568 19.9826L14.3425 19.1426H13.4282L14.2854 20.4854L13.4282 21.9997H14.3425L14.8568 21.0454L15.3711 21.9997H16.2854L15.3711 20.5426L16.2282 19.1426Z"
            fill="#AA643B" />
        <path d="M17.4284 21.4297H16.8569V22.0011H17.4284V21.4297Z" fill="#AA643B" />
        <path
            d="M20.8 19.1426H19.9429L19.4286 19.9826L18.9143 19.1426H18.0571L18.8571 20.4854L18 21.9997H18.9143L19.4286 21.0454L20 21.9997H20.8571L20 20.5426L20.8 19.1426Z"
            fill="#AA643B" />
        <path d="M21.4284 21.4297H20.8569V22.0011H21.4284V21.4297Z" fill="#AA643B" />
    </g>
    <defs>
        <clipPath id="clip0_485_61487">
            <rect width="24" height="24" fill="white" />
        </clipPath>
    </defs>
</svg>
