<svg width="24" height="25" viewBox="0 0 24 25" fill="none" xmlns="http://www.w3.org/2000/svg">
    <path
        d="M12.3679 7.52969C12.1832 7.71507 11.8164 7.71507 11.6323 7.52969L8.32215 4.19277C8.13741 4.00806 8.13741 3.63729 8.32215 3.4519L11.6323 0.209351C11.817 0.0239664 12.1839 0.0239664 12.3679 0.209351L15.6781 3.5456C15.8608 3.73031 15.8608 4.10108 15.6781 4.28647L12.3673 7.52902L12.3679 7.52969Z"
        fill="black" />
    <path
        d="M12.3679 23.9306C12.1832 24.116 11.8164 24.116 11.6323 23.9306L8.32215 20.5944C8.13741 20.4097 8.13741 20.0389 8.32215 19.8535L11.6323 16.5179C11.817 16.3326 12.1839 16.3326 12.3679 16.5179L15.6781 19.8542C15.8608 20.0402 15.8608 20.411 15.6781 20.5957L12.3673 23.932L12.3679 23.9306Z"
        fill="black" />
    <path
        d="M20.5515 15.6845C20.3668 15.8706 19.9999 15.8706 19.8159 15.6845L16.5057 12.349C16.321 12.1636 16.321 11.7935 16.5057 11.6081L19.8159 8.27185C20.0006 8.08647 20.3674 8.08647 20.5515 8.27185L23.8617 11.6081C24.0464 11.7935 24.0464 12.1636 23.8617 12.349L20.5515 15.6845Z"
        fill="black" />
    <path
        d="M7.86152 20.8737C7.86152 20.5953 7.67678 20.5029 7.49402 20.6883L6.11508 22.1707C5.93034 22.3561 5.93034 22.6345 6.20745 22.8199L7.49402 23.3754C7.76981 23.4691 7.95323 23.3754 7.95323 23.0977V20.8737H7.86086H7.86152Z"
        fill="black" />
    <path
        d="M17.792 22.8201C18.0678 22.7264 18.0678 22.4493 17.8844 22.1709L16.4131 20.6885C16.2283 20.5031 16.0449 20.5948 16.0449 20.8739V23.0978C16.0449 23.3756 16.2297 23.5609 16.5048 23.3756L17.792 22.8201Z"
        fill="black" />
    <path
        d="M20.0907 16.7039C20.0907 16.4262 19.8149 16.1484 19.5391 16.1484H16.5965C16.3207 16.1484 16.0449 16.4262 16.0449 16.7039V19.6687C16.0449 19.9471 16.3207 20.2256 16.5965 20.2256H19.5391C19.8149 20.2256 20.0907 19.9471 20.0907 19.6701V16.7039Z"
        fill="black" />
    <path
        d="M22.6658 6.23353C22.5734 5.95579 22.2983 5.95579 22.0225 6.13984L20.5512 7.62358C20.3665 7.80896 20.4588 7.99435 20.7359 7.99435H22.9416C23.2174 7.99435 23.4014 7.80896 23.2174 7.53055L22.6658 6.23353Z"
        fill="black" />
    <path
        d="M17.8837 1.97032C18.0685 1.69191 18.0685 1.41484 17.7914 1.32114L16.5048 0.765657C16.229 0.671961 16.0449 0.765657 16.0449 1.0434V3.26734C16.0449 3.54575 16.2297 3.63811 16.4131 3.45273L17.8837 1.97032Z"
        fill="black" />
    <path
        d="M1.97729 6.14033C1.7015 5.95562 1.42571 5.95562 1.33334 6.23403L0.690055 7.43869C0.597685 7.71576 0.782424 7.90048 1.05755 7.90048H3.26452C3.54031 7.90048 3.63268 7.71576 3.44926 7.53038L1.97729 6.14033Z"
        fill="black" />
    <path
        d="M7.86162 4.4715C7.86162 4.19376 7.58583 3.91602 7.31004 3.91602H4.45978C4.18399 3.91602 3.9082 4.19376 3.9082 4.4715V7.43631C3.9082 7.71472 4.18531 7.99313 4.46044 7.99313H7.40307C7.6782 7.99313 7.95399 7.71472 7.95399 7.43765V4.47083L7.86162 4.4715Z"
        fill="black" />
    <path
        d="M7.86298 1.04378C7.86298 0.766036 7.67824 0.580652 7.40311 0.766036L6.20891 1.32152C5.9318 1.41522 5.83943 1.69229 6.11654 1.9707L7.58785 3.4531C7.77127 3.63849 7.95469 3.5468 7.95469 3.26772V1.04378H7.86232H7.86298Z"
        fill="black" />
    <path
        d="M23.2171 16.7034C23.3095 16.4256 23.2171 16.2402 22.9413 16.2402H20.735C20.4592 16.2402 20.3669 16.4263 20.5503 16.6117L22.0223 18.0934C22.207 18.2788 22.4821 18.2788 22.6662 18.001L23.2178 16.7027L23.2171 16.7034Z"
        fill="black" />
    <path
        d="M7.86162 16.7039C7.86162 16.4262 7.58583 16.1484 7.31004 16.1484H4.45978C4.18399 16.1484 3.9082 16.4262 3.9082 16.7039V19.6687C3.9082 19.9471 4.18531 20.2256 4.46044 20.2256H7.40307C7.6782 20.2256 7.95399 19.9471 7.95399 19.6701V16.7039H7.86162Z"
        fill="black" />
    <path
        d="M3.35532 16.5192C3.54006 16.3338 3.44769 16.1484 3.1719 16.1484H1.05664C0.780849 16.1484 0.597429 16.3338 0.780849 16.6122L1.33243 17.9093C1.4248 18.187 1.70059 18.187 1.97637 18.0029L3.35532 16.5192Z"
        fill="black" />
    <path
        d="M20.0907 7.43765C20.0907 7.71539 19.8149 7.99313 19.5391 7.99313H16.5965C16.3207 7.99313 16.0449 7.71539 16.0449 7.43765V4.47284C16.0449 4.19443 16.3207 3.91602 16.5965 3.91602H19.5391C19.8149 3.91602 20.0907 4.19443 20.0907 4.4715V7.43765Z"
        fill="black" />
    <path
        d="M4.185 15.6826C4.00026 15.8687 3.63276 15.8687 3.44868 15.6826L0.138554 12.3477C-0.0461847 12.1624 -0.0461847 11.7923 0.138554 11.6069L3.44868 8.36365C3.63342 8.17826 4.00026 8.17826 4.18434 8.36365L7.49381 11.6992C7.67723 11.8846 7.67723 12.2547 7.49381 12.4408L4.185 15.6826Z"
        fill="black" />
</svg>
