<svg width="37" height="40" viewBox="0 0 37 40" fill="none" xmlns="http://www.w3.org/2000/svg">
    <path
        d="M35.5325 17.4992H16.1568C15.4168 17.4992 14.8125 16.8867 14.8125 16.1617V13.8492C14.8125 13.1117 15.4292 12.5117 16.1568 12.5117H35.6558C36.3958 12.5117 37.0002 13.1242 37.0002 13.8492V16.1617C36.8768 16.8992 36.2602 17.4992 35.5325 17.4992Z"
        fill="black" />
    <path
        d="M1.35667 27.5C0.616667 27.5 0 26.875 0 26.125V23.75C0 23.125 0.616667 22.5 1.35667 22.5H20.9173C21.6573 22.5 22.274 23.125 22.274 23.875V26.25C22.1507 26.875 21.534 27.5 20.794 27.5H1.35667Z"
        fill="black" />
    <path
        d="M7.33874 36.25C8.6954 36.25 9.8054 35.125 9.8054 33.75C9.8054 32.375 8.6954 31.25 7.33874 31.25C5.98207 31.25 4.87207 32.375 4.87207 33.75C4.87207 35.125 5.98207 36.25 7.33874 36.25Z"
        fill="black" />
    <path
        d="M29.538 8.75C30.8946 8.75 32.0046 7.625 32.0046 6.25C32.0046 4.875 30.8946 3.75 29.538 3.75C28.1813 3.75 27.0713 4.875 27.0713 6.25C27.0713 7.625 28.1813 8.75 29.538 8.75Z"
        fill="black" />
    <path
        d="M18.4384 35.0001C17.0817 35.0001 15.725 34.7501 14.4917 34.3751C13.875 34.2501 13.2584 34.5001 13.0117 35.1251L12.1484 37.5001C11.9017 38.1251 12.2717 38.8751 13.0117 39.1251C14.7384 39.7501 16.5884 40.0001 18.4384 40.0001C26.455 40.0001 33.3617 35.1251 36.445 28.1251C36.6917 27.5001 36.445 26.6251 35.705 26.3751L33.3617 25.5001C32.745 25.2501 32.1284 25.5001 31.8817 26.1251C29.5384 31.3751 24.4817 35.0001 18.4384 35.0001Z"
        fill="black" />
    <path
        d="M18.438 5C19.7947 5 21.1514 5.25 22.3847 5.625C23.0014 5.75 23.618 5.5 23.8647 4.875L24.728 2.5C24.9747 1.875 24.6047 1.125 23.8647 0.875C22.138 0.25 20.288 0 18.438 0C10.4214 0 3.5147 4.875 0.431367 11.875C0.184701 12.5 0.431367 13.375 1.17137 13.625L3.5147 14.5C4.13137 14.75 4.74803 14.5 4.9947 13.875C7.33803 8.625 12.3947 5 18.438 5Z"
        fill="black" />
</svg>
