<svg width="24" height="24" viewBox="0 0 24 24" fill="none" xmlns="http://www.w3.org/2000/svg">
    <g clip-path="url(#clip0_442_2594)">
        <path d="M13.0956 0H9.91016V19.3285H13.0956V0Z" fill="black" />
        <path fill-rule="evenodd" clip-rule="evenodd"
            d="M13.8672 23.989L17.0502 21.9873V5.25345C16.1065 4.54335 15.0194 4.05454 13.8672 3.82227V23.989Z"
            fill="black" />
        <path fill-rule="evenodd" clip-rule="evenodd"
            d="M5.94531 21.9991L9.13074 24.0007V3.83398C7.97841 4.06275 6.89046 4.54814 5.94531 5.25516V21.9991Z"
            fill="black" />
        <path fill-rule="evenodd" clip-rule="evenodd"
            d="M17.8223 0.917969V21.6377L19.3016 20.7069C19.8313 20.3533 20.2646 19.8699 20.5615 19.3014C20.8584 18.7329 21.0093 18.0976 21.0003 17.4542V7.66857C21.0077 4.84623 17.8223 0.917969 17.8223 0.917969Z"
            fill="black" />
        <path fill-rule="evenodd" clip-rule="evenodd"
            d="M2.00044 17.4467C1.99074 18.0902 2.14136 18.7257 2.43833 19.2944C2.7353 19.863 3.16899 20.3463 3.69917 20.6994L5.17847 21.6302V0.917969C5.17847 0.917969 2.00044 4.84623 2.00044 7.66857V17.4467Z"
            fill="black" />
    </g>
    <defs>
        <clipPath id="clip0_442_2594">
            <rect width="24" height="24" fill="white" />
        </clipPath>
    </defs>
</svg>
