<svg width="24" height="24" viewBox="0 0 24 24" fill="none" xmlns="http://www.w3.org/2000/svg">
    <g clip-path="url(#clip0_485_65168)">
        <path
            d="M2.55406 15.3764C1.78834 13.9821 1.38263 12.405 1.38834 10.805C1.38834 9.20497 1.79406 7.62783 2.55977 6.22783C3.3312 4.82783 4.43977 3.65069 5.78263 2.81069C7.12549 1.97069 8.65691 1.49069 10.2341 1.4164C11.8112 1.34783 13.3769 1.68497 14.7883 2.40497C15.6969 2.54783 16.5883 2.81069 17.4283 3.19354C15.4969 1.30783 12.9026 0.284972 10.2226 0.342115C7.54834 0.399258 4.99977 1.5364 3.14834 3.50212C1.29691 5.46212 0.285485 8.0964 0.342628 10.8164C0.399771 13.5307 1.51977 16.1193 3.4512 17.9993C3.03977 17.1707 2.74263 16.285 2.55406 15.3764Z"
            fill="#2D5967" />
        <path
            d="M13.4971 3.14258C11.4857 3.14829 9.51995 3.74829 7.85138 4.86829C6.17709 5.99401 4.87424 7.58258 4.10852 9.44544C3.34281 11.3026 3.14281 13.3483 3.53709 15.3254C3.93138 17.2969 4.89709 19.1083 6.32567 20.5311C7.74852 21.9597 9.55995 22.9254 11.5314 23.3197C13.5085 23.714 15.5542 23.514 17.4114 22.7483C19.2742 21.9826 20.8628 20.6797 21.9885 19.0054C23.1085 17.3369 23.7085 15.3711 23.7142 13.3597C23.7142 10.6511 22.6399 8.05115 20.72 6.13686C18.8057 4.21686 16.2057 3.14258 13.4971 3.14258ZM13.4971 22.6626C11.6514 22.6626 9.84567 22.114 8.30852 21.0854C6.77709 20.0626 5.57709 18.5997 4.87424 16.8969C4.16567 15.1883 3.98281 13.3083 4.34281 11.5026C4.70281 9.69115 5.59424 8.02829 6.89709 6.71972C8.20567 5.41686 9.86852 4.52544 11.68 4.16544C13.4914 3.80544 15.3657 3.99401 17.0742 4.70258C18.7828 5.40544 20.24 6.60544 21.2628 8.14258C22.2914 9.67972 22.8342 11.4854 22.8342 13.3311C22.8342 15.8054 21.8457 18.1769 20.0971 19.9254C18.3428 21.674 15.9714 22.6569 13.4971 22.6626Z"
            fill="#2D5967" />
        <path
            d="M15.7145 18.0049L15.1259 17.4106L13.8516 18.6849V7.02773L15.1259 8.29631L15.7145 7.70773L13.4288 5.42773L11.1431 7.70773L11.7374 8.29631L13.0116 7.02773V18.6849L11.7374 17.4106L11.1431 18.0049L13.4288 20.2849L15.7145 18.0049Z"
            fill="#2D5967" />
        <path
            d="M10.6114 15.714L12.8571 13.4283L10.6114 11.1426L10.0286 11.7311L11.2857 13.0054H6V13.8454H11.2857L10.0286 15.1197L10.6114 15.714Z"
            fill="#2D5967" />
        <path
            d="M20.8571 13.0054H15.5771L16.8286 11.7311L16.2514 11.1426L14 13.4283L16.2514 15.714L16.8286 15.1197L15.5771 13.8454H20.8571V13.0054Z"
            fill="#2D5967" />
    </g>
    <defs>
        <clipPath id="clip0_485_65168">
            <rect width="24" height="24" fill="white" />
        </clipPath>
    </defs>
</svg>
