<svg width="24" height="24" viewBox="0 0 24 24" fill="none" xmlns="http://www.w3.org/2000/svg">
    <path fill-rule="evenodd" clip-rule="evenodd"
        d="M5.83913 11.416C5.58126 11.416 5.36023 11.4936 5.17604 11.6178V11.4471H4.5498V13.4497H5.19446V12.1767C5.28656 12.068 5.50759 11.9283 5.78387 11.9283C5.87597 11.9283 5.96806 11.9439 6.04174 11.9594V11.4471C5.96806 11.4315 5.89439 11.416 5.83913 11.416Z"
        fill="black" />
    <path fill-rule="evenodd" clip-rule="evenodd"
        d="M0.294705 12.8287C0.460476 12.9529 0.718342 13.0305 0.939371 13.0305C1.10514 13.0305 1.25249 12.9529 1.25249 12.8597C1.25249 12.5492 0.0920952 12.6579 0.0920952 12.0214C0.0920952 11.6333 0.534152 11.4004 0.994628 11.4004C1.30775 11.4004 1.63929 11.4935 1.80507 11.6022L1.51036 11.9903C1.38143 11.9282 1.23408 11.8506 1.04988 11.8506C0.865695 11.8506 0.736761 11.9127 0.736761 12.0214C0.736761 12.2853 1.89716 12.1766 1.89716 12.8752C1.89716 13.2633 1.4551 13.4962 0.95779 13.4962C0.626247 13.4962 0.276285 13.4031 0 13.2323L0.294705 12.8287Z"
        fill="black" />
    <path fill-rule="evenodd" clip-rule="evenodd"
        d="M4.27322 12.425C4.27322 11.8661 3.81274 11.4004 3.14966 11.4004C2.44973 11.4004 1.98926 11.8972 1.98926 12.4405C1.98926 13.077 2.52341 13.4807 3.22333 13.4807C3.59171 13.4807 3.96009 13.3565 4.19954 13.1236L3.83116 12.8131C3.72065 12.9218 3.49962 13.046 3.24175 13.046C2.91021 13.046 2.63392 12.8442 2.59709 12.5647H4.23638C4.27322 12.5337 4.27322 12.4871 4.27322 12.425ZM2.65234 12.1921C2.68918 12.0059 2.91021 11.8351 3.16808 11.8351C3.42594 11.8351 3.61013 12.0059 3.64697 12.1921H2.65234Z"
        fill="black" />
    <path fill-rule="evenodd" clip-rule="evenodd"
        d="M8.84109 11.4473L7.75437 13.4499H7.31231L6.22559 11.4473H6.87025L7.53334 12.6737L8.178 11.4473H8.84109Z"
        fill="black" />
    <path fill-rule="evenodd" clip-rule="evenodd"
        d="M9.37495 10.5C9.6144 10.5 9.79859 10.6552 9.79859 10.8415C9.79859 11.0434 9.6144 11.1831 9.37495 11.1831C9.13551 11.1831 8.96973 11.0278 8.96973 10.8415C8.96973 10.6397 9.13551 10.5 9.37495 10.5Z"
        fill="black" />
    <path d="M9.70619 11.4473H9.06152V13.4499H9.70619V11.4473Z" fill="black" />
    <path fill-rule="evenodd" clip-rule="evenodd"
        d="M12.3216 13.0305C12.0453 13.341 11.6954 13.4807 11.2533 13.4807C10.5166 13.4807 9.98242 13.015 9.98242 12.4405C9.98242 11.8506 10.535 11.4004 11.2533 11.4004C11.677 11.4004 12.0269 11.5712 12.248 11.804L11.8243 12.13C11.6954 11.9903 11.5112 11.8972 11.2902 11.8972C10.9218 11.8972 10.6455 12.1456 10.6455 12.4405C10.6455 12.751 10.9034 12.9839 11.2902 12.9839C11.548 12.9839 11.7506 12.8597 11.8612 12.72L12.3216 13.0305Z"
        fill="black" />
    <path fill-rule="evenodd" clip-rule="evenodd"
        d="M14.6252 13.1236C14.3858 13.3565 14.0174 13.4807 13.649 13.4807C12.9491 13.4807 12.415 13.077 12.415 12.4405C12.415 11.8817 12.857 11.4004 13.5753 11.4004C14.22 11.4004 14.6989 11.8661 14.6989 12.425C14.6989 12.4871 14.6989 12.5337 14.6805 12.5803H13.0228C13.0596 12.8597 13.3359 13.0615 13.6674 13.0615C13.9253 13.0615 14.1463 12.9373 14.2569 12.8287L14.6252 13.1236ZM14.0358 12.1921C14.0174 12.0214 13.8332 11.8351 13.5569 11.8351C13.2991 11.8351 13.078 12.0059 13.0412 12.1921H14.0358Z"
        fill="black" />
    <path fill-rule="evenodd" clip-rule="evenodd"
        d="M14.9385 13.4497V11.4471H15.5463V11.6178C15.7305 11.4936 15.9515 11.416 16.2094 11.416C16.5409 11.416 16.8356 11.5402 17.0383 11.742C17.1856 11.8973 17.2961 12.0991 17.2961 12.4406V13.4653H16.6515V12.3941C16.6515 12.1922 16.5962 12.0836 16.5041 12.0215C16.412 11.9439 16.3015 11.8973 16.1357 11.8973C15.8779 11.8973 15.6568 12.037 15.5463 12.1457V13.4497H14.9385Z"
        fill="black" />
    <path fill-rule="evenodd" clip-rule="evenodd"
        d="M18.9342 11.4004C18.1606 11.4004 17.5527 11.9127 17.5527 12.5647C17.5527 12.9063 17.7185 13.2168 17.9764 13.4341C18.0685 13.5117 18.2342 13.5117 18.3447 13.4496C18.4921 13.341 18.7131 13.2789 18.9342 13.2789C19.1736 13.2789 19.3578 13.341 19.5236 13.4496C19.6341 13.5273 19.7814 13.5117 19.8919 13.4186C20.1498 13.2012 20.3156 12.9063 20.3156 12.5647C20.2972 11.9282 19.6893 11.4004 18.9342 11.4004ZM18.9157 13.1702C18.4921 13.1702 18.2158 12.9063 18.2158 12.5803C18.2158 12.2542 18.4921 11.9903 18.9157 11.9903C19.3394 11.9903 19.6157 12.2542 19.6157 12.5803C19.6157 12.9063 19.3394 13.1702 18.9157 13.1702Z"
        fill="black" />
    <path fill-rule="evenodd" clip-rule="evenodd"
        d="M20.1504 11.4473H20.7766L21.2924 12.5961L21.8081 11.4473H22.3423L22.8396 12.5961L23.3553 11.4473H24L23.0606 13.4499H22.5817L22.066 12.3166L21.5687 13.4499H21.0898L20.1504 11.4473Z"
        fill="black" />
</svg>
