<svg width="43" height="42" viewBox="0 0 43 42" fill="none" xmlns="http://www.w3.org/2000/svg">
    <path fill-rule="evenodd" clip-rule="evenodd"
        d="M6.80112 24.5792V19.0114C6.80112 11.7874 13.1864 5.60873 21.4764 5.60873C29.7664 5.60873 36.1517 11.7874 36.1517 19.0114V24.5792H41.1628V19.0114C41.1628 8.66367 32.1638 0.597656 21.4764 0.597656C10.789 0.597656 1.79004 8.66367 1.79004 19.0114V24.5792H6.80112Z"
        fill="black" />
    <path fill-rule="evenodd" clip-rule="evenodd"
        d="M18.2552 24.5781V28.29C18.2552 32.5854 22.0765 36.39 27.2035 36.39C32.3307 36.39 36.152 32.5854 36.152 28.29V24.5781H41.163V28.29C41.163 35.7091 34.7281 41.4011 27.2035 41.4011C19.6791 41.4011 13.2441 35.7091 13.2441 28.29V24.5781H18.2552Z"
        fill="black" />
    <path fill-rule="evenodd" clip-rule="evenodd"
        d="M29.7083 24.5781V26.4341C29.7083 27.8008 30.9656 29.2313 32.9298 29.2313C34.8939 29.2313 36.1512 27.8008 36.1512 26.4341V24.5781H41.1622V26.4341C41.1622 30.9246 37.2914 34.2424 32.9298 34.2424C28.5681 34.2424 24.6973 30.9246 24.6973 26.4341V24.5781H29.7083Z"
        fill="black" />
    <path fill-rule="evenodd" clip-rule="evenodd"
        d="M6.80112 24.5787V20.8668C6.80112 16.5715 10.6224 12.767 15.7495 12.767C20.8765 12.767 24.6978 16.5715 24.6978 20.8668V24.5787H29.7089V20.8668C29.7089 13.4477 23.274 7.75586 15.7495 7.75586C8.22495 7.75586 1.79004 13.4477 1.79004 20.8668V24.5787H6.80112Z"
        fill="black" />
    <path
        d="M38.6565 28.8756C41.0287 28.8756 42.9517 26.9525 42.9517 24.5804C42.9517 22.2082 41.0287 20.2852 38.6565 20.2852C36.2844 20.2852 34.3613 22.2082 34.3613 24.5804C34.3613 26.9525 36.2844 28.8756 38.6565 28.8756Z"
        fill="black" />
    <path
        d="M27.2034 28.8756C29.5756 28.8756 31.4986 26.9525 31.4986 24.5804C31.4986 22.2082 29.5756 20.2852 27.2034 20.2852C24.8312 20.2852 22.9082 22.2082 22.9082 24.5804C22.9082 26.9525 24.8312 28.8756 27.2034 28.8756Z"
        fill="black" />
    <path
        d="M15.7493 28.8756C18.1215 28.8756 20.0445 26.9525 20.0445 24.5804C20.0445 22.2082 18.1215 20.2852 15.7493 20.2852C13.3771 20.2852 11.4541 22.2082 11.4541 24.5804C11.4541 26.9525 13.3771 28.8756 15.7493 28.8756Z"
        fill="black" />
    <path
        d="M4.29521 28.8756C6.66739 28.8756 8.59042 26.9525 8.59042 24.5804C8.59042 22.2082 6.66739 20.2852 4.29521 20.2852C1.92303 20.2852 0 22.2082 0 24.5804C0 26.9525 1.92303 28.8756 4.29521 28.8756Z"
        fill="black" />
</svg>
