<svg width="40" height="40" viewBox="0 0 40 40" fill="none" xmlns="http://www.w3.org/2000/svg">
    <path fill-rule="evenodd" clip-rule="evenodd"
        d="M8.8463 14.0138H20V18.2619H8.86843L12.817 22.2105H6.70162L0.626701 16.1356L6.70162 10.0606H12.7995L8.8463 14.0138Z"
        fill="white" />
    <path fill-rule="evenodd" clip-rule="evenodd"
        d="M8.8463 28.3224H20V32.5704H8.86843L12.817 36.519H6.70162L0.626701 30.4441L6.70162 24.3692H12.7995L8.8463 28.3224Z"
        fill="white" />
    <path fill-rule="evenodd" clip-rule="evenodd"
        d="M31.1537 21.7427H20V25.9907H31.1316L27.183 29.9394H33.2984L39.3733 23.8644L33.2984 17.7895H27.2005L31.1537 21.7427Z"
        fill="white" />
    <path fill-rule="evenodd" clip-rule="evenodd"
        d="M31.1537 7.43419H20V11.6822H31.1316L27.183 15.6308H33.2984L39.3733 9.55591L33.2984 3.48099H27.2005L31.1537 7.43419Z"
        fill="white" />
</svg>
