<svg width="24" height="24" viewBox="0 0 24 24" fill="none" xmlns="http://www.w3.org/2000/svg">
    <g clip-path="url(#clip0_442_2597)">
        <path
            d="M23.8948 13.3359L20.6951 3.45573C20.5809 3.10441 20.3794 2.79072 20.1111 2.54644C19.8427 2.30216 19.5171 2.13596 19.1671 2.06469L9.18002 0.0384634C8.48341 -0.102942 7.75754 0.151631 7.28572 0.701878L0.511964 8.59591C0.274964 8.87292 0.112522 9.2101 0.0410691 9.57335C-0.0303843 9.93659 -0.00831457 10.313 0.105046 10.6645L3.30472 20.5447C3.41876 20.8961 3.6202 21.2099 3.8886 21.4543C4.157 21.6986 4.48278 21.8647 4.83289 21.9357L14.8199 23.9619C14.9461 23.9874 15.0743 24.0002 15.2027 24C15.7728 24 16.3282 23.7477 16.7141 23.2984L23.4879 15.4044C23.9701 14.8431 24.1259 14.0504 23.8948 13.3359ZM20.0289 3.6897L22.1335 10.1872L17.6608 2.84999C17.5657 2.6939 17.4486 2.55349 17.3136 2.43341L19.0342 2.7825C19.2622 2.82922 19.4742 2.9377 19.6489 3.09698C19.8235 3.25627 19.9546 3.4608 20.0289 3.6897ZM16.732 20.8253L12.8336 21.0308L19.1398 17.235C19.1493 17.2296 19.1587 17.223 19.168 17.2165L17.6503 20.2151C17.5612 20.3908 17.4297 20.5394 17.2687 20.6464C17.1077 20.7534 16.9228 20.815 16.732 20.8253ZM6.93426 20.7611L4.73139 17.1479C4.77323 17.1794 4.81611 17.2089 4.86109 17.236L11.2175 21.0624C11.2468 21.0799 11.2772 21.0972 11.3075 21.1125L7.91963 21.2908C7.5232 21.3105 7.14554 21.108 6.93426 20.7611ZM7.268 3.1763L11.1664 2.97079L4.8612 6.76659C4.85176 6.77204 4.84232 6.77858 4.83299 6.78512L6.35068 3.78651C6.43973 3.61096 6.57108 3.46244 6.73187 3.35549C6.89266 3.24853 7.07739 3.18679 7.268 3.1763ZM17.0667 3.24161L19.2695 6.85468C19.2277 6.82312 19.1844 6.79372 19.1398 6.76659L12.7834 2.94135C12.7541 2.92391 12.7237 2.90657 12.6934 2.89131L16.0813 2.71295C16.4756 2.68907 16.8544 2.8936 17.0667 3.24161ZM19.216 15.8298C19.2158 15.9866 19.176 16.1405 19.1008 16.2764C19.0256 16.4122 18.9175 16.5253 18.7872 16.6042L12.4308 20.4294C12.2997 20.508 12.1511 20.5493 11.9998 20.5493C11.8486 20.5493 11.6999 20.508 11.5689 20.4294L5.2137 16.6031C5.08338 16.5242 4.97522 16.4112 4.89998 16.2754C4.82474 16.1395 4.78505 15.9855 4.78487 15.8287V8.1717C4.78515 8.01493 4.82488 7.86098 4.90011 7.72512C4.97534 7.58927 5.08345 7.47625 5.2137 7.3973L11.5702 3.57206C11.7011 3.49318 11.8498 3.4519 12.0011 3.45246C12.1497 3.45246 12.2992 3.49269 12.432 3.57206L18.7873 7.3985C18.9177 7.47728 19.0259 7.59026 19.1012 7.72615C19.1764 7.86205 19.2161 8.01609 19.2161 8.1729L19.216 15.8298ZM4.10796 16.1246L2.26178 13.0956C2.1585 12.9255 2.10007 12.7301 2.09236 12.529C2.08465 12.328 2.12793 12.1284 2.21785 11.9503L4.08091 8.26862V15.8288C4.08091 15.93 4.09024 16.0279 4.10796 16.1246ZM19.8929 7.87701L21.7391 10.906C21.8424 11.0762 21.9008 11.2715 21.9085 11.4726C21.9163 11.6736 21.873 11.8732 21.7831 12.0513L19.9192 15.733V8.17279C19.9192 8.0727 19.9096 7.97371 19.8929 7.87701ZM7.81195 1.18911C7.93606 1.04514 8.08794 0.929952 8.25769 0.851058C8.42745 0.772163 8.61128 0.731327 8.79722 0.731206C8.87984 0.731206 8.96351 0.739928 9.04718 0.756172L15.2822 2.02108L7.2334 2.44529C7.01059 2.45728 6.79618 2.51278 6.59749 2.60414L7.81195 1.18911ZM1.03715 9.08314L5.51702 3.8637L1.59568 11.611C1.48 11.8412 1.41129 12.0937 1.39385 12.3528L0.772513 10.4331C0.698335 10.2038 0.683744 9.95823 0.730216 9.72121C0.776689 9.48418 0.882575 9.26392 1.03715 9.08314ZM3.97113 20.3121L1.86651 13.8145L6.33914 21.1517C6.43453 21.3076 6.55154 21.448 6.6864 21.5683L4.96678 21.2192C4.50345 21.1257 4.12275 20.7777 3.97113 20.3121ZM16.1892 22.8137C16.0368 22.9907 15.8429 23.1236 15.6264 23.1994C15.4099 23.2753 15.1782 23.2915 14.9538 23.2465L8.71879 21.9816L16.7676 21.5574C16.9904 21.5454 17.2048 21.4899 17.4035 21.3986L16.1892 22.8137ZM22.9629 14.9186L18.484 20.1392L22.4053 12.3919C22.5213 12.1619 22.59 11.9093 22.6072 11.6501L23.2285 13.5698C23.3024 13.799 23.3168 14.0445 23.2702 14.2813C23.2235 14.5182 23.1176 14.7381 22.9629 14.9186Z"
            fill="black" />
    </g>
    <defs>
        <clipPath id="clip0_442_2597">
            <rect width="24" height="24" fill="white" />
        </clipPath>
    </defs>
</svg>
