<svg width="24" height="24" viewBox="0 0 24 24" fill="none" xmlns="http://www.w3.org/2000/svg">
    <path
        d="M20.6472 7.31517C20.2186 7.31342 19.7941 7.3988 19.3995 7.56613C19.0049 7.73347 18.6485 7.97926 18.3518 8.28859L14.6745 5.63273C14.9337 5.15568 15.0642 4.6193 15.053 4.07647C15.047 3.52967 14.8908 3.00091 14.6144 2.53223C14.3303 2.06466 13.931 1.67779 13.4547 1.40859C12.98 1.14421 12.4392 1 11.8924 1C11.3456 1 10.8049 1.14421 10.3302 1.40859C9.85548 1.67899 9.45891 2.06354 9.1765 2.53223C8.90009 3.00091 8.74387 3.52967 8.73185 4.07647C8.71983 4.61725 8.85203 5.15804 9.11641 5.63273L5.43306 8.28859C5.07253 7.91605 4.62188 7.63965 4.12315 7.47741C3.62862 7.31767 3.10229 7.28258 2.59093 7.37526C2.08018 7.4714 1.59949 7.68772 1.19089 8.00618C0.7823 8.33065 0.457828 8.74525 0.253531 9.21994C0.0492342 9.69463 -0.0348866 10.2174 0.0131832 10.7341C0.0552443 11.2449 0.229496 11.7436 0.511907 12.1762C0.800326 12.6089 1.18488 12.9634 1.64756 13.2097C2.10422 13.4561 2.61496 13.5883 3.13772 13.5943C3.33 13.5943 3.52228 13.5763 3.70855 13.5402L5.11459 17.8304C4.624 18.0646 4.20237 18.4218 3.8907 18.8672C3.57903 19.3125 3.38794 19.831 3.33601 20.3721C3.28794 20.9129 3.37807 21.4537 3.6064 21.9524C3.83473 22.4452 4.18324 22.8718 4.62188 23.1902C5.06652 23.5087 5.58327 23.707 6.12406 23.7671C6.66485 23.8332 7.21765 23.749 7.71637 23.5387C8.22111 23.3284 8.65974 22.9859 8.99022 22.5533C9.3207 22.1267 9.53101 21.6159 9.60912 21.0752H14.1637C14.2358 21.6159 14.4462 22.1267 14.7826 22.5533C15.1071 22.9859 15.5457 23.3284 16.0505 23.5387C16.5492 23.7551 17.102 23.8332 17.6428 23.7731C18.1836 23.713 18.7003 23.5147 19.145 23.1962C19.5869 22.879 19.9388 22.4525 20.1665 21.9584C20.3888 21.4657 20.4849 20.9189 20.4369 20.3782C20.3828 19.8374 20.1965 19.3206 19.884 18.876C19.5756 18.4286 19.1549 18.0701 18.6643 17.8365L20.0703 13.5402C20.2626 13.5763 20.4549 13.5943 20.6472 13.5943C21.0798 13.6183 21.5124 13.5582 21.915 13.408C22.3176 13.2638 22.6901 13.0355 23.0026 12.7471C23.4761 12.3069 23.8014 11.7308 23.9338 11.098C24.0662 10.4652 23.999 9.80696 23.7417 9.21393C23.5674 8.82336 23.321 8.46885 23.0026 8.17442C22.6897 7.8798 22.3195 7.65277 21.915 7.50745C21.5124 7.36324 21.0798 7.29715 20.6472 7.32719V7.31517ZM17.2943 22.9559C16.8436 22.9559 16.399 22.8237 16.0204 22.5773C15.6423 22.3281 15.3489 21.9697 15.1792 21.5499C14.999 21.1353 14.9569 20.6786 15.047 20.2339C15.1311 19.7893 15.3535 19.3867 15.6719 19.0682C15.9964 18.7498 16.405 18.5335 16.8496 18.4433C17.2943 18.3532 17.757 18.4013 18.1716 18.5755C18.5922 18.7438 18.9527 19.0382 19.2051 19.4107C19.4574 19.7893 19.5896 20.2279 19.5896 20.6786C19.5896 21.2855 19.3493 21.8623 18.9166 22.2889C18.49 22.7216 17.9072 22.9559 17.2943 22.9559ZM9.61513 20.2399C9.51864 19.5316 9.18128 18.8781 8.65974 18.3893L10.3842 16.0038C10.8409 16.2441 11.3577 16.3703 11.8804 16.3763C12.4032 16.3763 12.9139 16.2502 13.3706 16.0038L15.0951 18.3893C14.5663 18.876 14.2298 19.5309 14.1337 20.2399H9.61513ZM4.17122 20.6606C4.17122 20.2099 4.30341 19.7713 4.55578 19.3987C4.80799 19.0219 5.16669 18.7286 5.58616 18.5563C6.00564 18.384 6.46691 18.3405 6.9112 18.4313C7.35585 18.5154 7.76444 18.7318 8.08891 19.0502C8.40738 19.3687 8.62369 19.7773 8.71382 20.2159C8.80395 20.6606 8.75588 21.1172 8.58163 21.5318C8.41339 21.9524 8.11295 22.307 7.74041 22.5593C7.36186 22.8057 6.91721 22.9379 6.46656 22.9379C5.85367 22.9379 5.27082 22.7035 4.83819 22.2709C4.62657 22.0595 4.45872 21.8085 4.34427 21.5322C4.22982 21.2558 4.17102 20.9597 4.17122 20.6606ZM3.14974 8.1564C3.60178 8.15549 4.04395 8.28856 4.4204 8.53882C4.79685 8.78907 5.09069 9.14528 5.26481 9.56244C5.43906 9.98305 5.48714 10.4397 5.397 10.8784C5.30687 11.323 5.09056 11.7316 4.7721 12.0501C4.44762 12.3685 4.03903 12.5848 3.59439 12.675C3.14974 12.7591 2.68707 12.711 2.26646 12.5428C1.85185 12.3685 1.49133 12.0741 1.23896 11.7015C0.988105 11.3286 0.85421 10.8892 0.854404 10.4397C0.854404 9.83283 1.09475 9.24998 1.52137 8.82337C1.954 8.39675 2.53685 8.1564 3.14974 8.1564ZM9.57908 4.1666C9.57908 3.72195 9.71127 3.27731 9.96364 2.90477C10.2187 2.52954 10.578 2.23712 10.9971 2.06354C11.4178 1.8953 11.8744 1.84723 12.3191 1.93135C12.7697 2.02148 13.1783 2.2378 13.4968 2.56227C13.8212 2.87472 14.0376 3.28332 14.1277 3.72195C14.2118 4.1666 14.1697 4.62326 13.9955 5.04387C13.7586 5.60392 13.3094 6.04731 12.7464 6.27703C12.1833 6.50676 11.5522 6.5041 10.9911 6.26966C10.7087 6.15549 10.4564 5.98724 10.24 5.77093C10.0297 5.55462 9.86149 5.30225 9.74732 5.01984C9.63165 4.74205 9.57439 4.44344 9.57908 4.14257V4.1666ZM17.5346 11.0045L14.7466 11.8878C14.5243 11.4191 14.1818 11.0105 13.7551 10.7041C13.3285 10.3916 12.8358 10.1934 12.3191 10.1213V7.27311C13.0279 7.18118 13.6835 6.84807 14.1758 6.32974L17.8651 8.9856C17.6188 9.43626 17.4866 9.95301 17.4866 10.4698C17.4866 10.65 17.5046 10.8243 17.5346 10.9985V11.0045ZM14.2118 13.2458C14.2118 13.6964 14.0736 14.1351 13.8212 14.5076C13.5689 14.8862 13.2084 15.1746 12.7937 15.3488C12.3731 15.5231 11.9105 15.5652 11.4658 15.481C11.0212 15.3909 10.6126 15.1746 10.2881 14.8561C9.96965 14.5377 9.75333 14.1291 9.6632 13.6904C9.57307 13.2458 9.62114 12.7891 9.79539 12.3745C9.96965 11.9599 10.2641 11.5994 10.6366 11.353C11.0152 11.1007 11.4598 10.9685 11.9165 10.9685C12.5219 10.9658 13.1037 11.2034 13.534 11.6293C13.9644 12.0551 14.2082 12.6344 14.2118 13.2398V13.2458ZM11.4658 7.27311V10.1213C10.9491 10.1934 10.4564 10.3916 10.0297 10.6981C9.60311 11.0045 9.26662 11.4131 9.03829 11.8818L6.25024 10.9985C6.2863 10.8123 6.30432 10.62 6.30432 10.4277C6.29831 9.92296 6.17213 9.43025 5.92577 8.9856L9.61513 6.32373C10.1018 6.84048 10.7568 7.17697 11.4658 7.27311ZM5.99187 11.8337L8.77992 12.717C8.74386 12.9033 8.72584 13.0956 8.73185 13.2818C8.72584 13.7085 8.81597 14.1351 8.98422 14.5256C9.15246 14.9162 9.40483 15.2707 9.71728 15.5652L7.99278 17.9566C7.53611 17.7103 7.02537 17.5781 6.50261 17.5841C6.31033 17.5781 6.11805 17.5961 5.92577 17.6322L4.51973 13.2818C5.1606 12.9781 5.68108 12.4682 5.99788 11.8337H5.99187ZM17.2943 17.53C16.7775 17.53 16.2608 17.6562 15.8041 17.8965L14.0856 15.5171C14.3981 15.2227 14.6444 14.8742 14.8127 14.4836C15.0628 13.9133 15.1341 13.2806 15.017 12.669L17.781 11.7977C18.0943 12.4434 18.6147 12.9659 19.2591 13.2818L17.8531 17.5721C17.6668 17.542 17.4866 17.524 17.2943 17.53ZM18.3518 10.4517C18.3518 10.0011 18.484 9.56244 18.7364 9.1899C18.9887 8.81135 19.3493 8.52293 19.7699 8.34867C20.1905 8.17442 20.6472 8.13236 21.0978 8.21648C21.5408 8.30518 21.9479 8.52224 22.2685 8.84064C22.589 9.15903 22.8088 9.56469 22.9004 10.0071C22.9906 10.4517 22.9425 10.9084 22.7682 11.323C22.5942 11.7421 22.2992 12.0998 21.921 12.3505C21.5485 12.5968 21.1038 12.729 20.6472 12.729C20.0403 12.729 19.4574 12.4947 19.0248 12.0621C18.8112 11.8519 18.6417 11.6012 18.5262 11.3247C18.4106 11.0482 18.3513 10.7514 18.3518 10.4517Z"
        fill="#AA643B" />
</svg>
