<svg width="24" height="24" viewBox="0 0 24 24" fill="none" xmlns="http://www.w3.org/2000/svg">
    <path
        d="M11.051 17.0874L10.7162 19.5432H13.2836L12.8371 17.0874C13.3952 16.7525 13.8417 16.1944 13.8417 15.413C13.8417 14.2967 12.8371 13.4037 11.6092 13.5153C10.8278 13.6269 10.2696 14.2967 10.0464 15.0781C9.93476 15.9711 10.3813 16.7525 11.051 17.0874Z"
        fill="#2D5967" />
    <path d="M9.26509 11.5059H8.37207V12.3989H9.26509V11.5059Z" fill="#2D5967" />
    <path d="M10.8276 11.5059H9.93457V12.3989H10.8276V11.5059Z" fill="#2D5967" />
    <path d="M12.3906 11.5059H11.4976V12.3989H12.3906V11.5059Z" fill="#2D5967" />
    <path d="M13.9531 11.5059H13.0601V12.3989H13.9531V11.5059Z" fill="#2D5967" />
    <path d="M7.59078 11.5059H6.69775V12.3989H7.59078V11.5059Z" fill="#2D5967" />
    <path d="M17.1904 11.5059H16.2974V12.3989H17.1904V11.5059Z" fill="#2D5967" />
    <path d="M15.6274 11.5059H14.7344V12.3989H15.6274V11.5059Z" fill="#2D5967" />
    <path
        d="M21.2093 9.16292L20.5395 9.83269L22.214 11.5071H19.6465V7.4885H17.414V6.37222C17.414 4.80943 16.8558 3.4699 15.7395 2.46525C14.6233 1.4606 13.1721 0.902458 11.7209 1.01409C8.81861 1.01409 6.47442 3.4699 6.47442 6.37222V7.4885H4.24186V11.5071H1.67442L3.34884 9.83269L2.7907 9.16292L0 11.9536L2.7907 14.7443L3.46047 14.0746L1.78605 12.4001H4.35349V23.228H19.6465V12.4001H22.214L20.5395 14.0746L21.2093 14.7443L24 11.9536L21.2093 9.16292ZM7.36744 6.37222C7.36744 3.91641 9.26512 1.90711 11.7209 1.79548C12.9488 1.68385 14.1767 2.13036 15.0698 3.02339C15.9628 3.91641 16.5209 5.03269 16.5209 6.37222V7.4885H15.8512V6.37222C15.8512 5.36757 15.4047 4.36292 14.6233 3.58153C13.8419 2.80013 12.8372 2.46525 11.8326 2.46525C9.71163 2.46525 8.03721 4.25129 8.03721 6.48385V7.60013H7.36744V6.37222ZM14.9581 6.37222V7.4885H8.93023V6.37222C8.93023 4.69781 10.2698 3.35827 11.8326 3.24664C12.614 3.24664 13.3953 3.58153 13.9535 4.13967C14.6233 4.80943 14.9581 5.4792 14.9581 6.37222ZM5.13488 22.335V12.4001H6.02791V11.5071H5.13488V8.38153H18.6419V11.5071H17.7488V12.4001H18.6419V22.335H5.13488Z"
        fill="#2D5967" />
</svg>
