<svg width="24" height="24" viewBox="0 0 24 24" fill="none" xmlns="http://www.w3.org/2000/svg">
    <path
        d="M20.9034 5.51317C20.3941 5.16781 19.8322 4.93951 19.2644 4.82829C18.7024 4.71122 18.2517 4.37171 18.0293 3.85659C17.1805 2.08293 15.4361 1 13.4634 1C12.0527 1 10.7063 1.57366 9.74634 2.65659C9.40683 3.05463 8.84488 3.23024 8.28293 3.17171C7.6039 3.11317 6.8722 3.23024 6.25171 3.51122C5.06927 4.08488 4.1678 5.16781 3.94537 6.48488C3.82829 7.05268 3.49463 7.50927 2.98537 7.73756C1.29366 8.65073 0.228293 10.3073 0.0526829 12.2507L0 12.7073H9.01463V11.8527H4.11512V9.85073H9.23707V9.96781L11.438 8.9961H7.04195V6.88293H12.1698V8.65073L13.0127 8.31122V6.88293H17.918V8.14146L18.761 8.48098V6.88293H21.3541C21.9161 7.45073 22.3083 8.19415 22.478 8.9961H19.9434L21.9161 9.85073H22.6478C22.6478 10.4244 22.5893 10.9922 22.3668 11.5659V12.7073H22.759L22.8702 12.479C24 10.0205 23.2098 6.99415 20.9034 5.51317ZM3.26634 11.8527H0.96C1.07122 11.1093 1.3522 10.4244 1.80293 9.85073H3.26634V11.8527ZM6.19902 8.9961H2.64585C2.87415 8.82634 3.09659 8.65073 3.37756 8.48098C3.99805 8.14146 4.50732 7.56781 4.67707 6.88293H6.19902V8.9961ZM9.18439 6.08098H4.89951C5.23902 5.28488 5.80098 4.65268 6.59122 4.31317C7.10049 4.08488 7.66244 3.96781 8.17171 4.02634C8.50537 4.08488 8.84488 4.02634 9.12585 3.91512L9.18439 6.08098ZM12.96 1.85463C13.1298 1.85463 13.2937 1.80195 13.4634 1.80195C14.5932 1.80195 15.6644 2.25854 16.4488 3.05463H12.96V1.85463ZM12.1112 2.08293V3.11317H10.478C10.9288 2.59805 11.4907 2.25854 12.1112 2.08293ZM15.038 6.08098H10.0273V3.96781H15.038V6.08098ZM15.8283 6.08098V3.96781H17.0693C17.1278 4.08488 17.1805 4.14341 17.239 4.25463C17.5785 4.99805 18.2517 5.51317 19.0419 5.68293C19.4341 5.74146 19.7737 5.91122 20.1132 6.08098H15.8283Z"
        fill="#2D5967" />
    <path
        d="M9.36572 10.0365V15.6209C9.52963 18.6121 11.5726 21.3809 15.0555 23.1312L15.2194 23.2424L15.3833 23.1312C18.8077 21.3809 20.9091 18.6121 21.073 15.6209V9.97799L15.2194 7.4375L9.36572 10.0365ZM20.2418 15.6209C20.0779 18.1614 18.4213 20.5321 15.553 22.1126V13.8707H14.7218V22.0014C11.9589 20.3624 10.3023 18.0502 10.1384 15.5682V10.5399L14.7218 8.50872V12.7995H15.553V8.45604L20.2418 10.4873V15.6209Z"
        fill="#2D5967" />
</svg>
