<svg width="40" height="40" viewBox="0 0 40 40" fill="none" xmlns="http://www.w3.org/2000/svg">
    <path fill-rule="evenodd" clip-rule="evenodd"
        d="M20 17.6303C21.1039 16.2751 22.7857 15.409 24.6681 15.409C26.5501 15.409 28.2313 16.2747 29.3352 17.6292C30.4391 16.2747 32.1206 15.409 34.0026 15.409C36.8319 15.409 39.208 17.3658 39.85 19.9989H39.8503L39.8502 20L39.8503 20.0009H39.85C39.208 22.634 36.8319 24.591 34.0026 24.591C32.1206 24.591 30.4391 23.7253 29.3352 22.3706C28.2313 23.7253 26.5501 24.591 24.6681 24.591C22.7857 24.591 21.1039 23.7247 20 22.3697C18.8961 23.7247 17.2145 24.591 15.3319 24.591C13.4501 24.591 11.7687 23.7253 10.6648 22.3706C9.56087 23.7253 7.8796 24.591 5.99763 24.591C3.16809 24.591 0.792154 22.634 0.15023 20.0009H0.149658L0.150039 20L0.149658 19.9989H0.15023C0.792154 17.3658 3.16809 15.409 5.99763 15.409C7.8796 15.409 9.56087 16.2747 10.6648 17.6292C11.7687 16.2747 13.4501 15.409 15.3319 15.409C17.2145 15.409 18.8961 16.2751 20 17.6303ZM28.1548 19.9989C27.5915 18.627 26.242 17.6599 24.6681 17.6599C23.094 17.6599 21.7439 18.6276 21.181 20C21.7439 21.3724 23.094 22.3399 24.6681 22.3399C26.242 22.3399 27.5917 21.3728 28.1548 20.0009V20V19.9989ZM30.5159 20.0009C31.079 21.3728 32.4287 22.3399 34.0026 22.3399C35.5766 22.3399 36.9267 21.3724 37.4896 20C36.9267 18.6276 35.5766 17.6599 34.0026 17.6599C32.4287 17.6599 31.0792 18.627 30.5159 19.9989V20V20.0009ZM9.48432 19.9989C8.92104 18.627 7.5715 17.6599 5.99763 17.6599C4.42338 17.6599 3.07345 18.6276 2.51055 20C3.07345 21.3724 4.42338 22.3399 5.99763 22.3399C7.5715 22.3399 8.92104 21.3728 9.48432 20.0009V20V19.9989ZM11.8454 20.0009C12.4085 21.3728 13.7582 22.3399 15.3319 22.3399C16.9062 22.3399 18.2561 21.3724 18.819 20C18.2561 18.6276 16.9062 17.6599 15.3319 17.6599C13.7582 17.6599 12.4087 18.627 11.8454 19.9989L11.8452 20L11.8454 20.0009Z"
        fill="white" />
</svg>
