<svg width="24" height="24" viewBox="0 0 24 24" fill="none" xmlns="http://www.w3.org/2000/svg">
    <path
        d="M12.2786 7.39848C13.1369 7.36893 14.0008 7.49803 14.8104 7.78529C16.0282 8.21281 17.1166 8.99629 17.913 10.0111C18.2634 10.4564 18.5568 10.9458 18.7868 11.4636C18.8276 11.5497 18.859 11.6466 18.8371 11.7426C18.8104 11.9037 18.6691 12.037 18.5067 12.0531C18.3379 12.0777 18.1635 11.9724 18.1034 11.8134C17.646 10.7373 16.8656 9.80246 15.892 9.15539C15.2901 8.75319 14.6151 8.46031 13.9099 8.29634C13.0005 8.08362 12.0431 8.08362 11.1335 8.29569C9.83476 8.59476 8.64562 9.33971 7.80694 10.3748C7.45133 10.811 7.15772 11.2971 6.93636 11.8144C6.88846 11.9346 6.77839 12.0288 6.64997 12.0499C6.52613 12.0738 6.39132 12.031 6.30497 11.9388C6.20316 11.8368 6.16987 11.6738 6.22236 11.5399C6.83156 10.0996 7.95956 8.8896 9.3464 8.1694C10.2497 7.69661 11.2601 7.43289 12.2786 7.39848Z"
        fill="black" />
    <path
        d="M11.1448 11.833C11.1397 11.7582 11.2105 11.7022 11.2806 11.7005C11.3717 11.698 11.4631 11.6988 11.5544 11.7001C11.6179 11.7022 11.6919 11.7445 11.6917 11.8158C11.6949 12.6527 11.6897 13.4899 11.6945 14.3273C12.0336 13.9502 12.3756 13.5752 12.7159 13.1993C12.7829 13.1332 12.8359 13.033 12.9401 13.0244C13.0806 13.0186 13.2214 13.0221 13.362 13.0223C13.4162 13.0174 13.4767 13.0671 13.4577 13.1249C13.4354 13.1696 13.3947 13.2002 13.3614 13.2357C12.9934 13.6033 12.624 13.9697 12.2579 14.339C12.6116 14.7427 12.9603 15.1505 13.3123 15.5557C13.3576 15.6134 13.4143 15.6623 13.4523 15.7259C13.4801 15.7756 13.434 15.836 13.3808 15.8384C13.2639 15.845 13.1467 15.8384 13.0295 15.8412C12.9686 15.8398 12.9027 15.8487 12.8473 15.8173C12.789 15.7838 12.7536 15.724 12.7119 15.6737C12.3723 15.2461 12.035 14.8168 11.6942 14.3899C11.6907 14.8109 11.6932 15.2316 11.6929 15.6523C11.6916 15.7009 11.7015 15.7594 11.6592 15.7948C11.5919 15.8598 11.4917 15.837 11.4077 15.8412C11.3332 15.8387 11.246 15.855 11.1854 15.8C11.1517 15.7737 11.1428 15.7289 11.1442 15.689C11.1451 14.4035 11.1438 13.1182 11.1448 11.833Z"
        fill="black" />
    <path
        d="M9.59773 13.0151C9.76799 12.9603 9.95989 12.9499 10.1267 13.0221C10.1852 13.0496 10.2532 13.1082 10.2267 13.1803C10.2 13.271 10.1772 13.3627 10.1453 13.4517C10.1218 13.5157 10.0476 13.5394 9.98521 13.5269C9.84477 13.5028 9.70686 13.4565 9.56286 13.4611C9.46237 13.4588 9.36964 13.5127 9.30092 13.5825C9.19002 13.691 9.13264 13.8427 9.10686 13.9932C9.08641 14.1019 9.09224 14.213 9.09131 14.3229C9.09131 14.7846 9.09148 15.2466 9.09121 15.7084C9.09776 15.7843 9.01921 15.8359 8.95067 15.8385C8.85654 15.8398 8.7626 15.841 8.66857 15.8377C8.6006 15.8342 8.52411 15.7846 8.53292 15.7081C8.53254 14.8531 8.53199 13.9983 8.53311 13.1433C8.52731 13.0583 8.62151 13.0121 8.6954 13.02C8.78811 13.0261 8.91467 12.9912 8.97496 13.0845C9.0207 13.1927 9.04244 13.3095 9.0854 13.4187C9.21467 13.2413 9.38605 13.0849 9.59773 13.0151Z"
        fill="black" />
    <path
        d="M0 13.0793C0.0261562 13.0493 0.0567189 13.0168 0.100313 13.0199C0.228001 13.0187 0.356063 13.0159 0.483657 13.0218C0.54844 13.0236 0.593063 13.0806 0.602534 13.1408C0.728064 13.6513 0.851347 14.1626 0.976316 14.6732C1.01297 14.8309 1.0576 14.987 1.0815 15.1474C1.10616 15.2915 1.11104 15.4378 1.13447 15.5821C1.16672 15.3761 1.1956 15.1687 1.25119 14.9674C1.4146 14.3579 1.57791 13.7486 1.74151 13.1393C1.75426 13.0698 1.8196 13.0204 1.88907 13.0204C2.03119 13.0168 2.1736 13.0193 2.31573 13.0193C2.39195 13.0157 2.47352 13.0602 2.49188 13.1383C2.61394 13.5826 2.73452 14.0277 2.8561 14.4724C2.92988 14.7604 3.02653 15.0435 3.06826 15.3391C3.07978 15.4204 3.09104 15.502 3.10782 15.5828C3.15366 15.1185 3.27311 14.6669 3.37136 14.2122C3.45246 13.8506 3.53175 13.4885 3.61379 13.1268C3.62588 13.0541 3.70275 13.0176 3.77046 13.0196C3.8854 13.019 4.00052 13.0157 4.11527 13.0215C4.18343 13.0235 4.2226 13.0988 4.1986 13.1596C3.96798 14.0106 3.7382 14.8621 3.50749 15.7131C3.49511 15.7814 3.43566 15.8346 3.36601 15.8357C3.18788 15.8416 3.00939 15.8372 2.83126 15.8381C2.76742 15.842 2.69991 15.8078 2.68866 15.7406C2.5292 15.1554 2.37291 14.5692 2.21494 13.9835C2.15776 13.7798 2.1346 13.5686 2.1106 13.359C2.08126 13.5456 2.06673 13.7352 2.01704 13.9185C1.85532 14.5215 1.69266 15.1248 1.53057 15.7279C1.51229 15.8256 1.40063 15.8451 1.31757 15.8387C1.15191 15.8357 0.986254 15.8426 0.820783 15.8357C0.761815 15.8359 0.716347 15.79 0.705753 15.7343C0.473253 14.8867 0.241501 14.0387 0.00881254 13.1913C0.000750002 13.1543 0.00178126 13.1165 0 13.0793Z"
        fill="black" />
    <path
        d="M20.8907 13.0224C21.0116 13.0203 21.133 13.0198 21.254 13.0224C21.3276 13.0234 21.3967 13.0737 21.4199 13.144C21.6288 13.6899 21.8362 14.2367 22.0447 14.7828C22.0883 14.8936 22.1188 15.0092 22.1383 15.1266C22.2246 14.8027 22.3394 14.4875 22.4402 14.1678C22.5524 13.8221 22.6647 13.4764 22.7774 13.1306C22.7941 13.0705 22.8515 13.0294 22.9124 13.0243C23.0111 13.017 23.1105 13.0234 23.2094 13.0207C23.2673 13.0214 23.3362 13.0147 23.3802 13.0611C23.4088 13.0853 23.4027 13.1255 23.3908 13.1569C23.0571 14.1089 22.7243 15.0615 22.391 16.0138C22.333 16.1724 22.2885 16.3384 22.1952 16.4811C22.0614 16.6985 21.8446 16.8549 21.6063 16.9396C21.523 16.9654 21.4371 17.0226 21.3475 16.9905C21.284 16.9743 21.2596 16.9082 21.2256 16.8596C21.2013 16.8155 21.1563 16.7748 21.1656 16.7199C21.1701 16.6655 21.2136 16.6213 21.265 16.6068C21.3655 16.5721 21.4677 16.5338 21.5491 16.4629C21.7469 16.2955 21.8693 16.048 21.9158 15.7961C21.8843 15.6842 21.8258 15.5814 21.7835 15.4731C21.4652 14.7334 21.1469 13.9934 20.8279 13.254C20.8086 13.2056 20.7803 13.1595 20.7749 13.107C20.7756 13.0494 20.8417 13.024 20.8907 13.0224Z"
        fill="black" />
    <path
        d="M6.05105 13.3793C5.87743 13.4116 5.71908 13.5197 5.63095 13.6736C5.48369 13.9233 5.46672 14.2245 5.47337 14.5076C5.48386 14.7639 5.52502 15.0373 5.68853 15.2445C5.8105 15.4003 6.01092 15.4786 6.20576 15.4756C6.39315 15.4816 6.58947 15.4181 6.7165 15.2756C6.87877 15.0982 6.93089 14.8519 6.95321 14.6197C6.96305 14.3916 6.96766 14.1593 6.9085 13.9366C6.86144 13.7484 6.76205 13.5603 6.59012 13.4589C6.43008 13.3607 6.23237 13.3516 6.05105 13.3793ZM6.12437 12.9734C6.43853 12.9541 6.76769 13.0193 7.02699 13.2054C7.25893 13.3704 7.41644 13.6247 7.49002 13.8973C7.5775 14.2228 7.57712 14.5702 7.4978 14.8973C7.42309 15.1989 7.24834 15.4833 6.98473 15.6547C6.70299 15.8416 6.34908 15.8902 6.01843 15.8503C5.73672 15.8156 5.46221 15.6921 5.26608 15.4845C5.03556 15.243 4.92108 14.9103 4.89727 14.5814C4.8683 14.2167 4.92418 13.8306 5.12705 13.5192C5.27714 13.2848 5.51575 13.1126 5.78189 13.034C5.89289 12.9993 6.00869 12.9832 6.12437 12.9734Z"
        fill="black" />
    <path
        d="M15.3911 13.366C15.2189 13.377 15.0527 13.4761 14.9758 13.6334C14.8256 13.9241 14.8225 14.2624 14.83 14.5821C14.842 14.791 14.8647 15.0066 14.962 15.1953C15.0278 15.3223 15.1474 15.4226 15.2888 15.4534C15.505 15.5054 15.7596 15.4613 15.9133 15.2904C16.0615 15.1218 16.1102 14.8924 16.133 14.6754C16.1486 14.428 16.1496 14.1755 16.0882 13.9334C16.046 13.7714 15.9746 13.6097 15.8463 13.4972C15.7233 13.389 15.5519 13.3472 15.3911 13.366ZM16.1322 11.7975C16.1283 11.7319 16.1953 11.69 16.2536 11.6849C16.3469 11.6799 16.4405 11.6823 16.5339 11.6833C16.6052 11.6827 16.6849 11.7356 16.6746 11.8148C16.6746 13.1061 16.6749 14.3972 16.6744 15.6884C16.6793 15.7551 16.6136 15.8068 16.552 15.8108C16.4777 15.8148 16.4032 15.8148 16.3291 15.8096C16.2769 15.8063 16.2263 15.7729 16.2085 15.7229C16.1805 15.639 16.166 15.5518 16.1447 15.4665C16.0416 15.6064 15.9086 15.7301 15.7435 15.7915C15.5078 15.8782 15.2456 15.8797 15.0035 15.8206C14.7602 15.7621 14.5483 15.5949 14.4309 15.3749C14.2467 15.039 14.2249 14.6438 14.2364 14.2691C14.243 13.9489 14.3041 13.6111 14.5127 13.3571C14.67 13.1417 14.9278 13.0181 15.1882 12.9858C15.4305 12.9504 15.6933 12.9911 15.8939 13.138C15.9888 13.2047 16.0647 13.2942 16.1325 13.3878C16.1306 12.8578 16.1311 12.3277 16.1322 11.7975Z"
        fill="black" />
    <path
        d="M18.7397 13.3811C18.6532 13.3987 18.5695 13.4334 18.4997 13.4875C18.36 13.5963 18.2906 13.7691 18.2536 13.9369C18.1997 14.2031 18.2004 14.4781 18.2283 14.7473C18.2543 14.9452 18.304 15.1563 18.449 15.3025C18.5672 15.4266 18.7453 15.4721 18.912 15.4639C19.0912 15.4704 19.2778 15.4036 19.3934 15.2628C19.538 15.0879 19.5787 14.8553 19.5998 14.6363C19.6132 14.3786 19.6134 14.1148 19.541 13.8647C19.4953 13.7089 19.4117 13.5539 19.2706 13.4651C19.1151 13.3631 18.9185 13.3537 18.7397 13.3811ZM18.4997 13.0275C18.7484 12.9586 19.0146 12.9545 19.2659 13.012C19.4993 13.0661 19.718 13.1971 19.8614 13.3912C20.0131 13.5902 20.0897 13.8368 20.1215 14.0826C20.1492 14.2722 20.1412 14.4642 20.1415 14.6552C20.1415 14.9998 20.1415 15.3445 20.1406 15.6891C20.1443 15.7311 20.1178 15.7683 20.0836 15.7902C20.0257 15.8258 19.954 15.81 19.8895 15.8141C19.8171 15.8135 19.722 15.8199 19.6826 15.7446C19.6442 15.6561 19.6362 15.5574 19.6115 15.4643C19.5145 15.5822 19.414 15.7039 19.2736 15.7721C19.0596 15.8778 18.8095 15.8716 18.5806 15.8269C18.3004 15.7716 18.0424 15.6059 17.884 15.3672C17.6953 15.0893 17.6269 14.7461 17.6295 14.4145C17.6271 14.0913 17.6904 13.7571 17.8701 13.4836C18.0139 13.26 18.2445 13.0981 18.4997 13.0275Z"
        fill="black" />
    <path
        d="M23.5099 15.1452C23.3677 15.1974 23.2782 15.3615 23.3145 15.5096C23.3515 15.6835 23.5538 15.8022 23.7226 15.7379C23.8782 15.6904 23.9763 15.5129 23.928 15.3564C23.8857 15.1804 23.6768 15.0763 23.5099 15.1452ZM23.5296 15.0708C23.614 15.0575 23.7057 15.0566 23.784 15.0957C23.9173 15.1563 24.0131 15.2994 23.9987 15.4483C24.0097 15.6259 23.8604 15.7846 23.6899 15.8132C23.498 15.854 23.2915 15.7149 23.2524 15.5235C23.2019 15.3308 23.3358 15.114 23.5296 15.0708Z"
        fill="black" />
    <path
        d="M23.5691 15.2881C23.5688 15.3284 23.5686 15.3687 23.5691 15.4093C23.6044 15.4071 23.6408 15.4093 23.6757 15.3996C23.7085 15.3861 23.7052 15.3443 23.6963 15.3164C23.6624 15.2832 23.6119 15.2918 23.5691 15.2881ZM23.4624 15.2225C23.5644 15.2283 23.6788 15.1995 23.7706 15.2564C23.8447 15.312 23.8088 15.4329 23.7252 15.4587C23.7493 15.5225 23.7828 15.5817 23.8135 15.6425C23.7749 15.6432 23.7369 15.6439 23.6989 15.6445C23.6715 15.5883 23.6445 15.5314 23.6183 15.4747C23.6016 15.4742 23.5852 15.474 23.5691 15.4737C23.5688 15.5304 23.5688 15.5872 23.5688 15.6439C23.5327 15.6434 23.4974 15.6429 23.4619 15.6427C23.4622 15.5025 23.4617 15.3623 23.4624 15.2225Z"
        fill="black" />
</svg>
