<svg width="24" height="24" viewBox="0 0 24 24" fill="none" xmlns="http://www.w3.org/2000/svg">
    <path
        d="M23.8342 12.6328C24.222 15.0318 22.1647 16.384 20.0814 16.5398C18.7554 19.301 14.0839 21.1656 10.0289 19.1572C8.29552 19.4229 7.3454 18.9839 6.61196 18.1465C8.09403 16.2149 12.5802 12.7382 18.0609 14.5325C20.986 15.4906 21.7444 13.2397 21.011 12.3958C18.2505 9.21969 12.0191 12.0786 11.7937 12.3167C14.2421 8.52281 22.9989 7.45826 23.8342 12.6328ZM15.4414 8.27258C15.4565 8.2671 13.4512 7.55045 10.6464 8.77742C10.5335 8.73499 10.4229 8.68664 10.3149 8.63255C13.0125 6.81734 15.3774 6.04692 17.399 6.34653C16.1748 4.91873 10.2922 3.86955 6.92185 7.29035C2.75521 6.45957 -0.159028 10.0362 0.00672625 13.3023C0.172481 16.5683 3.69016 18.6019 5.69438 18.051C5.74254 18.0444 5.79137 18.0444 5.83954 18.051C6.28372 15.8923 8.0973 10.8703 15.4414 8.27258Z"
        fill="black" />
</svg>
