<svg role="img" width="14" height="14" focusable="false" aria-hidden="true" viewBox="0 0 14 14" class=""><path fill="currentColor" d="M3.58686 10.4074H4.33686V9.65738H3.58686V10.4074ZM3.58686 12.9657H2.83686C2.83686 13.2497 2.99731 13.5094 3.25134 13.6365C3.50537 13.7635 3.80939 13.7362 4.03667 13.5658L3.58686 12.9657ZM7.00019 10.4074V9.65738H6.75032L6.55038 9.80723L7.00019 10.4074ZM2.83686 10.4074V12.9657H4.33686V10.4074H2.83686ZM4.03667 13.5658L7.45 11.0075L6.55038 9.80723L3.13704 12.3656L4.03667 13.5658ZM7.00019 11.1574H12.1202V9.65738H7.00019V11.1574ZM12.1202 11.1574C13.0058 11.1574 13.7235 10.4409 13.7235 9.55462H12.2235C12.2235 9.61151 12.1783 9.65738 12.1202 9.65738V11.1574ZM13.7235 9.55462V1.87962H12.2235V9.55462H13.7235ZM13.7235 1.87962C13.7235 0.993337 13.0058 0.276855 12.1202 0.276855V1.77686C12.1783 1.77686 12.2235 1.82272 12.2235 1.87962H13.7235ZM12.1202 0.276855H1.88019V1.77686H12.1202V0.276855ZM1.88019 0.276855C0.994562 0.276855 0.276855 0.993336 0.276855 1.87962H1.77686C1.77686 1.82272 1.82203 1.77686 1.88019 1.77686V0.276855ZM0.276855 1.87962V9.55462H1.77686V1.87962H0.276855ZM0.276855 9.55462C0.276855 10.4409 0.994562 11.1574 1.88019 11.1574V9.65738C1.82203 9.65738 1.77686 9.61151 1.77686 9.55462H0.276855ZM1.88019 11.1574H3.58686V9.65738H1.88019V11.1574Z"></path></svg>